<?xml version="1.0" encoding="utf-8" standalone="no"?>
<!DOCTYPE svg PUBLIC "-//W3C//DTD SVG 1.1//EN"
  "http://www.w3.org/Graphics/SVG/1.1/DTD/svg11.dtd">
<!-- Created with matplotlib (https://matplotlib.org/) -->
<svg height="469.648125pt" version="1.1" viewBox="0 0 461.74446 469.648125" width="461.74446pt" xmlns="http://www.w3.org/2000/svg" xmlns:xlink="http://www.w3.org/1999/xlink">
 <metadata>
  <rdf:RDF xmlns:cc="http://creativecommons.org/ns#" xmlns:dc="http://purl.org/dc/elements/1.1/" xmlns:rdf="http://www.w3.org/1999/02/22-rdf-syntax-ns#">
   <cc:Work>
    <dc:type rdf:resource="http://purl.org/dc/dcmitype/StillImage"/>
    <dc:date>2023-09-27T17:38:49.804407</dc:date>
    <dc:format>image/svg+xml</dc:format>
    <dc:creator>
     <cc:Agent>
      <dc:title>Matplotlib v3.3.4, https://matplotlib.org/</dc:title>
     </cc:Agent>
    </dc:creator>
   </cc:Work>
  </rdf:RDF>
 </metadata>
 <defs>
  <style type="text/css">*{stroke-linecap:butt;stroke-linejoin:round;}</style>
 </defs>
 <g id="figure_1">
  <g id="patch_1">
   <path d="M 0 469.648125 
L 461.74446 469.648125 
L 461.74446 0 
L 0 0 
z
" style="fill:#ffffff;"/>
  </g>
  <g id="axes_1">
   <g id="patch_2">
    <path d="M 57.885 420.478125 
L 448.485 420.478125 
L 448.485 32.398125 
L 57.885 32.398125 
z
" style="fill:none;"/>
   </g>
   <g id="matplotlib.axis_1">
    <g id="xtick_1">
     <g id="line2d_1">
      <defs>
       <path d="M 0 0 
L 0 3.5 
" id="m7b70ebc89d" style="stroke:#000000;stroke-width:0.8;"/>
      </defs>
      <g>
       <use style="stroke:#000000;stroke-width:0.8;" x="62.957727" xlink:href="#m7b70ebc89d" y="420.478125"/>
      </g>
     </g>
     <g id="text_1">
      <!-- −1.5 -->
      <g transform="translate(45.959759 438.115937)scale(0.14 -0.14)">
       <defs>
        <path d="M 10.59375 35.5 
L 73.1875 35.5 
L 73.1875 27.203125 
L 10.59375 27.203125 
z
" id="DejaVuSans-8722"/>
        <path d="M 12.40625 8.296875 
L 28.515625 8.296875 
L 28.515625 63.921875 
L 10.984375 60.40625 
L 10.984375 69.390625 
L 28.421875 72.90625 
L 38.28125 72.90625 
L 38.28125 8.296875 
L 54.390625 8.296875 
L 54.390625 0 
L 12.40625 0 
z
" id="DejaVuSans-49"/>
        <path d="M 10.6875 12.40625 
L 21 12.40625 
L 21 0 
L 10.6875 0 
z
" id="DejaVuSans-46"/>
        <path d="M 10.796875 72.90625 
L 49.515625 72.90625 
L 49.515625 64.59375 
L 19.828125 64.59375 
L 19.828125 46.734375 
Q 21.96875 47.46875 24.109375 47.828125 
Q 26.265625 48.1875 28.421875 48.1875 
Q 40.625 48.1875 47.75 41.5 
Q 54.890625 34.8125 54.890625 23.390625 
Q 54.890625 11.625 47.5625 5.09375 
Q 40.234375 -1.421875 26.90625 -1.421875 
Q 22.3125 -1.421875 17.546875 -0.640625 
Q 12.796875 0.140625 7.71875 1.703125 
L 7.71875 11.625 
Q 12.109375 9.234375 16.796875 8.0625 
Q 21.484375 6.890625 26.703125 6.890625 
Q 35.15625 6.890625 40.078125 11.328125 
Q 45.015625 15.765625 45.015625 23.390625 
Q 45.015625 31 40.078125 35.4375 
Q 35.15625 39.890625 26.703125 39.890625 
Q 22.75 39.890625 18.8125 39.015625 
Q 14.890625 38.140625 10.796875 36.28125 
z
" id="DejaVuSans-53"/>
       </defs>
       <use xlink:href="#DejaVuSans-8722"/>
       <use x="83.789062" xlink:href="#DejaVuSans-49"/>
       <use x="147.412109" xlink:href="#DejaVuSans-46"/>
       <use x="179.199219" xlink:href="#DejaVuSans-53"/>
      </g>
     </g>
    </g>
    <g id="xtick_2">
     <g id="line2d_2">
      <g>
       <use style="stroke:#000000;stroke-width:0.8;" x="126.366818" xlink:href="#m7b70ebc89d" y="420.478125"/>
      </g>
     </g>
     <g id="text_2">
      <!-- −1.0 -->
      <g transform="translate(109.368849 438.115937)scale(0.14 -0.14)">
       <defs>
        <path d="M 31.78125 66.40625 
Q 24.171875 66.40625 20.328125 58.90625 
Q 16.5 51.421875 16.5 36.375 
Q 16.5 21.390625 20.328125 13.890625 
Q 24.171875 6.390625 31.78125 6.390625 
Q 39.453125 6.390625 43.28125 13.890625 
Q 47.125 21.390625 47.125 36.375 
Q 47.125 51.421875 43.28125 58.90625 
Q 39.453125 66.40625 31.78125 66.40625 
z
M 31.78125 74.21875 
Q 44.046875 74.21875 50.515625 64.515625 
Q 56.984375 54.828125 56.984375 36.375 
Q 56.984375 17.96875 50.515625 8.265625 
Q 44.046875 -1.421875 31.78125 -1.421875 
Q 19.53125 -1.421875 13.0625 8.265625 
Q 6.59375 17.96875 6.59375 36.375 
Q 6.59375 54.828125 13.0625 64.515625 
Q 19.53125 74.21875 31.78125 74.21875 
z
" id="DejaVuSans-48"/>
       </defs>
       <use xlink:href="#DejaVuSans-8722"/>
       <use x="83.789062" xlink:href="#DejaVuSans-49"/>
       <use x="147.412109" xlink:href="#DejaVuSans-46"/>
       <use x="179.199219" xlink:href="#DejaVuSans-48"/>
      </g>
     </g>
    </g>
    <g id="xtick_3">
     <g id="line2d_3">
      <g>
       <use style="stroke:#000000;stroke-width:0.8;" x="189.775909" xlink:href="#m7b70ebc89d" y="420.478125"/>
      </g>
     </g>
     <g id="text_3">
      <!-- −0.5 -->
      <g transform="translate(172.77794 438.115937)scale(0.14 -0.14)">
       <use xlink:href="#DejaVuSans-8722"/>
       <use x="83.789062" xlink:href="#DejaVuSans-48"/>
       <use x="147.412109" xlink:href="#DejaVuSans-46"/>
       <use x="179.199219" xlink:href="#DejaVuSans-53"/>
      </g>
     </g>
    </g>
    <g id="xtick_4">
     <g id="line2d_4">
      <g>
       <use style="stroke:#000000;stroke-width:0.8;" x="253.185" xlink:href="#m7b70ebc89d" y="420.478125"/>
      </g>
     </g>
     <g id="text_4">
      <!-- 0.0 -->
      <g transform="translate(242.052813 438.115937)scale(0.14 -0.14)">
       <use xlink:href="#DejaVuSans-48"/>
       <use x="63.623047" xlink:href="#DejaVuSans-46"/>
       <use x="95.410156" xlink:href="#DejaVuSans-48"/>
      </g>
     </g>
    </g>
    <g id="xtick_5">
     <g id="line2d_5">
      <g>
       <use style="stroke:#000000;stroke-width:0.8;" x="316.594091" xlink:href="#m7b70ebc89d" y="420.478125"/>
      </g>
     </g>
     <g id="text_5">
      <!-- 0.5 -->
      <g transform="translate(305.461903 438.115937)scale(0.14 -0.14)">
       <use xlink:href="#DejaVuSans-48"/>
       <use x="63.623047" xlink:href="#DejaVuSans-46"/>
       <use x="95.410156" xlink:href="#DejaVuSans-53"/>
      </g>
     </g>
    </g>
    <g id="xtick_6">
     <g id="line2d_6">
      <g>
       <use style="stroke:#000000;stroke-width:0.8;" x="380.003182" xlink:href="#m7b70ebc89d" y="420.478125"/>
      </g>
     </g>
     <g id="text_6">
      <!-- 1.0 -->
      <g transform="translate(368.870994 438.115937)scale(0.14 -0.14)">
       <use xlink:href="#DejaVuSans-49"/>
       <use x="63.623047" xlink:href="#DejaVuSans-46"/>
       <use x="95.410156" xlink:href="#DejaVuSans-48"/>
      </g>
     </g>
    </g>
    <g id="xtick_7">
     <g id="line2d_7">
      <g>
       <use style="stroke:#000000;stroke-width:0.8;" x="443.412273" xlink:href="#m7b70ebc89d" y="420.478125"/>
      </g>
     </g>
     <g id="text_7">
      <!-- 1.5 -->
      <g transform="translate(432.280085 438.115937)scale(0.14 -0.14)">
       <use xlink:href="#DejaVuSans-49"/>
       <use x="63.623047" xlink:href="#DejaVuSans-46"/>
       <use x="95.410156" xlink:href="#DejaVuSans-53"/>
      </g>
     </g>
    </g>
    <g id="text_8">
     <!-- Sample bias (V) -->
     <g transform="translate(182.120156 458.704687)scale(0.18 -0.18)">
      <defs>
       <path d="M 53.515625 70.515625 
L 53.515625 60.890625 
Q 47.90625 63.578125 42.921875 64.890625 
Q 37.9375 66.21875 33.296875 66.21875 
Q 25.25 66.21875 20.875 63.09375 
Q 16.5 59.96875 16.5 54.203125 
Q 16.5 49.359375 19.40625 46.890625 
Q 22.3125 44.4375 30.421875 42.921875 
L 36.375 41.703125 
Q 47.40625 39.59375 52.65625 34.296875 
Q 57.90625 29 57.90625 20.125 
Q 57.90625 9.515625 50.796875 4.046875 
Q 43.703125 -1.421875 29.984375 -1.421875 
Q 24.8125 -1.421875 18.96875 -0.25 
Q 13.140625 0.921875 6.890625 3.21875 
L 6.890625 13.375 
Q 12.890625 10.015625 18.65625 8.296875 
Q 24.421875 6.59375 29.984375 6.59375 
Q 38.421875 6.59375 43.015625 9.90625 
Q 47.609375 13.234375 47.609375 19.390625 
Q 47.609375 24.75 44.3125 27.78125 
Q 41.015625 30.8125 33.5 32.328125 
L 27.484375 33.5 
Q 16.453125 35.6875 11.515625 40.375 
Q 6.59375 45.0625 6.59375 53.421875 
Q 6.59375 63.09375 13.40625 68.65625 
Q 20.21875 74.21875 32.171875 74.21875 
Q 37.3125 74.21875 42.625 73.28125 
Q 47.953125 72.359375 53.515625 70.515625 
z
" id="DejaVuSans-83"/>
       <path d="M 34.28125 27.484375 
Q 23.390625 27.484375 19.1875 25 
Q 14.984375 22.515625 14.984375 16.5 
Q 14.984375 11.71875 18.140625 8.90625 
Q 21.296875 6.109375 26.703125 6.109375 
Q 34.1875 6.109375 38.703125 11.40625 
Q 43.21875 16.703125 43.21875 25.484375 
L 43.21875 27.484375 
z
M 52.203125 31.203125 
L 52.203125 0 
L 43.21875 0 
L 43.21875 8.296875 
Q 40.140625 3.328125 35.546875 0.953125 
Q 30.953125 -1.421875 24.3125 -1.421875 
Q 15.921875 -1.421875 10.953125 3.296875 
Q 6 8.015625 6 15.921875 
Q 6 25.140625 12.171875 29.828125 
Q 18.359375 34.515625 30.609375 34.515625 
L 43.21875 34.515625 
L 43.21875 35.40625 
Q 43.21875 41.609375 39.140625 45 
Q 35.0625 48.390625 27.6875 48.390625 
Q 23 48.390625 18.546875 47.265625 
Q 14.109375 46.140625 10.015625 43.890625 
L 10.015625 52.203125 
Q 14.9375 54.109375 19.578125 55.046875 
Q 24.21875 56 28.609375 56 
Q 40.484375 56 46.34375 49.84375 
Q 52.203125 43.703125 52.203125 31.203125 
z
" id="DejaVuSans-97"/>
       <path d="M 52 44.1875 
Q 55.375 50.25 60.0625 53.125 
Q 64.75 56 71.09375 56 
Q 79.640625 56 84.28125 50.015625 
Q 88.921875 44.046875 88.921875 33.015625 
L 88.921875 0 
L 79.890625 0 
L 79.890625 32.71875 
Q 79.890625 40.578125 77.09375 44.375 
Q 74.3125 48.1875 68.609375 48.1875 
Q 61.625 48.1875 57.5625 43.546875 
Q 53.515625 38.921875 53.515625 30.90625 
L 53.515625 0 
L 44.484375 0 
L 44.484375 32.71875 
Q 44.484375 40.625 41.703125 44.40625 
Q 38.921875 48.1875 33.109375 48.1875 
Q 26.21875 48.1875 22.15625 43.53125 
Q 18.109375 38.875 18.109375 30.90625 
L 18.109375 0 
L 9.078125 0 
L 9.078125 54.6875 
L 18.109375 54.6875 
L 18.109375 46.1875 
Q 21.1875 51.21875 25.484375 53.609375 
Q 29.78125 56 35.6875 56 
Q 41.65625 56 45.828125 52.96875 
Q 50 49.953125 52 44.1875 
z
" id="DejaVuSans-109"/>
       <path d="M 18.109375 8.203125 
L 18.109375 -20.796875 
L 9.078125 -20.796875 
L 9.078125 54.6875 
L 18.109375 54.6875 
L 18.109375 46.390625 
Q 20.953125 51.265625 25.265625 53.625 
Q 29.59375 56 35.59375 56 
Q 45.5625 56 51.78125 48.09375 
Q 58.015625 40.1875 58.015625 27.296875 
Q 58.015625 14.40625 51.78125 6.484375 
Q 45.5625 -1.421875 35.59375 -1.421875 
Q 29.59375 -1.421875 25.265625 0.953125 
Q 20.953125 3.328125 18.109375 8.203125 
z
M 48.6875 27.296875 
Q 48.6875 37.203125 44.609375 42.84375 
Q 40.53125 48.484375 33.40625 48.484375 
Q 26.265625 48.484375 22.1875 42.84375 
Q 18.109375 37.203125 18.109375 27.296875 
Q 18.109375 17.390625 22.1875 11.75 
Q 26.265625 6.109375 33.40625 6.109375 
Q 40.53125 6.109375 44.609375 11.75 
Q 48.6875 17.390625 48.6875 27.296875 
z
" id="DejaVuSans-112"/>
       <path d="M 9.421875 75.984375 
L 18.40625 75.984375 
L 18.40625 0 
L 9.421875 0 
z
" id="DejaVuSans-108"/>
       <path d="M 56.203125 29.59375 
L 56.203125 25.203125 
L 14.890625 25.203125 
Q 15.484375 15.921875 20.484375 11.0625 
Q 25.484375 6.203125 34.421875 6.203125 
Q 39.59375 6.203125 44.453125 7.46875 
Q 49.3125 8.734375 54.109375 11.28125 
L 54.109375 2.78125 
Q 49.265625 0.734375 44.1875 -0.34375 
Q 39.109375 -1.421875 33.890625 -1.421875 
Q 20.796875 -1.421875 13.15625 6.1875 
Q 5.515625 13.8125 5.515625 26.8125 
Q 5.515625 40.234375 12.765625 48.109375 
Q 20.015625 56 32.328125 56 
Q 43.359375 56 49.78125 48.890625 
Q 56.203125 41.796875 56.203125 29.59375 
z
M 47.21875 32.234375 
Q 47.125 39.59375 43.09375 43.984375 
Q 39.0625 48.390625 32.421875 48.390625 
Q 24.90625 48.390625 20.390625 44.140625 
Q 15.875 39.890625 15.1875 32.171875 
z
" id="DejaVuSans-101"/>
       <path id="DejaVuSans-32"/>
       <path d="M 48.6875 27.296875 
Q 48.6875 37.203125 44.609375 42.84375 
Q 40.53125 48.484375 33.40625 48.484375 
Q 26.265625 48.484375 22.1875 42.84375 
Q 18.109375 37.203125 18.109375 27.296875 
Q 18.109375 17.390625 22.1875 11.75 
Q 26.265625 6.109375 33.40625 6.109375 
Q 40.53125 6.109375 44.609375 11.75 
Q 48.6875 17.390625 48.6875 27.296875 
z
M 18.109375 46.390625 
Q 20.953125 51.265625 25.265625 53.625 
Q 29.59375 56 35.59375 56 
Q 45.5625 56 51.78125 48.09375 
Q 58.015625 40.1875 58.015625 27.296875 
Q 58.015625 14.40625 51.78125 6.484375 
Q 45.5625 -1.421875 35.59375 -1.421875 
Q 29.59375 -1.421875 25.265625 0.953125 
Q 20.953125 3.328125 18.109375 8.203125 
L 18.109375 0 
L 9.078125 0 
L 9.078125 75.984375 
L 18.109375 75.984375 
z
" id="DejaVuSans-98"/>
       <path d="M 9.421875 54.6875 
L 18.40625 54.6875 
L 18.40625 0 
L 9.421875 0 
z
M 9.421875 75.984375 
L 18.40625 75.984375 
L 18.40625 64.59375 
L 9.421875 64.59375 
z
" id="DejaVuSans-105"/>
       <path d="M 44.28125 53.078125 
L 44.28125 44.578125 
Q 40.484375 46.53125 36.375 47.5 
Q 32.28125 48.484375 27.875 48.484375 
Q 21.1875 48.484375 17.84375 46.4375 
Q 14.5 44.390625 14.5 40.28125 
Q 14.5 37.15625 16.890625 35.375 
Q 19.28125 33.59375 26.515625 31.984375 
L 29.59375 31.296875 
Q 39.15625 29.25 43.1875 25.515625 
Q 47.21875 21.78125 47.21875 15.09375 
Q 47.21875 7.46875 41.1875 3.015625 
Q 35.15625 -1.421875 24.609375 -1.421875 
Q 20.21875 -1.421875 15.453125 -0.5625 
Q 10.6875 0.296875 5.421875 2 
L 5.421875 11.28125 
Q 10.40625 8.6875 15.234375 7.390625 
Q 20.0625 6.109375 24.8125 6.109375 
Q 31.15625 6.109375 34.5625 8.28125 
Q 37.984375 10.453125 37.984375 14.40625 
Q 37.984375 18.0625 35.515625 20.015625 
Q 33.0625 21.96875 24.703125 23.78125 
L 21.578125 24.515625 
Q 13.234375 26.265625 9.515625 29.90625 
Q 5.8125 33.546875 5.8125 39.890625 
Q 5.8125 47.609375 11.28125 51.796875 
Q 16.75 56 26.8125 56 
Q 31.78125 56 36.171875 55.265625 
Q 40.578125 54.546875 44.28125 53.078125 
z
" id="DejaVuSans-115"/>
       <path d="M 31 75.875 
Q 24.46875 64.65625 21.28125 53.65625 
Q 18.109375 42.671875 18.109375 31.390625 
Q 18.109375 20.125 21.3125 9.0625 
Q 24.515625 -2 31 -13.1875 
L 23.1875 -13.1875 
Q 15.875 -1.703125 12.234375 9.375 
Q 8.59375 20.453125 8.59375 31.390625 
Q 8.59375 42.28125 12.203125 53.3125 
Q 15.828125 64.359375 23.1875 75.875 
z
" id="DejaVuSans-40"/>
       <path d="M 28.609375 0 
L 0.78125 72.90625 
L 11.078125 72.90625 
L 34.1875 11.53125 
L 57.328125 72.90625 
L 67.578125 72.90625 
L 39.796875 0 
z
" id="DejaVuSans-86"/>
       <path d="M 8.015625 75.875 
L 15.828125 75.875 
Q 23.140625 64.359375 26.78125 53.3125 
Q 30.421875 42.28125 30.421875 31.390625 
Q 30.421875 20.453125 26.78125 9.375 
Q 23.140625 -1.703125 15.828125 -13.1875 
L 8.015625 -13.1875 
Q 14.5 -2 17.703125 9.0625 
Q 20.90625 20.125 20.90625 31.390625 
Q 20.90625 42.671875 17.703125 53.65625 
Q 14.5 64.65625 8.015625 75.875 
z
" id="DejaVuSans-41"/>
      </defs>
      <use xlink:href="#DejaVuSans-83"/>
      <use x="63.476562" xlink:href="#DejaVuSans-97"/>
      <use x="124.755859" xlink:href="#DejaVuSans-109"/>
      <use x="222.167969" xlink:href="#DejaVuSans-112"/>
      <use x="285.644531" xlink:href="#DejaVuSans-108"/>
      <use x="313.427734" xlink:href="#DejaVuSans-101"/>
      <use x="374.951172" xlink:href="#DejaVuSans-32"/>
      <use x="406.738281" xlink:href="#DejaVuSans-98"/>
      <use x="470.214844" xlink:href="#DejaVuSans-105"/>
      <use x="497.998047" xlink:href="#DejaVuSans-97"/>
      <use x="559.277344" xlink:href="#DejaVuSans-115"/>
      <use x="611.376953" xlink:href="#DejaVuSans-32"/>
      <use x="643.164062" xlink:href="#DejaVuSans-40"/>
      <use x="682.177734" xlink:href="#DejaVuSans-86"/>
      <use x="750.585938" xlink:href="#DejaVuSans-41"/>
     </g>
    </g>
   </g>
   <g id="matplotlib.axis_2">
    <g id="ytick_1">
     <g id="line2d_8">
      <defs>
       <path d="M 0 0 
L -3.5 0 
" id="mdfd055b756" style="stroke:#000000;stroke-width:0.8;"/>
      </defs>
      <g>
       <use style="stroke:#000000;stroke-width:0.8;" x="57.885" xlink:href="#mdfd055b756" y="415.451447"/>
      </g>
     </g>
     <g id="text_9">
      <!-- 0.0 -->
      <g transform="translate(28.620625 420.770353)scale(0.14 -0.14)">
       <use xlink:href="#DejaVuSans-48"/>
       <use x="63.623047" xlink:href="#DejaVuSans-46"/>
       <use x="95.410156" xlink:href="#DejaVuSans-48"/>
      </g>
     </g>
    </g>
    <g id="ytick_2">
     <g id="line2d_9">
      <g>
       <use style="stroke:#000000;stroke-width:0.8;" x="57.885" xlink:href="#mdfd055b756" y="361.72958"/>
      </g>
     </g>
     <g id="text_10">
      <!-- 0.1 -->
      <g transform="translate(28.620625 367.048486)scale(0.14 -0.14)">
       <use xlink:href="#DejaVuSans-48"/>
       <use x="63.623047" xlink:href="#DejaVuSans-46"/>
       <use x="95.410156" xlink:href="#DejaVuSans-49"/>
      </g>
     </g>
    </g>
    <g id="ytick_3">
     <g id="line2d_10">
      <g>
       <use style="stroke:#000000;stroke-width:0.8;" x="57.885" xlink:href="#mdfd055b756" y="308.007713"/>
      </g>
     </g>
     <g id="text_11">
      <!-- 0.2 -->
      <g transform="translate(28.620625 313.326619)scale(0.14 -0.14)">
       <defs>
        <path d="M 19.1875 8.296875 
L 53.609375 8.296875 
L 53.609375 0 
L 7.328125 0 
L 7.328125 8.296875 
Q 12.9375 14.109375 22.625 23.890625 
Q 32.328125 33.6875 34.8125 36.53125 
Q 39.546875 41.84375 41.421875 45.53125 
Q 43.3125 49.21875 43.3125 52.78125 
Q 43.3125 58.59375 39.234375 62.25 
Q 35.15625 65.921875 28.609375 65.921875 
Q 23.96875 65.921875 18.8125 64.3125 
Q 13.671875 62.703125 7.8125 59.421875 
L 7.8125 69.390625 
Q 13.765625 71.78125 18.9375 73 
Q 24.125 74.21875 28.421875 74.21875 
Q 39.75 74.21875 46.484375 68.546875 
Q 53.21875 62.890625 53.21875 53.421875 
Q 53.21875 48.921875 51.53125 44.890625 
Q 49.859375 40.875 45.40625 35.40625 
Q 44.1875 33.984375 37.640625 27.21875 
Q 31.109375 20.453125 19.1875 8.296875 
z
" id="DejaVuSans-50"/>
       </defs>
       <use xlink:href="#DejaVuSans-48"/>
       <use x="63.623047" xlink:href="#DejaVuSans-46"/>
       <use x="95.410156" xlink:href="#DejaVuSans-50"/>
      </g>
     </g>
    </g>
    <g id="ytick_4">
     <g id="line2d_11">
      <g>
       <use style="stroke:#000000;stroke-width:0.8;" x="57.885" xlink:href="#mdfd055b756" y="254.285846"/>
      </g>
     </g>
     <g id="text_12">
      <!-- 0.3 -->
      <g transform="translate(28.620625 259.604752)scale(0.14 -0.14)">
       <defs>
        <path d="M 40.578125 39.3125 
Q 47.65625 37.796875 51.625 33 
Q 55.609375 28.21875 55.609375 21.1875 
Q 55.609375 10.40625 48.1875 4.484375 
Q 40.765625 -1.421875 27.09375 -1.421875 
Q 22.515625 -1.421875 17.65625 -0.515625 
Q 12.796875 0.390625 7.625 2.203125 
L 7.625 11.71875 
Q 11.71875 9.328125 16.59375 8.109375 
Q 21.484375 6.890625 26.8125 6.890625 
Q 36.078125 6.890625 40.9375 10.546875 
Q 45.796875 14.203125 45.796875 21.1875 
Q 45.796875 27.640625 41.28125 31.265625 
Q 36.765625 34.90625 28.71875 34.90625 
L 20.21875 34.90625 
L 20.21875 43.015625 
L 29.109375 43.015625 
Q 36.375 43.015625 40.234375 45.921875 
Q 44.09375 48.828125 44.09375 54.296875 
Q 44.09375 59.90625 40.109375 62.90625 
Q 36.140625 65.921875 28.71875 65.921875 
Q 24.65625 65.921875 20.015625 65.03125 
Q 15.375 64.15625 9.8125 62.3125 
L 9.8125 71.09375 
Q 15.4375 72.65625 20.34375 73.4375 
Q 25.25 74.21875 29.59375 74.21875 
Q 40.828125 74.21875 47.359375 69.109375 
Q 53.90625 64.015625 53.90625 55.328125 
Q 53.90625 49.265625 50.4375 45.09375 
Q 46.96875 40.921875 40.578125 39.3125 
z
" id="DejaVuSans-51"/>
       </defs>
       <use xlink:href="#DejaVuSans-48"/>
       <use x="63.623047" xlink:href="#DejaVuSans-46"/>
       <use x="95.410156" xlink:href="#DejaVuSans-51"/>
      </g>
     </g>
    </g>
    <g id="ytick_5">
     <g id="line2d_12">
      <g>
       <use style="stroke:#000000;stroke-width:0.8;" x="57.885" xlink:href="#mdfd055b756" y="200.563979"/>
      </g>
     </g>
     <g id="text_13">
      <!-- 0.4 -->
      <g transform="translate(28.620625 205.882885)scale(0.14 -0.14)">
       <defs>
        <path d="M 37.796875 64.3125 
L 12.890625 25.390625 
L 37.796875 25.390625 
z
M 35.203125 72.90625 
L 47.609375 72.90625 
L 47.609375 25.390625 
L 58.015625 25.390625 
L 58.015625 17.1875 
L 47.609375 17.1875 
L 47.609375 0 
L 37.796875 0 
L 37.796875 17.1875 
L 4.890625 17.1875 
L 4.890625 26.703125 
z
" id="DejaVuSans-52"/>
       </defs>
       <use xlink:href="#DejaVuSans-48"/>
       <use x="63.623047" xlink:href="#DejaVuSans-46"/>
       <use x="95.410156" xlink:href="#DejaVuSans-52"/>
      </g>
     </g>
    </g>
    <g id="ytick_6">
     <g id="line2d_13">
      <g>
       <use style="stroke:#000000;stroke-width:0.8;" x="57.885" xlink:href="#mdfd055b756" y="146.842112"/>
      </g>
     </g>
     <g id="text_14">
      <!-- 0.5 -->
      <g transform="translate(28.620625 152.161018)scale(0.14 -0.14)">
       <use xlink:href="#DejaVuSans-48"/>
       <use x="63.623047" xlink:href="#DejaVuSans-46"/>
       <use x="95.410156" xlink:href="#DejaVuSans-53"/>
      </g>
     </g>
    </g>
    <g id="ytick_7">
     <g id="line2d_14">
      <g>
       <use style="stroke:#000000;stroke-width:0.8;" x="57.885" xlink:href="#mdfd055b756" y="93.120245"/>
      </g>
     </g>
     <g id="text_15">
      <!-- 0.6 -->
      <g transform="translate(28.620625 98.439151)scale(0.14 -0.14)">
       <defs>
        <path d="M 33.015625 40.375 
Q 26.375 40.375 22.484375 35.828125 
Q 18.609375 31.296875 18.609375 23.390625 
Q 18.609375 15.53125 22.484375 10.953125 
Q 26.375 6.390625 33.015625 6.390625 
Q 39.65625 6.390625 43.53125 10.953125 
Q 47.40625 15.53125 47.40625 23.390625 
Q 47.40625 31.296875 43.53125 35.828125 
Q 39.65625 40.375 33.015625 40.375 
z
M 52.59375 71.296875 
L 52.59375 62.3125 
Q 48.875 64.0625 45.09375 64.984375 
Q 41.3125 65.921875 37.59375 65.921875 
Q 27.828125 65.921875 22.671875 59.328125 
Q 17.53125 52.734375 16.796875 39.40625 
Q 19.671875 43.65625 24.015625 45.921875 
Q 28.375 48.1875 33.59375 48.1875 
Q 44.578125 48.1875 50.953125 41.515625 
Q 57.328125 34.859375 57.328125 23.390625 
Q 57.328125 12.15625 50.6875 5.359375 
Q 44.046875 -1.421875 33.015625 -1.421875 
Q 20.359375 -1.421875 13.671875 8.265625 
Q 6.984375 17.96875 6.984375 36.375 
Q 6.984375 53.65625 15.1875 63.9375 
Q 23.390625 74.21875 37.203125 74.21875 
Q 40.921875 74.21875 44.703125 73.484375 
Q 48.484375 72.75 52.59375 71.296875 
z
" id="DejaVuSans-54"/>
       </defs>
       <use xlink:href="#DejaVuSans-48"/>
       <use x="63.623047" xlink:href="#DejaVuSans-46"/>
       <use x="95.410156" xlink:href="#DejaVuSans-54"/>
      </g>
     </g>
    </g>
    <g id="ytick_8">
     <g id="line2d_15">
      <g>
       <use style="stroke:#000000;stroke-width:0.8;" x="57.885" xlink:href="#mdfd055b756" y="39.398378"/>
      </g>
     </g>
     <g id="text_16">
      <!-- 0.7 -->
      <g transform="translate(28.620625 44.717284)scale(0.14 -0.14)">
       <defs>
        <path d="M 8.203125 72.90625 
L 55.078125 72.90625 
L 55.078125 68.703125 
L 28.609375 0 
L 18.3125 0 
L 43.21875 64.59375 
L 8.203125 64.59375 
z
" id="DejaVuSans-55"/>
       </defs>
       <use xlink:href="#DejaVuSans-48"/>
       <use x="63.623047" xlink:href="#DejaVuSans-46"/>
       <use x="95.410156" xlink:href="#DejaVuSans-55"/>
      </g>
     </g>
    </g>
    <g id="text_17">
     <!-- $dI/dV$ ($a.u.$) -->
     <g transform="translate(20.877188 280.078125)rotate(-90)scale(0.18 -0.18)">
      <defs>
       <path d="M 41.796875 8.203125 
Q 38.1875 3.46875 33.25 1.015625 
Q 28.328125 -1.421875 22.3125 -1.421875 
Q 14.109375 -1.421875 9.34375 4.171875 
Q 4.59375 9.765625 4.59375 19.484375 
Q 4.59375 27.59375 7.46875 34.9375 
Q 10.359375 42.28125 15.828125 48.09375 
Q 19.4375 51.953125 23.96875 53.96875 
Q 28.515625 56 33.5 56 
Q 38.765625 56 42.796875 53.453125 
Q 46.828125 50.921875 49.03125 46.1875 
L 54.890625 75.984375 
L 63.921875 75.984375 
L 49.125 0 
L 40.09375 0 
z
M 13.921875 21.09375 
Q 13.921875 14.015625 17.109375 10.0625 
Q 20.3125 6.109375 25.984375 6.109375 
Q 30.171875 6.109375 33.765625 8.125 
Q 37.359375 10.15625 40.09375 14.109375 
Q 42.96875 18.21875 44.625 23.578125 
Q 46.296875 28.953125 46.296875 34.1875 
Q 46.296875 40.96875 43.09375 44.765625 
Q 39.890625 48.578125 34.28125 48.578125 
Q 30.03125 48.578125 26.359375 46.578125 
Q 22.703125 44.578125 20.125 40.828125 
Q 17.28125 36.765625 15.59375 31.390625 
Q 13.921875 26.03125 13.921875 21.09375 
z
" id="DejaVuSans-Oblique-100"/>
       <path d="M 16.890625 72.90625 
L 26.8125 72.90625 
L 12.59375 0 
L 2.6875 0 
z
" id="DejaVuSans-Oblique-73"/>
       <path d="M 25.390625 72.90625 
L 33.6875 72.90625 
L 8.296875 -9.28125 
L 0 -9.28125 
z
" id="DejaVuSans-47"/>
       <path d="M 20.609375 0 
L 7.8125 72.90625 
L 17.484375 72.90625 
L 28.078125 10.203125 
L 63.484375 72.90625 
L 74.21875 72.90625 
L 32.078125 0 
z
" id="DejaVuSans-Oblique-86"/>
       <path d="M 53.71875 31.203125 
L 47.609375 0 
L 38.625 0 
L 40.28125 8.296875 
Q 36.328125 3.421875 31.265625 1 
Q 26.21875 -1.421875 20.015625 -1.421875 
Q 13.03125 -1.421875 8.5625 2.84375 
Q 4.109375 7.125 4.109375 13.8125 
Q 4.109375 23.390625 11.75 28.953125 
Q 19.390625 34.515625 32.8125 34.515625 
L 45.3125 34.515625 
L 45.796875 36.921875 
Q 45.90625 37.3125 45.953125 37.765625 
Q 46 38.234375 46 39.203125 
Q 46 43.5625 42.453125 45.96875 
Q 38.921875 48.390625 32.515625 48.390625 
Q 28.125 48.390625 23.5 47.265625 
Q 18.890625 46.140625 14.015625 43.890625 
L 15.578125 52.203125 
Q 20.65625 54.109375 25.515625 55.046875 
Q 30.375 56 34.90625 56 
Q 44.578125 56 49.625 51.796875 
Q 54.6875 47.609375 54.6875 39.59375 
Q 54.6875 37.984375 54.4375 35.8125 
Q 54.203125 33.640625 53.71875 31.203125 
z
M 44 27.484375 
L 35.015625 27.484375 
Q 23.96875 27.484375 18.671875 24.53125 
Q 13.375 21.578125 13.375 15.375 
Q 13.375 11.078125 16.078125 8.640625 
Q 18.796875 6.203125 23.578125 6.203125 
Q 30.90625 6.203125 36.375 11.453125 
Q 41.84375 16.703125 43.609375 25.484375 
z
" id="DejaVuSans-Oblique-97"/>
       <path d="M 6.6875 21.6875 
L 13.09375 54.6875 
L 22.125 54.6875 
L 15.71875 22.015625 
Q 15.234375 19.625 15.015625 17.921875 
Q 14.796875 16.21875 14.796875 15.09375 
Q 14.796875 10.9375 17.328125 8.65625 
Q 19.875 6.390625 24.515625 6.390625 
Q 31.734375 6.390625 37 11.265625 
Q 42.28125 16.15625 43.890625 24.421875 
L 49.90625 54.6875 
L 58.890625 54.6875 
L 48.296875 0 
L 39.3125 0 
L 41.109375 8.59375 
Q 37.3125 3.8125 32.0625 1.1875 
Q 26.8125 -1.421875 20.90625 -1.421875 
Q 13.71875 -1.421875 9.71875 2.515625 
Q 5.71875 6.453125 5.71875 13.484375 
Q 5.71875 14.9375 5.953125 17.140625 
Q 6.203125 19.34375 6.6875 21.6875 
z
" id="DejaVuSans-Oblique-117"/>
      </defs>
      <use transform="translate(0 0.015625)" xlink:href="#DejaVuSans-Oblique-100"/>
      <use transform="translate(63.476562 0.015625)" xlink:href="#DejaVuSans-Oblique-73"/>
      <use transform="translate(92.96875 0.015625)" xlink:href="#DejaVuSans-47"/>
      <use transform="translate(126.660156 0.015625)" xlink:href="#DejaVuSans-Oblique-100"/>
      <use transform="translate(190.136719 0.015625)" xlink:href="#DejaVuSans-Oblique-86"/>
      <use transform="translate(258.544922 0.015625)" xlink:href="#DejaVuSans-32"/>
      <use transform="translate(290.332031 0.015625)" xlink:href="#DejaVuSans-40"/>
      <use transform="translate(329.345703 0.015625)" xlink:href="#DejaVuSans-Oblique-97"/>
      <use transform="translate(390.625 0.015625)" xlink:href="#DejaVuSans-46"/>
      <use transform="translate(441.894531 0.015625)" xlink:href="#DejaVuSans-Oblique-117"/>
      <use transform="translate(505.273438 0.015625)" xlink:href="#DejaVuSans-46"/>
      <use transform="translate(556.542969 0.015625)" xlink:href="#DejaVuSans-41"/>
     </g>
    </g>
   </g>
   <g id="line2d_16">
    <path clip-path="url(#p344db8dc81)" d="M 75.639545 53.184877 
L 75.987027 57.878047 
L 77.028205 80.802091 
L 77.375686 83.676358 
L 77.7219 83.150853 
L 78.069382 81.151969 
L 78.416864 80.126882 
L 78.763077 81.544536 
L 79.804255 91.550617 
L 80.151736 92.186962 
L 80.499218 92.031919 
L 80.8467 93.072448 
L 81.192914 96.788304 
L 82.234091 116.080747 
L 82.581573 119.148718 
L 82.929055 119.682287 
L 83.276536 119.185662 
L 83.62275 119.325892 
L 83.970232 120.852375 
L 85.011409 127.904018 
L 85.705105 132.086233 
L 86.74755 142.355928 
L 87.093764 143.526289 
L 87.441245 142.428444 
L 88.134941 137.260051 
L 88.482423 135.759057 
L 88.829905 135.443374 
L 89.176118 135.360401 
L 89.5236 134.293925 
L 90.564777 126.555296 
L 90.912259 127.068818 
L 91.259741 130.649081 
L 92.6484 153.516071 
L 93.342095 159.832967 
L 93.689577 161.502409 
L 94.035791 161.470204 
L 94.383273 159.136359 
L 95.076968 148.569127 
L 95.771932 137.489906 
L 96.465627 130.505426 
L 97.160591 123.485471 
L 98.201768 112.086573 
L 98.54925 109.99558 
L 98.895464 108.903158 
L 100.284123 106.723419 
L 100.977818 105.279107 
L 101.3253 104.321684 
L 101.672782 102.884579 
L 102.713959 97.613635 
L 103.061441 97.472241 
L 103.755136 99.636195 
L 104.102618 99.976452 
L 104.4501 98.876957 
L 105.143795 94.821571 
L 105.491277 93.888485 
L 105.837491 93.705052 
L 106.184973 92.805041 
L 106.532455 89.530192 
L 107.921114 66.185166 
L 108.267327 66.326517 
L 108.614809 67.667468 
L 108.962291 67.270797 
L 109.308505 63.520271 
L 110.003468 51.911405 
L 110.349682 50.038125 
L 110.697164 52.589535 
L 111.392127 61.847284 
L 111.738341 62.989704 
L 112.433305 60.162948 
L 112.779518 62.316102 
L 113.127 69.338247 
L 114.168177 97.803366 
L 114.515659 101.440827 
L 114.863141 102.815494 
L 115.209355 104.792597 
L 115.556836 109.560062 
L 117.292977 147.190347 
L 117.639191 152.640016 
L 117.986673 159.895062 
L 118.680368 181.045632 
L 119.722814 214.078491 
L 120.763991 244.61255 
L 121.805168 276.206353 
L 122.498864 289.970675 
L 124.581218 319.566045 
L 126.317359 340.514177 
L 127.011435 346.114031 
L 128.39984 352.914851 
L 129.788373 365.847398 
L 130.135474 367.517161 
L 130.482575 368.216625 
L 130.829677 368.245943 
L 131.176778 367.92108 
L 131.870981 366.822805 
L 132.565184 365.618329 
L 132.912285 365.48468 
L 133.259386 366.03402 
L 133.606488 367.332685 
L 134.647792 372.506478 
L 134.994893 373.361365 
L 135.341995 373.608221 
L 135.689096 373.433119 
L 136.036197 373.012265 
L 136.7304 371.613473 
L 137.42473 369.757852 
L 137.771831 369.190332 
L 138.118932 369.242145 
L 138.466034 370.000551 
L 139.854439 374.787611 
L 140.20154 375.091034 
L 141.589946 375.045218 
L 142.978351 375.829825 
L 143.325453 375.801774 
L 143.672554 375.484944 
L 144.019655 374.804629 
L 145.408188 371.114797 
L 145.755289 371.174687 
L 146.10239 371.771056 
L 146.796593 373.436507 
L 147.143695 373.933867 
L 147.490796 374.10067 
L 148.184999 374.145017 
L 148.879201 374.726617 
L 149.226303 375.02406 
L 149.573404 375.061466 
L 149.920505 374.748657 
L 151.656139 371.831846 
L 152.00324 371.62199 
L 152.350342 371.590689 
L 152.697443 371.763745 
L 153.391646 372.610587 
L 153.738747 373.035346 
L 154.085849 373.229682 
L 154.43295 373.08045 
L 154.780051 372.59895 
L 156.168457 370.028218 
L 156.86266 368.80618 
L 158.251065 365.108126 
L 158.945395 362.796831 
L 159.639597 358.718375 
L 160.3338 354.084613 
L 160.680901 352.457408 
L 161.375104 350.605921 
L 161.722205 349.661862 
L 162.416408 346.624338 
L 163.110611 343.406935 
L 164.499016 338.61477 
L 165.193219 335.822423 
L 165.54032 335.051958 
L 166.581751 334.122125 
L 167.623055 332.066121 
L 167.970157 332.170549 
L 168.66436 333.206739 
L 169.011461 333.218479 
L 169.358562 332.643505 
L 169.705664 331.838068 
L 170.052765 331.414096 
L 170.399866 331.872288 
L 170.746968 333.325872 
L 173.871007 352.966523 
L 175.953615 369.227969 
L 176.647818 372.345783 
L 177.34202 373.857625 
L 178.036223 375.276245 
L 178.730426 377.396112 
L 180.118831 381.84978 
L 182.895769 388.912811 
L 183.937073 390.304328 
L 184.631276 391.085584 
L 184.978377 391.266486 
L 185.325479 391.214773 
L 186.019681 390.591235 
L 186.713884 390.033993 
L 187.060985 389.999369 
L 187.755315 390.381107 
L 188.796619 391.107819 
L 190.532126 391.882414 
L 190.879227 391.812287 
L 191.226329 391.481151 
L 191.920531 390.107705 
L 192.614734 388.858355 
L 192.961835 388.733232 
L 193.308937 388.999695 
L 194.697342 391.121091 
L 195.04457 391.281415 
L 195.738773 391.18365 
L 196.432976 390.865749 
L 197.127179 390.284641 
L 198.862685 388.22041 
L 200.945294 386.714227 
L 201.292395 386.60551 
L 201.639496 386.683525 
L 201.986598 386.972276 
L 202.680927 388.002058 
L 203.722231 389.610882 
L 204.416434 390.389885 
L 205.110637 390.92904 
L 205.80484 391.214692 
L 206.499042 391.192169 
L 208.58165 390.564864 
L 208.928752 390.116003 
L 210.664385 387.110683 
L 211.011487 387.031358 
L 211.358588 387.194025 
L 211.70569 387.569806 
L 212.399892 388.819467 
L 213.441196 390.953146 
L 213.788298 391.342104 
L 214.135399 391.457741 
L 214.4825 391.327694 
L 215.870906 390.243778 
L 216.565235 389.842677 
L 217.60654 389.063447 
L 217.953641 389.055797 
L 218.300742 389.313283 
L 219.689148 391.173372 
L 220.036249 391.097275 
L 220.38335 390.695668 
L 221.424655 388.988812 
L 221.771756 388.836193 
L 222.118857 389.061637 
L 222.465959 389.647821 
L 223.160161 391.530248 
L 223.854491 393.458797 
L 224.201592 394.103365 
L 224.548694 394.418024 
L 224.895795 394.388208 
L 225.242896 394.058403 
L 225.937099 392.860046 
L 226.978403 390.987455 
L 227.672606 390.291587 
L 228.019707 390.251192 
L 228.366809 390.475616 
L 229.061011 391.603882 
L 229.755214 392.827966 
L 230.102315 393.149073 
L 230.449417 393.21819 
L 230.796518 393.081733 
L 233.920557 390.674978 
L 235.308963 388.469201 
L 235.656064 388.232188 
L 236.003165 388.243318 
L 236.350267 388.475897 
L 237.738672 390.031677 
L 238.085774 390.181558 
L 238.433002 390.151879 
L 239.127205 389.68373 
L 239.821407 389.217961 
L 240.168509 389.192151 
L 240.515585 389.347728 
L 241.2098 390.078519 
L 241.904015 390.767017 
L 242.251129 390.779852 
L 242.598231 390.460756 
L 243.292446 389.095847 
L 243.986662 387.878361 
L 244.333763 387.622106 
L 245.722194 387.33625 
L 247.110625 385.912392 
L 247.457739 385.986371 
L 247.80484 386.388943 
L 248.499055 387.959302 
L 249.887486 391.961951 
L 250.928803 395.811438 
L 252.317239 400.978646 
L 253.011454 402.620216 
L 253.358561 402.838125 
L 253.705669 402.55061 
L 254.052776 401.788416 
L 254.746994 399.326753 
L 257.176742 389.738577 
L 257.870957 388.165718 
L 258.218071 387.784904 
L 258.565173 387.608546 
L 258.912287 387.596919 
L 259.259388 387.749538 
L 259.606489 388.088063 
L 260.300705 389.277853 
L 262.03625 392.686316 
L 262.730465 393.615449 
L 263.077566 393.722504 
L 263.42468 393.51549 
L 264.118896 392.420466 
L 264.813111 391.2685 
L 265.854428 390.189221 
L 266.895694 389.221147 
L 267.242922 389.112338 
L 267.590024 389.189499 
L 268.978429 390.019414 
L 269.672632 390.151823 
L 270.366835 390.572228 
L 271.061037 390.948406 
L 271.408139 390.846179 
L 272.102341 390.083192 
L 272.449443 389.684203 
L 272.796544 389.471366 
L 273.143645 389.528314 
L 273.490747 389.861927 
L 275.22638 392.421501 
L 275.573482 392.34205 
L 275.920583 391.978081 
L 277.308989 389.779992 
L 277.65609 389.500378 
L 278.003191 389.378064 
L 278.350293 389.412707 
L 278.697394 389.618418 
L 279.391597 390.563044 
L 280.432901 392.27781 
L 280.780002 392.477116 
L 281.127104 392.395676 
L 281.821433 391.650106 
L 282.515636 390.878378 
L 283.209839 390.60747 
L 284.251143 390.470388 
L 286.333751 389.555514 
L 287.027954 388.502044 
L 287.722156 387.389482 
L 288.069258 387.210555 
L 288.416359 387.357121 
L 289.110689 388.251888 
L 291.8875 392.354891 
L 292.234601 392.393807 
L 293.275905 391.965611 
L 294.317209 392.203862 
L 294.66431 391.832812 
L 295.011412 391.029102 
L 296.052716 387.72838 
L 296.399944 387.088227 
L 296.747045 386.852228 
L 297.094147 386.972589 
L 297.78835 387.898008 
L 299.176755 390.179102 
L 299.523856 390.485742 
L 299.870958 390.61953 
L 300.912262 390.60923 
L 301.259363 390.780697 
L 302.647769 391.972775 
L 303.341971 391.949677 
L 304.383402 391.551177 
L 304.730504 391.263986 
L 305.424706 390.169055 
L 306.118909 388.948754 
L 306.46601 388.68826 
L 306.813112 388.771158 
L 307.507315 389.620514 
L 308.201517 390.451098 
L 309.589923 391.695201 
L 310.978455 393.248197 
L 311.672658 393.682008 
L 312.019759 393.704016 
L 312.36686 393.539216 
L 312.713962 393.171785 
L 313.408165 391.925438 
L 314.449469 389.923476 
L 314.79657 389.657543 
L 315.143671 389.705146 
L 315.837874 390.424969 
L 316.184975 390.782049 
L 316.532077 390.957127 
L 316.879178 390.922177 
L 317.920482 390.404235 
L 318.26771 390.410058 
L 318.961913 390.813692 
L 319.656116 391.336361 
L 320.003217 391.43506 
L 320.350319 391.344409 
L 320.69742 391.051779 
L 321.391623 389.964044 
L 323.12713 386.631351 
L 323.821332 386.100141 
L 325.556966 385.253782 
L 326.251169 384.708143 
L 326.59827 384.236501 
L 327.292473 382.681812 
L 328.333777 379.639489 
L 328.680878 379.091848 
L 329.02798 379.043181 
L 329.375081 379.483901 
L 330.069284 381.264598 
L 331.80479 386.713962 
L 332.151892 387.168621 
L 332.49912 386.944659 
L 332.846221 386.0153 
L 333.540424 382.756549 
L 335.275931 373.849907 
L 335.623032 372.735001 
L 335.970134 372.271643 
L 336.317235 372.480886 
L 337.358539 374.55571 
L 337.70564 374.835828 
L 338.052742 374.83074 
L 338.746945 374.43027 
L 339.441147 373.710321 
L 340.82968 371.435611 
L 341.176781 371.190705 
L 341.870984 371.15862 
L 342.912288 371.38597 
L 343.259389 371.613365 
L 344.300693 372.75492 
L 344.647795 372.876209 
L 344.994896 372.693463 
L 346.0362 371.406437 
L 346.383301 371.334372 
L 346.730403 371.581749 
L 347.424732 372.711558 
L 349.854442 377.503964 
L 350.548645 378.067097 
L 351.589949 378.737076 
L 351.93705 378.820697 
L 352.284151 378.705308 
L 352.978354 377.954657 
L 353.672557 376.94409 
L 354.366886 375.44212 
L 355.40819 372.145469 
L 355.755292 371.610674 
L 356.102393 371.662802 
L 356.796596 372.696161 
L 357.143697 372.895668 
L 357.490799 372.518106 
L 358.185001 370.486113 
L 358.879204 368.696176 
L 359.226305 368.263707 
L 359.573407 368.05122 
L 359.920508 367.9729 
L 360.26761 368.023726 
L 360.614711 368.249075 
L 361.656142 369.493943 
L 362.003243 369.597338 
L 363.044547 369.275575 
L 363.391649 369.6459 
L 364.085851 370.73 
L 364.432953 370.67604 
L 364.780054 369.869213 
L 366.16846 364.3295 
L 366.515561 363.822075 
L 367.903966 362.84002 
L 368.251068 362.997224 
L 368.598296 363.526462 
L 369.6396 365.668215 
L 370.333803 366.912192 
L 370.680904 368.033081 
L 371.722208 372.829508 
L 372.06931 373.65163 
L 372.416411 373.685322 
L 372.763512 373.112463 
L 373.804816 370.839902 
L 374.499019 369.297074 
L 375.540323 366.260732 
L 375.887551 365.968088 
L 376.234653 366.247835 
L 377.275957 367.941585 
L 377.623058 368.000035 
L 378.317261 367.543895 
L 378.664362 367.231645 
L 379.011464 366.742962 
L 379.358565 365.831524 
L 379.705666 364.329697 
L 380.747605 358.483022 
L 381.093818 357.454965 
L 381.4413 357.086294 
L 381.788782 356.983767 
L 382.134995 356.663485 
L 382.482477 355.864613 
L 383.176173 353.58232 
L 383.523655 352.864161 
L 383.871136 352.631828 
L 384.218618 352.615261 
L 384.564832 352.390674 
L 384.912314 351.685379 
L 385.606009 349.463175 
L 385.953491 348.772844 
L 386.300973 348.694614 
L 386.994668 349.414172 
L 387.34215 349.506173 
L 388.035845 349.336855 
L 388.383327 349.813755 
L 389.424505 352.960218 
L 389.771986 353.046361 
L 390.119468 352.410445 
L 390.465682 351.52408 
L 390.813164 350.949638 
L 391.160645 350.965391 
L 391.854341 351.804058 
L 392.201823 351.751092 
L 392.548036 351.158994 
L 393.243 349.599459 
L 393.590482 349.300648 
L 394.631659 349.322236 
L 395.325355 348.693704 
L 395.672836 348.788769 
L 396.020318 349.421012 
L 396.714014 351.284613 
L 397.061495 351.680802 
L 397.407709 351.500087 
L 397.755191 351.036611 
L 398.102673 350.776907 
L 398.448886 351.091841 
L 399.14385 353.249621 
L 399.837545 355.14578 
L 400.185027 355.471761 
L 400.532509 355.463541 
L 400.878723 355.184647 
L 401.226205 354.543582 
L 401.573686 353.346801 
L 402.267382 349.182196 
L 402.962345 345.255434 
L 403.308559 344.625265 
L 403.656041 344.956772 
L 404.349736 346.445151 
L 404.697218 346.529495 
L 405.0447 345.991488 
L 405.738395 344.516923 
L 406.085877 344.299782 
L 407.127055 344.716936 
L 407.474536 344.58618 
L 407.82075 344.580979 
L 408.168232 345.068565 
L 408.515714 346.193613 
L 409.209409 349.19967 
L 409.556891 350.160986 
L 409.904373 350.524964 
L 410.250586 350.615935 
L 410.598068 350.949745 
L 410.94555 351.835013 
L 411.639245 354.107114 
L 411.986727 354.195404 
L 412.334209 353.091859 
L 413.375386 347.646143 
L 414.416564 345.145836 
L 415.110259 340.691404 
L 415.457741 338.469882 
L 415.805223 337.307979 
L 416.151436 337.430256 
L 416.8464 339.146126 
L 417.193882 339.1416 
L 417.540095 338.244212 
L 418.235059 336.145662 
L 418.581273 336.118031 
L 419.276236 337.391365 
L 419.62245 337.469765 
L 419.969932 336.796349 
L 420.664895 334.749048 
L 421.011109 334.287569 
L 421.706073 334.087394 
L 422.052286 333.427856 
L 423.094732 329.793127 
L 423.440945 329.966759 
L 423.788427 331.314554 
L 424.482123 335.260109 
L 424.829605 336.390397 
L 425.177086 336.537879 
L 426.218264 335.123668 
L 426.911959 335.231385 
L 427.259441 334.893221 
L 427.953136 333.214273 
L 428.300618 332.880801 
L 428.6481 333.537724 
L 429.689277 338.50732 
L 430.036759 339.204186 
L 430.382973 339.219086 
L 430.730455 339.023757 
L 430.730455 339.023757 
" style="fill:none;stroke:#ff0000;stroke-linecap:square;stroke-width:1.5;"/>
   </g>
   <g id="patch_3">
    <path d="M 57.885 420.478125 
L 57.885 32.398125 
" style="fill:none;stroke:#000000;stroke-linecap:square;stroke-linejoin:miter;stroke-width:0.8;"/>
   </g>
   <g id="patch_4">
    <path d="M 448.485 420.478125 
L 448.485 32.398125 
" style="fill:none;stroke:#000000;stroke-linecap:square;stroke-linejoin:miter;stroke-width:0.8;"/>
   </g>
   <g id="patch_5">
    <path d="M 57.885 420.478125 
L 448.485 420.478125 
" style="fill:none;stroke:#000000;stroke-linecap:square;stroke-linejoin:miter;stroke-width:0.8;"/>
   </g>
   <g id="patch_6">
    <path d="M 57.885 32.398125 
L 448.485 32.398125 
" style="fill:none;stroke:#000000;stroke-linecap:square;stroke-linejoin:miter;stroke-width:0.8;"/>
   </g>
   <g id="text_18">
    <!--   -->
    <g transform="translate(251.278125 26.398125)scale(0.12 -0.12)">
     <use xlink:href="#DejaVuSans-32"/>
    </g>
   </g>
   <g id="legend_1">
    <g id="patch_7">
     <path d="M 349.885 55.07625 
L 441.485 55.07625 
Q 443.485 55.07625 443.485 53.07625 
L 443.485 39.398125 
Q 443.485 37.398125 441.485 37.398125 
L 349.885 37.398125 
Q 347.885 37.398125 347.885 39.398125 
L 347.885 53.07625 
Q 347.885 55.07625 349.885 55.07625 
z
" style="fill:#ffffff;opacity:0.8;stroke:#cccccc;stroke-linejoin:miter;"/>
    </g>
    <g id="line2d_17">
     <path d="M 351.885 45.496563 
L 371.885 45.496563 
" style="fill:none;stroke:#ff0000;stroke-linecap:square;stroke-width:1.5;"/>
    </g>
    <g id="line2d_18"/>
    <g id="text_19">
     <!-- $dI/dV$ ($a.u.$) -->
     <g transform="translate(379.885 48.996563)scale(0.1 -0.1)">
      <use transform="translate(0 0.015625)" xlink:href="#DejaVuSans-Oblique-100"/>
      <use transform="translate(63.476562 0.015625)" xlink:href="#DejaVuSans-Oblique-73"/>
      <use transform="translate(92.96875 0.015625)" xlink:href="#DejaVuSans-47"/>
      <use transform="translate(126.660156 0.015625)" xlink:href="#DejaVuSans-Oblique-100"/>
      <use transform="translate(190.136719 0.015625)" xlink:href="#DejaVuSans-Oblique-86"/>
      <use transform="translate(258.544922 0.015625)" xlink:href="#DejaVuSans-32"/>
      <use transform="translate(290.332031 0.015625)" xlink:href="#DejaVuSans-40"/>
      <use transform="translate(329.345703 0.015625)" xlink:href="#DejaVuSans-Oblique-97"/>
      <use transform="translate(390.625 0.015625)" xlink:href="#DejaVuSans-46"/>
      <use transform="translate(441.894531 0.015625)" xlink:href="#DejaVuSans-Oblique-117"/>
      <use transform="translate(505.273438 0.015625)" xlink:href="#DejaVuSans-46"/>
      <use transform="translate(556.542969 0.015625)" xlink:href="#DejaVuSans-41"/>
     </g>
    </g>
   </g>
  </g>
  <g id="axes_2">
   <g id="patch_8">
    <path d="M 246.885 223.918125 
L 398.085 223.918125 
L 398.085 22.318125 
L 246.885 22.318125 
z
" style="fill:none;"/>
   </g>
   <g id="matplotlib.axis_3">
    <g id="xtick_8">
     <g id="line2d_19">
      <g>
       <use style="stroke:#000000;stroke-width:0.8;" x="253.757727" xlink:href="#m7b70ebc89d" y="223.918125"/>
      </g>
     </g>
     <g id="text_20">
      <!-- −1 -->
      <g transform="translate(243.438196 241.555937)scale(0.14 -0.14)">
       <use xlink:href="#DejaVuSans-8722"/>
       <use x="83.789062" xlink:href="#DejaVuSans-49"/>
      </g>
     </g>
    </g>
    <g id="xtick_9">
     <g id="line2d_20">
      <g>
       <use style="stroke:#000000;stroke-width:0.8;" x="322.485" xlink:href="#m7b70ebc89d" y="223.918125"/>
      </g>
     </g>
     <g id="text_21">
      <!-- 0 -->
      <g transform="translate(318.03125 241.555937)scale(0.14 -0.14)">
       <use xlink:href="#DejaVuSans-48"/>
      </g>
     </g>
    </g>
    <g id="xtick_10">
     <g id="line2d_21">
      <g>
       <use style="stroke:#000000;stroke-width:0.8;" x="391.212273" xlink:href="#m7b70ebc89d" y="223.918125"/>
      </g>
     </g>
     <g id="text_22">
      <!-- 1 -->
      <g transform="translate(386.758523 241.555937)scale(0.14 -0.14)">
       <use xlink:href="#DejaVuSans-49"/>
      </g>
     </g>
    </g>
    <g id="text_23">
     <!-- Sample bias (V) -->
     <g transform="translate(251.420156 262.144687)scale(0.18 -0.18)">
      <use xlink:href="#DejaVuSans-83"/>
      <use x="63.476562" xlink:href="#DejaVuSans-97"/>
      <use x="124.755859" xlink:href="#DejaVuSans-109"/>
      <use x="222.167969" xlink:href="#DejaVuSans-112"/>
      <use x="285.644531" xlink:href="#DejaVuSans-108"/>
      <use x="313.427734" xlink:href="#DejaVuSans-101"/>
      <use x="374.951172" xlink:href="#DejaVuSans-32"/>
      <use x="406.738281" xlink:href="#DejaVuSans-98"/>
      <use x="470.214844" xlink:href="#DejaVuSans-105"/>
      <use x="497.998047" xlink:href="#DejaVuSans-97"/>
      <use x="559.277344" xlink:href="#DejaVuSans-115"/>
      <use x="611.376953" xlink:href="#DejaVuSans-32"/>
      <use x="643.164062" xlink:href="#DejaVuSans-40"/>
      <use x="682.177734" xlink:href="#DejaVuSans-86"/>
      <use x="750.585938" xlink:href="#DejaVuSans-41"/>
     </g>
    </g>
   </g>
   <g id="matplotlib.axis_4">
    <g id="ytick_9">
     <g id="line2d_22">
      <g>
       <use style="stroke:#000000;stroke-width:0.8;" x="246.885" xlink:href="#mdfd055b756" y="218.609141"/>
      </g>
     </g>
     <g id="text_24">
      <!-- 0.0 -->
      <g transform="translate(217.620625 223.928048)scale(0.14 -0.14)">
       <use xlink:href="#DejaVuSans-48"/>
       <use x="63.623047" xlink:href="#DejaVuSans-46"/>
       <use x="95.410156" xlink:href="#DejaVuSans-48"/>
      </g>
     </g>
    </g>
    <g id="ytick_10">
     <g id="line2d_23">
      <g>
       <use style="stroke:#000000;stroke-width:0.8;" x="246.885" xlink:href="#mdfd055b756" y="170.740741"/>
      </g>
     </g>
     <g id="text_25">
      <!-- 0.2 -->
      <g transform="translate(217.620625 176.059647)scale(0.14 -0.14)">
       <use xlink:href="#DejaVuSans-48"/>
       <use x="63.623047" xlink:href="#DejaVuSans-46"/>
       <use x="95.410156" xlink:href="#DejaVuSans-50"/>
      </g>
     </g>
    </g>
    <g id="ytick_11">
     <g id="line2d_24">
      <g>
       <use style="stroke:#000000;stroke-width:0.8;" x="246.885" xlink:href="#mdfd055b756" y="122.872341"/>
      </g>
     </g>
     <g id="text_26">
      <!-- 0.4 -->
      <g transform="translate(217.620625 128.191247)scale(0.14 -0.14)">
       <use xlink:href="#DejaVuSans-48"/>
       <use x="63.623047" xlink:href="#DejaVuSans-46"/>
       <use x="95.410156" xlink:href="#DejaVuSans-52"/>
      </g>
     </g>
    </g>
    <g id="ytick_12">
     <g id="line2d_25">
      <g>
       <use style="stroke:#000000;stroke-width:0.8;" x="246.885" xlink:href="#mdfd055b756" y="75.00394"/>
      </g>
     </g>
     <g id="text_27">
      <!-- 0.6 -->
      <g transform="translate(217.620625 80.322846)scale(0.14 -0.14)">
       <use xlink:href="#DejaVuSans-48"/>
       <use x="63.623047" xlink:href="#DejaVuSans-46"/>
       <use x="95.410156" xlink:href="#DejaVuSans-54"/>
      </g>
     </g>
    </g>
    <g id="ytick_13">
     <g id="line2d_26">
      <g>
       <use style="stroke:#000000;stroke-width:0.8;" x="246.885" xlink:href="#mdfd055b756" y="27.13554"/>
      </g>
     </g>
     <g id="text_28">
      <!-- 0.8 -->
      <g transform="translate(217.620625 32.454446)scale(0.14 -0.14)">
       <defs>
        <path d="M 31.78125 34.625 
Q 24.75 34.625 20.71875 30.859375 
Q 16.703125 27.09375 16.703125 20.515625 
Q 16.703125 13.921875 20.71875 10.15625 
Q 24.75 6.390625 31.78125 6.390625 
Q 38.8125 6.390625 42.859375 10.171875 
Q 46.921875 13.96875 46.921875 20.515625 
Q 46.921875 27.09375 42.890625 30.859375 
Q 38.875 34.625 31.78125 34.625 
z
M 21.921875 38.8125 
Q 15.578125 40.375 12.03125 44.71875 
Q 8.5 49.078125 8.5 55.328125 
Q 8.5 64.0625 14.71875 69.140625 
Q 20.953125 74.21875 31.78125 74.21875 
Q 42.671875 74.21875 48.875 69.140625 
Q 55.078125 64.0625 55.078125 55.328125 
Q 55.078125 49.078125 51.53125 44.71875 
Q 48 40.375 41.703125 38.8125 
Q 48.828125 37.15625 52.796875 32.3125 
Q 56.78125 27.484375 56.78125 20.515625 
Q 56.78125 9.90625 50.3125 4.234375 
Q 43.84375 -1.421875 31.78125 -1.421875 
Q 19.734375 -1.421875 13.25 4.234375 
Q 6.78125 9.90625 6.78125 20.515625 
Q 6.78125 27.484375 10.78125 32.3125 
Q 14.796875 37.15625 21.921875 38.8125 
z
M 18.3125 54.390625 
Q 18.3125 48.734375 21.84375 45.5625 
Q 25.390625 42.390625 31.78125 42.390625 
Q 38.140625 42.390625 41.71875 45.5625 
Q 45.3125 48.734375 45.3125 54.390625 
Q 45.3125 60.0625 41.71875 63.234375 
Q 38.140625 66.40625 31.78125 66.40625 
Q 25.390625 66.40625 21.84375 63.234375 
Q 18.3125 60.0625 18.3125 54.390625 
z
" id="DejaVuSans-56"/>
       </defs>
       <use xlink:href="#DejaVuSans-48"/>
       <use x="63.623047" xlink:href="#DejaVuSans-46"/>
       <use x="95.410156" xlink:href="#DejaVuSans-56"/>
      </g>
     </g>
    </g>
    <g id="text_29">
     <!-- $dI/dV$ ($a.u.$) -->
     <g transform="translate(209.877187 176.758125)rotate(-90)scale(0.18 -0.18)">
      <use transform="translate(0 0.015625)" xlink:href="#DejaVuSans-Oblique-100"/>
      <use transform="translate(63.476562 0.015625)" xlink:href="#DejaVuSans-Oblique-73"/>
      <use transform="translate(92.96875 0.015625)" xlink:href="#DejaVuSans-47"/>
      <use transform="translate(126.660156 0.015625)" xlink:href="#DejaVuSans-Oblique-100"/>
      <use transform="translate(190.136719 0.015625)" xlink:href="#DejaVuSans-Oblique-86"/>
      <use transform="translate(258.544922 0.015625)" xlink:href="#DejaVuSans-32"/>
      <use transform="translate(290.332031 0.015625)" xlink:href="#DejaVuSans-40"/>
      <use transform="translate(329.345703 0.015625)" xlink:href="#DejaVuSans-Oblique-97"/>
      <use transform="translate(390.625 0.015625)" xlink:href="#DejaVuSans-46"/>
      <use transform="translate(441.894531 0.015625)" xlink:href="#DejaVuSans-Oblique-117"/>
      <use transform="translate(505.273438 0.015625)" xlink:href="#DejaVuSans-46"/>
      <use transform="translate(556.542969 0.015625)" xlink:href="#DejaVuSans-41"/>
     </g>
    </g>
   </g>
   <g id="line2d_27">
    <path clip-path="url(#pc17ce3393d)" d="M 253.757727 155.326537 
L 254.429536 153.933747 
L 254.966984 152.652115 
L 255.235707 152.455309 
L 255.370138 151.906318 
L 256.041947 146.353837 
L 256.176309 146.531504 
L 256.713756 149.735691 
L 257.116841 152.521232 
L 257.654289 156.764619 
L 257.788651 156.90057 
L 258.191736 156.56291 
L 258.46046 157.047626 
L 258.729183 157.49372 
L 258.863545 157.441771 
L 259.401061 156.826959 
L 260.07287 157.12106 
L 260.207232 156.901448 
L 260.475956 155.470813 
L 261.013403 151.633424 
L 261.147765 151.732119 
L 261.416488 153.205207 
L 261.953936 156.481936 
L 262.894468 158.890424 
L 263.02883 158.678892 
L 263.297623 157.539843 
L 263.700708 154.909418 
L 264.506879 147.943649 
L 264.641241 148.092811 
L 265.044326 149.432477 
L 265.178688 149.48465 
L 265.447412 148.794311 
L 266.387944 145.094479 
L 266.522306 145.23547 
L 266.925392 146.081304 
L 267.059822 146.076204 
L 267.328546 145.465013 
L 267.731631 143.80798 
L 268.40344 140.554907 
L 268.940888 139.486156 
L 269.343973 137.884655 
L 269.612697 136.153266 
L 270.015782 131.195729 
L 270.687591 121.081652 
L 270.956315 119.156403 
L 271.359469 117.992612 
L 271.628193 117.139557 
L 272.16564 115.002011 
L 272.434364 114.694129 
L 272.568725 114.225445 
L 272.837449 111.327127 
L 274.584153 80.002891 
L 275.121669 75.884628 
L 275.92784 67.215839 
L 276.062201 66.751394 
L 276.196563 66.710583 
L 276.599649 67.293966 
L 276.734011 66.828736 
L 277.271458 63.196161 
L 277.40582 63.559118 
L 277.674543 66.171641 
L 279.286954 87.903313 
L 280.093125 100.242893 
L 280.361848 104.627547 
L 281.302381 126.605715 
L 281.571105 131.541236 
L 282.914723 165.158428 
L 283.720963 179.900781 
L 284.392772 190.281362 
L 284.795857 193.916249 
L 286.408199 203.354558 
L 286.811284 205.052313 
L 287.751886 207.405541 
L 288.020609 207.860556 
L 288.289333 207.894646 
L 288.558057 207.880352 
L 288.82678 208.234189 
L 289.364228 209.14168 
L 289.767313 209.752259 
L 290.439122 211.154093 
L 290.976638 211.625387 
L 291.245362 211.566592 
L 291.514085 211.044771 
L 291.917171 210.0707 
L 292.051533 209.971314 
L 292.320256 210.1915 
L 292.723342 210.671439 
L 292.992065 210.550251 
L 293.260789 210.057425 
L 293.798236 208.802691 
L 293.932598 208.755323 
L 294.201322 209.131496 
L 294.604407 209.847488 
L 294.8732 209.846658 
L 295.948094 209.110174 
L 296.216818 209.172294 
L 297.022989 209.838655 
L 297.426074 209.744472 
L 297.82916 210.177239 
L 298.097883 210.361528 
L 298.500969 210.470355 
L 298.769761 210.938778 
L 299.172847 211.743689 
L 299.44157 211.772481 
L 299.979017 211.481494 
L 300.247741 211.585126 
L 300.785188 212.018404 
L 301.053912 211.853779 
L 301.322636 211.257474 
L 301.860083 209.778753 
L 301.994445 209.665863 
L 302.263168 209.858669 
L 302.666323 210.243263 
L 302.935046 210.067612 
L 303.741217 209.088856 
L 303.875579 209.135857 
L 304.144303 209.649821 
L 304.950473 211.892775 
L 305.084835 211.867809 
L 305.353559 211.423768 
L 305.756644 210.804985 
L 306.15973 210.787978 
L 306.697246 210.693248 
L 307.369055 210.457003 
L 308.040864 210.990174 
L 308.309588 210.508817 
L 308.847035 209.373902 
L 309.25012 209.227512 
L 309.653206 209.322714 
L 309.921929 209.570918 
L 310.728169 210.608271 
L 310.996893 210.272676 
L 311.399978 209.71418 
L 311.668702 209.657891 
L 311.937425 209.799624 
L 312.743596 210.472926 
L 313.01232 210.173342 
L 313.549767 209.451064 
L 313.818491 209.452669 
L 314.221576 209.511871 
L 314.759092 209.356534 
L 315.027816 209.649893 
L 315.968342 211.466448 
L 316.237072 211.237985 
L 316.640165 210.788989 
L 317.71508 210.761634 
L 317.983803 211.222764 
L 318.655626 212.551195 
L 318.789988 212.557847 
L 319.058719 212.22688 
L 319.730541 210.702599 
L 320.402357 209.172299 
L 320.536726 209.245261 
L 320.80545 210.143095 
L 321.611634 214.497888 
L 321.880366 214.754489 
L 322.149093 214.583022 
L 322.552186 213.994027 
L 323.089643 213.224692 
L 323.358372 212.944769 
L 323.627096 212.098757 
L 324.164557 209.424777 
L 324.298919 209.222367 
L 324.433288 209.293329 
L 325.105104 210.365621 
L 325.373834 210.036253 
L 326.180019 208.448616 
L 326.448749 208.494287 
L 326.851842 209.042199 
L 327.523658 210.136206 
L 327.658026 210.142584 
L 327.92675 209.806182 
L 328.464211 208.89576 
L 328.732935 208.898506 
L 329.136034 208.974971 
L 329.539099 208.982817 
L 330.076546 209.285225 
L 330.748424 209.70089 
L 331.151509 209.853888 
L 331.420233 210.166849 
L 332.226404 211.424301 
L 332.629489 211.606933 
L 332.898213 211.362245 
L 333.43566 210.432228 
L 333.570022 210.404382 
L 333.838745 210.711192 
L 334.2419 211.390234 
L 334.510623 211.480531 
L 334.913709 211.126908 
L 336.257327 209.66399 
L 336.526051 210.040227 
L 337.332221 212.267605 
L 337.466583 212.332661 
L 337.735307 212.039107 
L 338.272823 211.035539 
L 339.213356 210.444156 
L 339.885165 210.370002 
L 340.691336 209.134878 
L 341.363145 209.08955 
L 341.631868 209.184128 
L 342.303746 209.580172 
L 342.57247 209.740434 
L 343.647364 211.006717 
L 343.916088 211.137505 
L 344.05045 211.038943 
L 344.319173 210.430326 
L 344.856621 209.07434 
L 345.125344 209.042689 
L 345.52843 209.150996 
L 345.931584 208.81845 
L 346.200308 208.643476 
L 346.469031 208.719288 
L 346.872117 209.205553 
L 347.543926 210.0784 
L 347.947011 210.319014 
L 348.61882 210.294968 
L 348.887544 210.053955 
L 349.290629 208.985423 
L 349.693715 208.036973 
L 349.828145 207.974402 
L 349.962507 208.076606 
L 350.231231 208.720743 
L 350.768678 210.265709 
L 351.037402 210.400159 
L 351.843573 210.011996 
L 352.112296 209.923527 
L 352.918467 209.428066 
L 353.321553 209.314296 
L 353.993431 208.670242 
L 354.396516 207.991774 
L 354.933963 206.973601 
L 355.202687 206.834317 
L 355.605772 206.742495 
L 355.874496 206.367363 
L 356.14322 205.374667 
L 358.830525 190.808123 
L 359.905419 185.51177 
L 360.308505 182.522752 
L 361.920915 165.97551 
L 363.130172 157.084994 
L 363.936343 148.991817 
L 364.070704 148.947461 
L 364.205066 149.10269 
L 364.339428 149.074524 
L 364.47379 148.589949 
L 365.279961 143.465851 
L 365.548684 142.45946 
L 366.623648 135.266413 
L 367.026733 131.513863 
L 367.161095 131.318128 
L 367.429819 132.208104 
L 367.698542 132.814449 
L 367.967266 132.806416 
L 368.235989 133.465789 
L 368.504713 133.919838 
L 368.639075 133.498015 
L 369.176522 130.907928 
L 369.445246 130.53776 
L 369.714038 128.883282 
L 369.982762 126.952383 
L 370.117124 126.684183 
L 370.385847 127.419487 
L 370.520209 127.735177 
L 370.654571 127.65899 
L 370.923295 126.94858 
L 371.057656 127.100945 
L 371.32638 129.270177 
L 371.595104 131.344038 
L 371.729465 131.238492 
L 372.132551 128.826825 
L 372.266913 128.826569 
L 372.535636 129.710431 
L 372.669998 129.685372 
L 372.938722 128.071741 
L 373.207445 126.583904 
L 373.6106 126.074619 
L 374.148047 123.956928 
L 374.416771 125.92091 
L 374.685494 127.582594 
L 374.819856 127.448643 
L 375.08858 126.553909 
L 375.222941 126.758313 
L 375.894751 130.805271 
L 376.163474 130.442703 
L 376.297836 130.577187 
L 376.56656 131.129245 
L 376.700921 130.782495 
L 376.969645 128.056757 
L 377.238369 125.038398 
L 377.507161 124.184396 
L 377.641523 124.008273 
L 377.775885 123.39337 
L 378.044608 120.374719 
L 378.985141 106.277797 
L 379.388227 97.017718 
L 379.65695 94.791986 
L 379.791312 94.772438 
L 380.328759 95.74389 
L 380.597483 96.865546 
L 380.731845 96.8973 
L 380.866207 96.036989 
L 381.403723 89.229883 
L 381.538084 89.069347 
L 381.672446 89.267184 
L 381.806808 89.02146 
L 381.94117 87.671851 
L 382.344255 78.098041 
L 383.41915 54.680491 
L 383.553512 55.773575 
L 383.956597 62.503259 
L 384.090959 62.251696 
L 384.628406 56.902989 
L 384.762768 57.006958 
L 384.89713 56.871274 
L 385.031492 55.903731 
L 386.106455 39.931556 
L 386.375179 36.331664 
L 386.50954 37.678247 
L 386.912626 47.145284 
L 387.046988 47.659314 
L 387.315711 43.616922 
L 387.584435 40.084015 
L 387.718797 39.908229 
L 387.853159 40.098672 
L 387.98752 39.872308 
L 388.524968 36.850388 
L 388.793691 38.000737 
L 388.928053 37.546393 
L 389.465569 31.481761 
L 389.734293 35.072128 
L 390.003016 37.864968 
L 390.137378 37.232462 
L 390.406102 35.121739 
L 390.540464 35.715454 
L 390.809187 40.951857 
L 391.077911 46.473449 
L 391.212273 47.730319 
L 391.212273 47.730319 
" style="fill:none;stroke:#0000ff;stroke-linecap:square;stroke-width:1.5;"/>
   </g>
   <g id="patch_9">
    <path d="M 246.885 223.918125 
L 246.885 22.318125 
" style="fill:none;stroke:#000000;stroke-linecap:square;stroke-linejoin:miter;stroke-width:0.8;"/>
   </g>
   <g id="patch_10">
    <path d="M 398.085 223.918125 
L 398.085 22.318125 
" style="fill:none;stroke:#000000;stroke-linecap:square;stroke-linejoin:miter;stroke-width:0.8;"/>
   </g>
   <g id="patch_11">
    <path d="M 246.885 223.918125 
L 398.085 223.918125 
" style="fill:none;stroke:#000000;stroke-linecap:square;stroke-linejoin:miter;stroke-width:0.8;"/>
   </g>
   <g id="patch_12">
    <path d="M 246.885 22.318125 
L 398.085 22.318125 
" style="fill:none;stroke:#000000;stroke-linecap:square;stroke-linejoin:miter;stroke-width:0.8;"/>
   </g>
   <g id="text_30">
    <!--   -->
    <g transform="translate(320.578125 16.318125)scale(0.12 -0.12)">
     <use xlink:href="#DejaVuSans-32"/>
    </g>
   </g>
   <g id="legend_2">
    <g id="patch_13">
     <path d="M 253.885 44.99625 
L 345.485 44.99625 
Q 347.485 44.99625 347.485 42.99625 
L 347.485 29.318125 
Q 347.485 27.318125 345.485 27.318125 
L 253.885 27.318125 
Q 251.885 27.318125 251.885 29.318125 
L 251.885 42.99625 
Q 251.885 44.99625 253.885 44.99625 
z
" style="fill:#ffffff;opacity:0.8;stroke:#cccccc;stroke-linejoin:miter;"/>
    </g>
    <g id="line2d_28">
     <path d="M 255.885 35.416562 
L 275.885 35.416562 
" style="fill:none;stroke:#0000ff;stroke-linecap:square;stroke-width:1.5;"/>
    </g>
    <g id="line2d_29"/>
    <g id="text_31">
     <!-- $dI/dV$ ($a.u.$) -->
     <g transform="translate(283.885 38.916562)scale(0.1 -0.1)">
      <use transform="translate(0 0.015625)" xlink:href="#DejaVuSans-Oblique-100"/>
      <use transform="translate(63.476562 0.015625)" xlink:href="#DejaVuSans-Oblique-73"/>
      <use transform="translate(92.96875 0.015625)" xlink:href="#DejaVuSans-47"/>
      <use transform="translate(126.660156 0.015625)" xlink:href="#DejaVuSans-Oblique-100"/>
      <use transform="translate(190.136719 0.015625)" xlink:href="#DejaVuSans-Oblique-86"/>
      <use transform="translate(258.544922 0.015625)" xlink:href="#DejaVuSans-32"/>
      <use transform="translate(290.332031 0.015625)" xlink:href="#DejaVuSans-40"/>
      <use transform="translate(329.345703 0.015625)" xlink:href="#DejaVuSans-Oblique-97"/>
      <use transform="translate(390.625 0.015625)" xlink:href="#DejaVuSans-46"/>
      <use transform="translate(441.894531 0.015625)" xlink:href="#DejaVuSans-Oblique-117"/>
      <use transform="translate(505.273438 0.015625)" xlink:href="#DejaVuSans-46"/>
      <use transform="translate(556.542969 0.015625)" xlink:href="#DejaVuSans-41"/>
     </g>
    </g>
   </g>
  </g>
 </g>
 <defs>
  <clipPath id="p344db8dc81">
   <rect height="388.08" width="390.6" x="57.885" y="32.398125"/>
  </clipPath>
  <clipPath id="pc17ce3393d">
   <rect height="201.6" width="151.2" x="246.885" y="22.318125"/>
  </clipPath>
 </defs>
</svg>
