<?xml version="1.0" encoding="utf-8" standalone="no"?>
<!DOCTYPE svg PUBLIC "-//W3C//DTD SVG 1.1//EN"
  "http://www.w3.org/Graphics/SVG/1.1/DTD/svg11.dtd">
<!-- Created with matplotlib (https://matplotlib.org/) -->
<svg height="459.568125pt" version="1.1" viewBox="0 0 461.74446 459.568125" width="461.74446pt" xmlns="http://www.w3.org/2000/svg" xmlns:xlink="http://www.w3.org/1999/xlink">
 <metadata>
  <rdf:RDF xmlns:cc="http://creativecommons.org/ns#" xmlns:dc="http://purl.org/dc/elements/1.1/" xmlns:rdf="http://www.w3.org/1999/02/22-rdf-syntax-ns#">
   <cc:Work>
    <dc:type rdf:resource="http://purl.org/dc/dcmitype/StillImage"/>
    <dc:date>2023-09-27T17:52:48.955249</dc:date>
    <dc:format>image/svg+xml</dc:format>
    <dc:creator>
     <cc:Agent>
      <dc:title>Matplotlib v3.3.4, https://matplotlib.org/</dc:title>
     </cc:Agent>
    </dc:creator>
   </cc:Work>
  </rdf:RDF>
 </metadata>
 <defs>
  <style type="text/css">*{stroke-linecap:butt;stroke-linejoin:round;}</style>
 </defs>
 <g id="figure_1">
  <g id="patch_1">
   <path d="M 0 459.568125 
L 461.74446 459.568125 
L 461.74446 0 
L 0 0 
z
" style="fill:#ffffff;"/>
  </g>
  <g id="axes_1">
   <g id="patch_2">
    <path d="M 57.885 410.398125 
L 448.485 410.398125 
L 448.485 22.318125 
L 57.885 22.318125 
z
" style="fill:none;"/>
   </g>
   <g id="matplotlib.axis_1">
    <g id="xtick_1">
     <g id="line2d_1">
      <defs>
       <path d="M 0 0 
L 0 3.5 
" id="m033a15a18f" style="stroke:#000000;stroke-width:0.8;"/>
      </defs>
      <g>
       <use style="stroke:#000000;stroke-width:0.8;" x="62.957727" xlink:href="#m033a15a18f" y="410.398125"/>
      </g>
     </g>
     <g id="text_1">
      <!-- −1.5 -->
      <g transform="translate(45.959759 428.035937)scale(0.14 -0.14)">
       <defs>
        <path d="M 10.59375 35.5 
L 73.1875 35.5 
L 73.1875 27.203125 
L 10.59375 27.203125 
z
" id="DejaVuSans-8722"/>
        <path d="M 12.40625 8.296875 
L 28.515625 8.296875 
L 28.515625 63.921875 
L 10.984375 60.40625 
L 10.984375 69.390625 
L 28.421875 72.90625 
L 38.28125 72.90625 
L 38.28125 8.296875 
L 54.390625 8.296875 
L 54.390625 0 
L 12.40625 0 
z
" id="DejaVuSans-49"/>
        <path d="M 10.6875 12.40625 
L 21 12.40625 
L 21 0 
L 10.6875 0 
z
" id="DejaVuSans-46"/>
        <path d="M 10.796875 72.90625 
L 49.515625 72.90625 
L 49.515625 64.59375 
L 19.828125 64.59375 
L 19.828125 46.734375 
Q 21.96875 47.46875 24.109375 47.828125 
Q 26.265625 48.1875 28.421875 48.1875 
Q 40.625 48.1875 47.75 41.5 
Q 54.890625 34.8125 54.890625 23.390625 
Q 54.890625 11.625 47.5625 5.09375 
Q 40.234375 -1.421875 26.90625 -1.421875 
Q 22.3125 -1.421875 17.546875 -0.640625 
Q 12.796875 0.140625 7.71875 1.703125 
L 7.71875 11.625 
Q 12.109375 9.234375 16.796875 8.0625 
Q 21.484375 6.890625 26.703125 6.890625 
Q 35.15625 6.890625 40.078125 11.328125 
Q 45.015625 15.765625 45.015625 23.390625 
Q 45.015625 31 40.078125 35.4375 
Q 35.15625 39.890625 26.703125 39.890625 
Q 22.75 39.890625 18.8125 39.015625 
Q 14.890625 38.140625 10.796875 36.28125 
z
" id="DejaVuSans-53"/>
       </defs>
       <use xlink:href="#DejaVuSans-8722"/>
       <use x="83.789062" xlink:href="#DejaVuSans-49"/>
       <use x="147.412109" xlink:href="#DejaVuSans-46"/>
       <use x="179.199219" xlink:href="#DejaVuSans-53"/>
      </g>
     </g>
    </g>
    <g id="xtick_2">
     <g id="line2d_2">
      <g>
       <use style="stroke:#000000;stroke-width:0.8;" x="126.366818" xlink:href="#m033a15a18f" y="410.398125"/>
      </g>
     </g>
     <g id="text_2">
      <!-- −1.0 -->
      <g transform="translate(109.368849 428.035937)scale(0.14 -0.14)">
       <defs>
        <path d="M 31.78125 66.40625 
Q 24.171875 66.40625 20.328125 58.90625 
Q 16.5 51.421875 16.5 36.375 
Q 16.5 21.390625 20.328125 13.890625 
Q 24.171875 6.390625 31.78125 6.390625 
Q 39.453125 6.390625 43.28125 13.890625 
Q 47.125 21.390625 47.125 36.375 
Q 47.125 51.421875 43.28125 58.90625 
Q 39.453125 66.40625 31.78125 66.40625 
z
M 31.78125 74.21875 
Q 44.046875 74.21875 50.515625 64.515625 
Q 56.984375 54.828125 56.984375 36.375 
Q 56.984375 17.96875 50.515625 8.265625 
Q 44.046875 -1.421875 31.78125 -1.421875 
Q 19.53125 -1.421875 13.0625 8.265625 
Q 6.59375 17.96875 6.59375 36.375 
Q 6.59375 54.828125 13.0625 64.515625 
Q 19.53125 74.21875 31.78125 74.21875 
z
" id="DejaVuSans-48"/>
       </defs>
       <use xlink:href="#DejaVuSans-8722"/>
       <use x="83.789062" xlink:href="#DejaVuSans-49"/>
       <use x="147.412109" xlink:href="#DejaVuSans-46"/>
       <use x="179.199219" xlink:href="#DejaVuSans-48"/>
      </g>
     </g>
    </g>
    <g id="xtick_3">
     <g id="line2d_3">
      <g>
       <use style="stroke:#000000;stroke-width:0.8;" x="189.775909" xlink:href="#m033a15a18f" y="410.398125"/>
      </g>
     </g>
     <g id="text_3">
      <!-- −0.5 -->
      <g transform="translate(172.77794 428.035937)scale(0.14 -0.14)">
       <use xlink:href="#DejaVuSans-8722"/>
       <use x="83.789062" xlink:href="#DejaVuSans-48"/>
       <use x="147.412109" xlink:href="#DejaVuSans-46"/>
       <use x="179.199219" xlink:href="#DejaVuSans-53"/>
      </g>
     </g>
    </g>
    <g id="xtick_4">
     <g id="line2d_4">
      <g>
       <use style="stroke:#000000;stroke-width:0.8;" x="253.185" xlink:href="#m033a15a18f" y="410.398125"/>
      </g>
     </g>
     <g id="text_4">
      <!-- 0.0 -->
      <g transform="translate(242.052813 428.035937)scale(0.14 -0.14)">
       <use xlink:href="#DejaVuSans-48"/>
       <use x="63.623047" xlink:href="#DejaVuSans-46"/>
       <use x="95.410156" xlink:href="#DejaVuSans-48"/>
      </g>
     </g>
    </g>
    <g id="xtick_5">
     <g id="line2d_5">
      <g>
       <use style="stroke:#000000;stroke-width:0.8;" x="316.594091" xlink:href="#m033a15a18f" y="410.398125"/>
      </g>
     </g>
     <g id="text_5">
      <!-- 0.5 -->
      <g transform="translate(305.461903 428.035937)scale(0.14 -0.14)">
       <use xlink:href="#DejaVuSans-48"/>
       <use x="63.623047" xlink:href="#DejaVuSans-46"/>
       <use x="95.410156" xlink:href="#DejaVuSans-53"/>
      </g>
     </g>
    </g>
    <g id="xtick_6">
     <g id="line2d_6">
      <g>
       <use style="stroke:#000000;stroke-width:0.8;" x="380.003182" xlink:href="#m033a15a18f" y="410.398125"/>
      </g>
     </g>
     <g id="text_6">
      <!-- 1.0 -->
      <g transform="translate(368.870994 428.035937)scale(0.14 -0.14)">
       <use xlink:href="#DejaVuSans-49"/>
       <use x="63.623047" xlink:href="#DejaVuSans-46"/>
       <use x="95.410156" xlink:href="#DejaVuSans-48"/>
      </g>
     </g>
    </g>
    <g id="xtick_7">
     <g id="line2d_7">
      <g>
       <use style="stroke:#000000;stroke-width:0.8;" x="443.412273" xlink:href="#m033a15a18f" y="410.398125"/>
      </g>
     </g>
     <g id="text_7">
      <!-- 1.5 -->
      <g transform="translate(432.280085 428.035937)scale(0.14 -0.14)">
       <use xlink:href="#DejaVuSans-49"/>
       <use x="63.623047" xlink:href="#DejaVuSans-46"/>
       <use x="95.410156" xlink:href="#DejaVuSans-53"/>
      </g>
     </g>
    </g>
    <g id="text_8">
     <!-- Sample bias (V) -->
     <g transform="translate(182.120156 448.624687)scale(0.18 -0.18)">
      <defs>
       <path d="M 53.515625 70.515625 
L 53.515625 60.890625 
Q 47.90625 63.578125 42.921875 64.890625 
Q 37.9375 66.21875 33.296875 66.21875 
Q 25.25 66.21875 20.875 63.09375 
Q 16.5 59.96875 16.5 54.203125 
Q 16.5 49.359375 19.40625 46.890625 
Q 22.3125 44.4375 30.421875 42.921875 
L 36.375 41.703125 
Q 47.40625 39.59375 52.65625 34.296875 
Q 57.90625 29 57.90625 20.125 
Q 57.90625 9.515625 50.796875 4.046875 
Q 43.703125 -1.421875 29.984375 -1.421875 
Q 24.8125 -1.421875 18.96875 -0.25 
Q 13.140625 0.921875 6.890625 3.21875 
L 6.890625 13.375 
Q 12.890625 10.015625 18.65625 8.296875 
Q 24.421875 6.59375 29.984375 6.59375 
Q 38.421875 6.59375 43.015625 9.90625 
Q 47.609375 13.234375 47.609375 19.390625 
Q 47.609375 24.75 44.3125 27.78125 
Q 41.015625 30.8125 33.5 32.328125 
L 27.484375 33.5 
Q 16.453125 35.6875 11.515625 40.375 
Q 6.59375 45.0625 6.59375 53.421875 
Q 6.59375 63.09375 13.40625 68.65625 
Q 20.21875 74.21875 32.171875 74.21875 
Q 37.3125 74.21875 42.625 73.28125 
Q 47.953125 72.359375 53.515625 70.515625 
z
" id="DejaVuSans-83"/>
       <path d="M 34.28125 27.484375 
Q 23.390625 27.484375 19.1875 25 
Q 14.984375 22.515625 14.984375 16.5 
Q 14.984375 11.71875 18.140625 8.90625 
Q 21.296875 6.109375 26.703125 6.109375 
Q 34.1875 6.109375 38.703125 11.40625 
Q 43.21875 16.703125 43.21875 25.484375 
L 43.21875 27.484375 
z
M 52.203125 31.203125 
L 52.203125 0 
L 43.21875 0 
L 43.21875 8.296875 
Q 40.140625 3.328125 35.546875 0.953125 
Q 30.953125 -1.421875 24.3125 -1.421875 
Q 15.921875 -1.421875 10.953125 3.296875 
Q 6 8.015625 6 15.921875 
Q 6 25.140625 12.171875 29.828125 
Q 18.359375 34.515625 30.609375 34.515625 
L 43.21875 34.515625 
L 43.21875 35.40625 
Q 43.21875 41.609375 39.140625 45 
Q 35.0625 48.390625 27.6875 48.390625 
Q 23 48.390625 18.546875 47.265625 
Q 14.109375 46.140625 10.015625 43.890625 
L 10.015625 52.203125 
Q 14.9375 54.109375 19.578125 55.046875 
Q 24.21875 56 28.609375 56 
Q 40.484375 56 46.34375 49.84375 
Q 52.203125 43.703125 52.203125 31.203125 
z
" id="DejaVuSans-97"/>
       <path d="M 52 44.1875 
Q 55.375 50.25 60.0625 53.125 
Q 64.75 56 71.09375 56 
Q 79.640625 56 84.28125 50.015625 
Q 88.921875 44.046875 88.921875 33.015625 
L 88.921875 0 
L 79.890625 0 
L 79.890625 32.71875 
Q 79.890625 40.578125 77.09375 44.375 
Q 74.3125 48.1875 68.609375 48.1875 
Q 61.625 48.1875 57.5625 43.546875 
Q 53.515625 38.921875 53.515625 30.90625 
L 53.515625 0 
L 44.484375 0 
L 44.484375 32.71875 
Q 44.484375 40.625 41.703125 44.40625 
Q 38.921875 48.1875 33.109375 48.1875 
Q 26.21875 48.1875 22.15625 43.53125 
Q 18.109375 38.875 18.109375 30.90625 
L 18.109375 0 
L 9.078125 0 
L 9.078125 54.6875 
L 18.109375 54.6875 
L 18.109375 46.1875 
Q 21.1875 51.21875 25.484375 53.609375 
Q 29.78125 56 35.6875 56 
Q 41.65625 56 45.828125 52.96875 
Q 50 49.953125 52 44.1875 
z
" id="DejaVuSans-109"/>
       <path d="M 18.109375 8.203125 
L 18.109375 -20.796875 
L 9.078125 -20.796875 
L 9.078125 54.6875 
L 18.109375 54.6875 
L 18.109375 46.390625 
Q 20.953125 51.265625 25.265625 53.625 
Q 29.59375 56 35.59375 56 
Q 45.5625 56 51.78125 48.09375 
Q 58.015625 40.1875 58.015625 27.296875 
Q 58.015625 14.40625 51.78125 6.484375 
Q 45.5625 -1.421875 35.59375 -1.421875 
Q 29.59375 -1.421875 25.265625 0.953125 
Q 20.953125 3.328125 18.109375 8.203125 
z
M 48.6875 27.296875 
Q 48.6875 37.203125 44.609375 42.84375 
Q 40.53125 48.484375 33.40625 48.484375 
Q 26.265625 48.484375 22.1875 42.84375 
Q 18.109375 37.203125 18.109375 27.296875 
Q 18.109375 17.390625 22.1875 11.75 
Q 26.265625 6.109375 33.40625 6.109375 
Q 40.53125 6.109375 44.609375 11.75 
Q 48.6875 17.390625 48.6875 27.296875 
z
" id="DejaVuSans-112"/>
       <path d="M 9.421875 75.984375 
L 18.40625 75.984375 
L 18.40625 0 
L 9.421875 0 
z
" id="DejaVuSans-108"/>
       <path d="M 56.203125 29.59375 
L 56.203125 25.203125 
L 14.890625 25.203125 
Q 15.484375 15.921875 20.484375 11.0625 
Q 25.484375 6.203125 34.421875 6.203125 
Q 39.59375 6.203125 44.453125 7.46875 
Q 49.3125 8.734375 54.109375 11.28125 
L 54.109375 2.78125 
Q 49.265625 0.734375 44.1875 -0.34375 
Q 39.109375 -1.421875 33.890625 -1.421875 
Q 20.796875 -1.421875 13.15625 6.1875 
Q 5.515625 13.8125 5.515625 26.8125 
Q 5.515625 40.234375 12.765625 48.109375 
Q 20.015625 56 32.328125 56 
Q 43.359375 56 49.78125 48.890625 
Q 56.203125 41.796875 56.203125 29.59375 
z
M 47.21875 32.234375 
Q 47.125 39.59375 43.09375 43.984375 
Q 39.0625 48.390625 32.421875 48.390625 
Q 24.90625 48.390625 20.390625 44.140625 
Q 15.875 39.890625 15.1875 32.171875 
z
" id="DejaVuSans-101"/>
       <path id="DejaVuSans-32"/>
       <path d="M 48.6875 27.296875 
Q 48.6875 37.203125 44.609375 42.84375 
Q 40.53125 48.484375 33.40625 48.484375 
Q 26.265625 48.484375 22.1875 42.84375 
Q 18.109375 37.203125 18.109375 27.296875 
Q 18.109375 17.390625 22.1875 11.75 
Q 26.265625 6.109375 33.40625 6.109375 
Q 40.53125 6.109375 44.609375 11.75 
Q 48.6875 17.390625 48.6875 27.296875 
z
M 18.109375 46.390625 
Q 20.953125 51.265625 25.265625 53.625 
Q 29.59375 56 35.59375 56 
Q 45.5625 56 51.78125 48.09375 
Q 58.015625 40.1875 58.015625 27.296875 
Q 58.015625 14.40625 51.78125 6.484375 
Q 45.5625 -1.421875 35.59375 -1.421875 
Q 29.59375 -1.421875 25.265625 0.953125 
Q 20.953125 3.328125 18.109375 8.203125 
L 18.109375 0 
L 9.078125 0 
L 9.078125 75.984375 
L 18.109375 75.984375 
z
" id="DejaVuSans-98"/>
       <path d="M 9.421875 54.6875 
L 18.40625 54.6875 
L 18.40625 0 
L 9.421875 0 
z
M 9.421875 75.984375 
L 18.40625 75.984375 
L 18.40625 64.59375 
L 9.421875 64.59375 
z
" id="DejaVuSans-105"/>
       <path d="M 44.28125 53.078125 
L 44.28125 44.578125 
Q 40.484375 46.53125 36.375 47.5 
Q 32.28125 48.484375 27.875 48.484375 
Q 21.1875 48.484375 17.84375 46.4375 
Q 14.5 44.390625 14.5 40.28125 
Q 14.5 37.15625 16.890625 35.375 
Q 19.28125 33.59375 26.515625 31.984375 
L 29.59375 31.296875 
Q 39.15625 29.25 43.1875 25.515625 
Q 47.21875 21.78125 47.21875 15.09375 
Q 47.21875 7.46875 41.1875 3.015625 
Q 35.15625 -1.421875 24.609375 -1.421875 
Q 20.21875 -1.421875 15.453125 -0.5625 
Q 10.6875 0.296875 5.421875 2 
L 5.421875 11.28125 
Q 10.40625 8.6875 15.234375 7.390625 
Q 20.0625 6.109375 24.8125 6.109375 
Q 31.15625 6.109375 34.5625 8.28125 
Q 37.984375 10.453125 37.984375 14.40625 
Q 37.984375 18.0625 35.515625 20.015625 
Q 33.0625 21.96875 24.703125 23.78125 
L 21.578125 24.515625 
Q 13.234375 26.265625 9.515625 29.90625 
Q 5.8125 33.546875 5.8125 39.890625 
Q 5.8125 47.609375 11.28125 51.796875 
Q 16.75 56 26.8125 56 
Q 31.78125 56 36.171875 55.265625 
Q 40.578125 54.546875 44.28125 53.078125 
z
" id="DejaVuSans-115"/>
       <path d="M 31 75.875 
Q 24.46875 64.65625 21.28125 53.65625 
Q 18.109375 42.671875 18.109375 31.390625 
Q 18.109375 20.125 21.3125 9.0625 
Q 24.515625 -2 31 -13.1875 
L 23.1875 -13.1875 
Q 15.875 -1.703125 12.234375 9.375 
Q 8.59375 20.453125 8.59375 31.390625 
Q 8.59375 42.28125 12.203125 53.3125 
Q 15.828125 64.359375 23.1875 75.875 
z
" id="DejaVuSans-40"/>
       <path d="M 28.609375 0 
L 0.78125 72.90625 
L 11.078125 72.90625 
L 34.1875 11.53125 
L 57.328125 72.90625 
L 67.578125 72.90625 
L 39.796875 0 
z
" id="DejaVuSans-86"/>
       <path d="M 8.015625 75.875 
L 15.828125 75.875 
Q 23.140625 64.359375 26.78125 53.3125 
Q 30.421875 42.28125 30.421875 31.390625 
Q 30.421875 20.453125 26.78125 9.375 
Q 23.140625 -1.703125 15.828125 -13.1875 
L 8.015625 -13.1875 
Q 14.5 -2 17.703125 9.0625 
Q 20.90625 20.125 20.90625 31.390625 
Q 20.90625 42.671875 17.703125 53.65625 
Q 14.5 64.65625 8.015625 75.875 
z
" id="DejaVuSans-41"/>
      </defs>
      <use xlink:href="#DejaVuSans-83"/>
      <use x="63.476562" xlink:href="#DejaVuSans-97"/>
      <use x="124.755859" xlink:href="#DejaVuSans-109"/>
      <use x="222.167969" xlink:href="#DejaVuSans-112"/>
      <use x="285.644531" xlink:href="#DejaVuSans-108"/>
      <use x="313.427734" xlink:href="#DejaVuSans-101"/>
      <use x="374.951172" xlink:href="#DejaVuSans-32"/>
      <use x="406.738281" xlink:href="#DejaVuSans-98"/>
      <use x="470.214844" xlink:href="#DejaVuSans-105"/>
      <use x="497.998047" xlink:href="#DejaVuSans-97"/>
      <use x="559.277344" xlink:href="#DejaVuSans-115"/>
      <use x="611.376953" xlink:href="#DejaVuSans-32"/>
      <use x="643.164062" xlink:href="#DejaVuSans-40"/>
      <use x="682.177734" xlink:href="#DejaVuSans-86"/>
      <use x="750.585938" xlink:href="#DejaVuSans-41"/>
     </g>
    </g>
   </g>
   <g id="matplotlib.axis_2">
    <g id="ytick_1">
     <g id="line2d_8">
      <defs>
       <path d="M 0 0 
L -3.5 0 
" id="m9c60d58e85" style="stroke:#000000;stroke-width:0.8;"/>
      </defs>
      <g>
       <use style="stroke:#000000;stroke-width:0.8;" x="57.885" xlink:href="#m9c60d58e85" y="405.371447"/>
      </g>
     </g>
     <g id="text_9">
      <!-- 0.0 -->
      <g transform="translate(28.620625 410.690353)scale(0.14 -0.14)">
       <use xlink:href="#DejaVuSans-48"/>
       <use x="63.623047" xlink:href="#DejaVuSans-46"/>
       <use x="95.410156" xlink:href="#DejaVuSans-48"/>
      </g>
     </g>
    </g>
    <g id="ytick_2">
     <g id="line2d_9">
      <g>
       <use style="stroke:#000000;stroke-width:0.8;" x="57.885" xlink:href="#m9c60d58e85" y="351.64958"/>
      </g>
     </g>
     <g id="text_10">
      <!-- 0.1 -->
      <g transform="translate(28.620625 356.968486)scale(0.14 -0.14)">
       <use xlink:href="#DejaVuSans-48"/>
       <use x="63.623047" xlink:href="#DejaVuSans-46"/>
       <use x="95.410156" xlink:href="#DejaVuSans-49"/>
      </g>
     </g>
    </g>
    <g id="ytick_3">
     <g id="line2d_10">
      <g>
       <use style="stroke:#000000;stroke-width:0.8;" x="57.885" xlink:href="#m9c60d58e85" y="297.927713"/>
      </g>
     </g>
     <g id="text_11">
      <!-- 0.2 -->
      <g transform="translate(28.620625 303.246619)scale(0.14 -0.14)">
       <defs>
        <path d="M 19.1875 8.296875 
L 53.609375 8.296875 
L 53.609375 0 
L 7.328125 0 
L 7.328125 8.296875 
Q 12.9375 14.109375 22.625 23.890625 
Q 32.328125 33.6875 34.8125 36.53125 
Q 39.546875 41.84375 41.421875 45.53125 
Q 43.3125 49.21875 43.3125 52.78125 
Q 43.3125 58.59375 39.234375 62.25 
Q 35.15625 65.921875 28.609375 65.921875 
Q 23.96875 65.921875 18.8125 64.3125 
Q 13.671875 62.703125 7.8125 59.421875 
L 7.8125 69.390625 
Q 13.765625 71.78125 18.9375 73 
Q 24.125 74.21875 28.421875 74.21875 
Q 39.75 74.21875 46.484375 68.546875 
Q 53.21875 62.890625 53.21875 53.421875 
Q 53.21875 48.921875 51.53125 44.890625 
Q 49.859375 40.875 45.40625 35.40625 
Q 44.1875 33.984375 37.640625 27.21875 
Q 31.109375 20.453125 19.1875 8.296875 
z
" id="DejaVuSans-50"/>
       </defs>
       <use xlink:href="#DejaVuSans-48"/>
       <use x="63.623047" xlink:href="#DejaVuSans-46"/>
       <use x="95.410156" xlink:href="#DejaVuSans-50"/>
      </g>
     </g>
    </g>
    <g id="ytick_4">
     <g id="line2d_11">
      <g>
       <use style="stroke:#000000;stroke-width:0.8;" x="57.885" xlink:href="#m9c60d58e85" y="244.205846"/>
      </g>
     </g>
     <g id="text_12">
      <!-- 0.3 -->
      <g transform="translate(28.620625 249.524752)scale(0.14 -0.14)">
       <defs>
        <path d="M 40.578125 39.3125 
Q 47.65625 37.796875 51.625 33 
Q 55.609375 28.21875 55.609375 21.1875 
Q 55.609375 10.40625 48.1875 4.484375 
Q 40.765625 -1.421875 27.09375 -1.421875 
Q 22.515625 -1.421875 17.65625 -0.515625 
Q 12.796875 0.390625 7.625 2.203125 
L 7.625 11.71875 
Q 11.71875 9.328125 16.59375 8.109375 
Q 21.484375 6.890625 26.8125 6.890625 
Q 36.078125 6.890625 40.9375 10.546875 
Q 45.796875 14.203125 45.796875 21.1875 
Q 45.796875 27.640625 41.28125 31.265625 
Q 36.765625 34.90625 28.71875 34.90625 
L 20.21875 34.90625 
L 20.21875 43.015625 
L 29.109375 43.015625 
Q 36.375 43.015625 40.234375 45.921875 
Q 44.09375 48.828125 44.09375 54.296875 
Q 44.09375 59.90625 40.109375 62.90625 
Q 36.140625 65.921875 28.71875 65.921875 
Q 24.65625 65.921875 20.015625 65.03125 
Q 15.375 64.15625 9.8125 62.3125 
L 9.8125 71.09375 
Q 15.4375 72.65625 20.34375 73.4375 
Q 25.25 74.21875 29.59375 74.21875 
Q 40.828125 74.21875 47.359375 69.109375 
Q 53.90625 64.015625 53.90625 55.328125 
Q 53.90625 49.265625 50.4375 45.09375 
Q 46.96875 40.921875 40.578125 39.3125 
z
" id="DejaVuSans-51"/>
       </defs>
       <use xlink:href="#DejaVuSans-48"/>
       <use x="63.623047" xlink:href="#DejaVuSans-46"/>
       <use x="95.410156" xlink:href="#DejaVuSans-51"/>
      </g>
     </g>
    </g>
    <g id="ytick_5">
     <g id="line2d_12">
      <g>
       <use style="stroke:#000000;stroke-width:0.8;" x="57.885" xlink:href="#m9c60d58e85" y="190.483979"/>
      </g>
     </g>
     <g id="text_13">
      <!-- 0.4 -->
      <g transform="translate(28.620625 195.802885)scale(0.14 -0.14)">
       <defs>
        <path d="M 37.796875 64.3125 
L 12.890625 25.390625 
L 37.796875 25.390625 
z
M 35.203125 72.90625 
L 47.609375 72.90625 
L 47.609375 25.390625 
L 58.015625 25.390625 
L 58.015625 17.1875 
L 47.609375 17.1875 
L 47.609375 0 
L 37.796875 0 
L 37.796875 17.1875 
L 4.890625 17.1875 
L 4.890625 26.703125 
z
" id="DejaVuSans-52"/>
       </defs>
       <use xlink:href="#DejaVuSans-48"/>
       <use x="63.623047" xlink:href="#DejaVuSans-46"/>
       <use x="95.410156" xlink:href="#DejaVuSans-52"/>
      </g>
     </g>
    </g>
    <g id="ytick_6">
     <g id="line2d_13">
      <g>
       <use style="stroke:#000000;stroke-width:0.8;" x="57.885" xlink:href="#m9c60d58e85" y="136.762112"/>
      </g>
     </g>
     <g id="text_14">
      <!-- 0.5 -->
      <g transform="translate(28.620625 142.081018)scale(0.14 -0.14)">
       <use xlink:href="#DejaVuSans-48"/>
       <use x="63.623047" xlink:href="#DejaVuSans-46"/>
       <use x="95.410156" xlink:href="#DejaVuSans-53"/>
      </g>
     </g>
    </g>
    <g id="ytick_7">
     <g id="line2d_14">
      <g>
       <use style="stroke:#000000;stroke-width:0.8;" x="57.885" xlink:href="#m9c60d58e85" y="83.040245"/>
      </g>
     </g>
     <g id="text_15">
      <!-- 0.6 -->
      <g transform="translate(28.620625 88.359151)scale(0.14 -0.14)">
       <defs>
        <path d="M 33.015625 40.375 
Q 26.375 40.375 22.484375 35.828125 
Q 18.609375 31.296875 18.609375 23.390625 
Q 18.609375 15.53125 22.484375 10.953125 
Q 26.375 6.390625 33.015625 6.390625 
Q 39.65625 6.390625 43.53125 10.953125 
Q 47.40625 15.53125 47.40625 23.390625 
Q 47.40625 31.296875 43.53125 35.828125 
Q 39.65625 40.375 33.015625 40.375 
z
M 52.59375 71.296875 
L 52.59375 62.3125 
Q 48.875 64.0625 45.09375 64.984375 
Q 41.3125 65.921875 37.59375 65.921875 
Q 27.828125 65.921875 22.671875 59.328125 
Q 17.53125 52.734375 16.796875 39.40625 
Q 19.671875 43.65625 24.015625 45.921875 
Q 28.375 48.1875 33.59375 48.1875 
Q 44.578125 48.1875 50.953125 41.515625 
Q 57.328125 34.859375 57.328125 23.390625 
Q 57.328125 12.15625 50.6875 5.359375 
Q 44.046875 -1.421875 33.015625 -1.421875 
Q 20.359375 -1.421875 13.671875 8.265625 
Q 6.984375 17.96875 6.984375 36.375 
Q 6.984375 53.65625 15.1875 63.9375 
Q 23.390625 74.21875 37.203125 74.21875 
Q 40.921875 74.21875 44.703125 73.484375 
Q 48.484375 72.75 52.59375 71.296875 
z
" id="DejaVuSans-54"/>
       </defs>
       <use xlink:href="#DejaVuSans-48"/>
       <use x="63.623047" xlink:href="#DejaVuSans-46"/>
       <use x="95.410156" xlink:href="#DejaVuSans-54"/>
      </g>
     </g>
    </g>
    <g id="ytick_8">
     <g id="line2d_15">
      <g>
       <use style="stroke:#000000;stroke-width:0.8;" x="57.885" xlink:href="#m9c60d58e85" y="29.318378"/>
      </g>
     </g>
     <g id="text_16">
      <!-- 0.7 -->
      <g transform="translate(28.620625 34.637284)scale(0.14 -0.14)">
       <defs>
        <path d="M 8.203125 72.90625 
L 55.078125 72.90625 
L 55.078125 68.703125 
L 28.609375 0 
L 18.3125 0 
L 43.21875 64.59375 
L 8.203125 64.59375 
z
" id="DejaVuSans-55"/>
       </defs>
       <use xlink:href="#DejaVuSans-48"/>
       <use x="63.623047" xlink:href="#DejaVuSans-46"/>
       <use x="95.410156" xlink:href="#DejaVuSans-55"/>
      </g>
     </g>
    </g>
    <g id="text_17">
     <!-- $dI/dV$ ($a.u.$) -->
     <g transform="translate(20.877188 269.998125)rotate(-90)scale(0.18 -0.18)">
      <defs>
       <path d="M 41.796875 8.203125 
Q 38.1875 3.46875 33.25 1.015625 
Q 28.328125 -1.421875 22.3125 -1.421875 
Q 14.109375 -1.421875 9.34375 4.171875 
Q 4.59375 9.765625 4.59375 19.484375 
Q 4.59375 27.59375 7.46875 34.9375 
Q 10.359375 42.28125 15.828125 48.09375 
Q 19.4375 51.953125 23.96875 53.96875 
Q 28.515625 56 33.5 56 
Q 38.765625 56 42.796875 53.453125 
Q 46.828125 50.921875 49.03125 46.1875 
L 54.890625 75.984375 
L 63.921875 75.984375 
L 49.125 0 
L 40.09375 0 
z
M 13.921875 21.09375 
Q 13.921875 14.015625 17.109375 10.0625 
Q 20.3125 6.109375 25.984375 6.109375 
Q 30.171875 6.109375 33.765625 8.125 
Q 37.359375 10.15625 40.09375 14.109375 
Q 42.96875 18.21875 44.625 23.578125 
Q 46.296875 28.953125 46.296875 34.1875 
Q 46.296875 40.96875 43.09375 44.765625 
Q 39.890625 48.578125 34.28125 48.578125 
Q 30.03125 48.578125 26.359375 46.578125 
Q 22.703125 44.578125 20.125 40.828125 
Q 17.28125 36.765625 15.59375 31.390625 
Q 13.921875 26.03125 13.921875 21.09375 
z
" id="DejaVuSans-Oblique-100"/>
       <path d="M 16.890625 72.90625 
L 26.8125 72.90625 
L 12.59375 0 
L 2.6875 0 
z
" id="DejaVuSans-Oblique-73"/>
       <path d="M 25.390625 72.90625 
L 33.6875 72.90625 
L 8.296875 -9.28125 
L 0 -9.28125 
z
" id="DejaVuSans-47"/>
       <path d="M 20.609375 0 
L 7.8125 72.90625 
L 17.484375 72.90625 
L 28.078125 10.203125 
L 63.484375 72.90625 
L 74.21875 72.90625 
L 32.078125 0 
z
" id="DejaVuSans-Oblique-86"/>
       <path d="M 53.71875 31.203125 
L 47.609375 0 
L 38.625 0 
L 40.28125 8.296875 
Q 36.328125 3.421875 31.265625 1 
Q 26.21875 -1.421875 20.015625 -1.421875 
Q 13.03125 -1.421875 8.5625 2.84375 
Q 4.109375 7.125 4.109375 13.8125 
Q 4.109375 23.390625 11.75 28.953125 
Q 19.390625 34.515625 32.8125 34.515625 
L 45.3125 34.515625 
L 45.796875 36.921875 
Q 45.90625 37.3125 45.953125 37.765625 
Q 46 38.234375 46 39.203125 
Q 46 43.5625 42.453125 45.96875 
Q 38.921875 48.390625 32.515625 48.390625 
Q 28.125 48.390625 23.5 47.265625 
Q 18.890625 46.140625 14.015625 43.890625 
L 15.578125 52.203125 
Q 20.65625 54.109375 25.515625 55.046875 
Q 30.375 56 34.90625 56 
Q 44.578125 56 49.625 51.796875 
Q 54.6875 47.609375 54.6875 39.59375 
Q 54.6875 37.984375 54.4375 35.8125 
Q 54.203125 33.640625 53.71875 31.203125 
z
M 44 27.484375 
L 35.015625 27.484375 
Q 23.96875 27.484375 18.671875 24.53125 
Q 13.375 21.578125 13.375 15.375 
Q 13.375 11.078125 16.078125 8.640625 
Q 18.796875 6.203125 23.578125 6.203125 
Q 30.90625 6.203125 36.375 11.453125 
Q 41.84375 16.703125 43.609375 25.484375 
z
" id="DejaVuSans-Oblique-97"/>
       <path d="M 6.6875 21.6875 
L 13.09375 54.6875 
L 22.125 54.6875 
L 15.71875 22.015625 
Q 15.234375 19.625 15.015625 17.921875 
Q 14.796875 16.21875 14.796875 15.09375 
Q 14.796875 10.9375 17.328125 8.65625 
Q 19.875 6.390625 24.515625 6.390625 
Q 31.734375 6.390625 37 11.265625 
Q 42.28125 16.15625 43.890625 24.421875 
L 49.90625 54.6875 
L 58.890625 54.6875 
L 48.296875 0 
L 39.3125 0 
L 41.109375 8.59375 
Q 37.3125 3.8125 32.0625 1.1875 
Q 26.8125 -1.421875 20.90625 -1.421875 
Q 13.71875 -1.421875 9.71875 2.515625 
Q 5.71875 6.453125 5.71875 13.484375 
Q 5.71875 14.9375 5.953125 17.140625 
Q 6.203125 19.34375 6.6875 21.6875 
z
" id="DejaVuSans-Oblique-117"/>
      </defs>
      <use transform="translate(0 0.015625)" xlink:href="#DejaVuSans-Oblique-100"/>
      <use transform="translate(63.476562 0.015625)" xlink:href="#DejaVuSans-Oblique-73"/>
      <use transform="translate(92.96875 0.015625)" xlink:href="#DejaVuSans-47"/>
      <use transform="translate(126.660156 0.015625)" xlink:href="#DejaVuSans-Oblique-100"/>
      <use transform="translate(190.136719 0.015625)" xlink:href="#DejaVuSans-Oblique-86"/>
      <use transform="translate(258.544922 0.015625)" xlink:href="#DejaVuSans-32"/>
      <use transform="translate(290.332031 0.015625)" xlink:href="#DejaVuSans-40"/>
      <use transform="translate(329.345703 0.015625)" xlink:href="#DejaVuSans-Oblique-97"/>
      <use transform="translate(390.625 0.015625)" xlink:href="#DejaVuSans-46"/>
      <use transform="translate(441.894531 0.015625)" xlink:href="#DejaVuSans-Oblique-117"/>
      <use transform="translate(505.273438 0.015625)" xlink:href="#DejaVuSans-46"/>
      <use transform="translate(556.542969 0.015625)" xlink:href="#DejaVuSans-41"/>
     </g>
    </g>
   </g>
   <g id="line2d_16">
    <path clip-path="url(#pead37248c1)" d="M 75.639545 43.104877 
L 75.987027 47.798047 
L 77.028205 70.722091 
L 77.375686 73.596358 
L 77.7219 73.070853 
L 78.069382 71.071969 
L 78.416864 70.046882 
L 78.763077 71.464536 
L 79.804255 81.470617 
L 80.151736 82.106962 
L 80.499218 81.951919 
L 80.8467 82.992448 
L 81.192914 86.708304 
L 82.234091 106.000747 
L 82.581573 109.068718 
L 82.929055 109.602287 
L 83.276536 109.105662 
L 83.62275 109.245892 
L 83.970232 110.772375 
L 85.011409 117.824018 
L 85.705105 122.006233 
L 86.74755 132.275928 
L 87.093764 133.446289 
L 87.441245 132.348444 
L 88.134941 127.180051 
L 88.482423 125.679057 
L 88.829905 125.363374 
L 89.176118 125.280401 
L 89.5236 124.213925 
L 90.564777 116.475296 
L 90.912259 116.988818 
L 91.259741 120.569081 
L 92.6484 143.436071 
L 93.342095 149.752967 
L 93.689577 151.422409 
L 94.035791 151.390204 
L 94.383273 149.056359 
L 95.076968 138.489127 
L 95.771932 127.409906 
L 96.465627 120.425426 
L 97.160591 113.405471 
L 98.201768 102.006573 
L 98.54925 99.91558 
L 98.895464 98.823158 
L 100.284123 96.643419 
L 100.977818 95.199107 
L 101.3253 94.241684 
L 101.672782 92.804579 
L 102.713959 87.533635 
L 103.061441 87.392241 
L 103.755136 89.556195 
L 104.102618 89.896452 
L 104.4501 88.796957 
L 105.143795 84.741571 
L 105.491277 83.808485 
L 105.837491 83.625052 
L 106.184973 82.725041 
L 106.532455 79.450192 
L 107.921114 56.105166 
L 108.267327 56.246517 
L 108.614809 57.587468 
L 108.962291 57.190797 
L 109.308505 53.440271 
L 110.003468 41.831405 
L 110.349682 39.958125 
L 110.697164 42.509535 
L 111.392127 51.767284 
L 111.738341 52.909704 
L 112.433305 50.082948 
L 112.779518 52.236102 
L 113.127 59.258247 
L 114.168177 87.723366 
L 114.515659 91.360827 
L 114.863141 92.735494 
L 115.209355 94.712597 
L 115.556836 99.480062 
L 117.292977 137.110347 
L 117.639191 142.560016 
L 117.986673 149.815062 
L 118.680368 170.965632 
L 119.722814 203.998491 
L 120.763991 234.53255 
L 121.805168 266.126353 
L 122.498864 279.890675 
L 124.581218 309.486045 
L 126.317359 330.434177 
L 127.011435 336.034031 
L 128.39984 342.834851 
L 129.788373 355.767398 
L 130.135474 357.437161 
L 130.482575 358.136625 
L 130.829677 358.165943 
L 131.176778 357.84108 
L 131.870981 356.742805 
L 132.565184 355.538329 
L 132.912285 355.40468 
L 133.259386 355.95402 
L 133.606488 357.252685 
L 134.647792 362.426478 
L 134.994893 363.281365 
L 135.341995 363.528221 
L 135.689096 363.353119 
L 136.036197 362.932265 
L 136.7304 361.533473 
L 137.42473 359.677852 
L 137.771831 359.110332 
L 138.118932 359.162145 
L 138.466034 359.920551 
L 139.854439 364.707611 
L 140.20154 365.011034 
L 141.589946 364.965218 
L 142.978351 365.749825 
L 143.325453 365.721774 
L 143.672554 365.404944 
L 144.019655 364.724629 
L 145.408188 361.034797 
L 145.755289 361.094687 
L 146.10239 361.691056 
L 146.796593 363.356507 
L 147.143695 363.853867 
L 147.490796 364.02067 
L 148.184999 364.065017 
L 148.879201 364.646617 
L 149.226303 364.94406 
L 149.573404 364.981466 
L 149.920505 364.668657 
L 151.656139 361.751846 
L 152.00324 361.54199 
L 152.350342 361.510689 
L 152.697443 361.683745 
L 153.391646 362.530587 
L 153.738747 362.955346 
L 154.085849 363.149682 
L 154.43295 363.00045 
L 154.780051 362.51895 
L 156.168457 359.948218 
L 156.86266 358.72618 
L 158.251065 355.028126 
L 158.945395 352.716831 
L 159.639597 348.638375 
L 160.3338 344.004613 
L 160.680901 342.377408 
L 161.375104 340.525921 
L 161.722205 339.581862 
L 162.416408 336.544338 
L 163.110611 333.326935 
L 164.499016 328.53477 
L 165.193219 325.742423 
L 165.54032 324.971958 
L 166.581751 324.042125 
L 167.623055 321.986121 
L 167.970157 322.090549 
L 168.66436 323.126739 
L 169.011461 323.138479 
L 169.358562 322.563505 
L 169.705664 321.758068 
L 170.052765 321.334096 
L 170.399866 321.792288 
L 170.746968 323.245872 
L 173.871007 342.886523 
L 175.953615 359.147969 
L 176.647818 362.265783 
L 177.34202 363.777625 
L 178.036223 365.196245 
L 178.730426 367.316112 
L 180.118831 371.76978 
L 182.895769 378.832811 
L 183.937073 380.224328 
L 184.631276 381.005584 
L 184.978377 381.186486 
L 185.325479 381.134773 
L 186.019681 380.511235 
L 186.713884 379.953993 
L 187.060985 379.919369 
L 187.755315 380.301107 
L 188.796619 381.027819 
L 190.532126 381.802414 
L 190.879227 381.732287 
L 191.226329 381.401151 
L 191.920531 380.027705 
L 192.614734 378.778355 
L 192.961835 378.653232 
L 193.308937 378.919695 
L 194.697342 381.041091 
L 195.04457 386.26902685E-01415 
L 195.738773 381.10365 
L 196.432976 380.785749 
L 197.127179 380.204641 
L 198.862685 378.14041 
L 200.945294 376.634227 
L 201.292395 376.52551 
L 201.639496 376.603525 
L 201.986598 376.892276 
L 202.680927 377.922058 
L 203.722231 379.530882 
L 204.416434 380.309885 
L 205.110637 380.84904 
L 205.80484 381.134692 
L 206.499042 381.112169 
L 208.58165 380.484864 
L 208.928752 380.036003 
L 210.664385 377.030683 
L 211.011487 376.951358 
L 211.358588 377.114025 
L 211.70569 377.489806 
L 212.399892 378.739467 
L 213.441196 380.873146 
L 213.788298 381.262104 
L 214.135399 381.377741 
L 214.4825 381.247694 
L 215.870906 380.163778 
L 216.565235 379.762677 
L 217.60654 378.983447 
L 217.953641 378.975797 
L 218.300742 379.233283 
L 219.689148 381.093372 
L 220.036249 381.017275 
L 220.38335 380.615668 
L 221.424655 378.908812 
L 221.771756 378.756193 
L 222.118857 378.981637 
L 222.465959 379.567821 
L 223.160161 381.450248 
L 223.854491 383.378797 
L 224.201592 384.023365 
L 224.548694 384.338024 
L 224.895795 384.308208 
L 225.242896 383.978403 
L 225.937099 382.780046 
L 226.978403 380.907455 
L 227.672606 380.211587 
L 228.019707 380.171192 
L 228.366809 380.395616 
L 229.061011 381.523882 
L 229.755214 382.747966 
L 230.102315 383.069073 
L 230.449417 383.13819 
L 230.796518 383.001733 
L 233.920557 380.594978 
L 235.308963 378.389201 
L 235.656064 378.152188 
L 236.003165 378.163318 
L 236.350267 378.395897 
L 237.738672 379.951677 
L 238.085774 380.101558 
L 238.433002 380.071879 
L 239.127205 379.60373 
L 239.821407 379.137961 
L 240.168509 379.112151 
L 240.515585 379.267728 
L 241.2098 379.998519 
L 241.904015 380.687017 
L 242.251129 380.699852 
L 242.598231 380.380756 
L 243.292446 379.015847 
L 243.986662 377.798361 
L 244.333763 377.542106 
L 245.722194 377.25625 
L 247.110625 375.832392 
L 247.457739 375.906371 
L 247.80484 376.308943 
L 248.499055 377.879302 
L 249.887486 381.881951 
L 250.928803 385.731438 
L 252.317239 390.898646 
L 253.011454 392.540216 
L 253.358561 392.758125 
L 253.705669 392.47061 
L 254.052776 391.708416 
L 254.746994 389.246753 
L 257.176742 379.658577 
L 257.870957 378.085718 
L 258.218071 377.704904 
L 258.565173 377.528546 
L 258.912287 377.516919 
L 259.259388 377.669538 
L 259.606489 378.008063 
L 260.300705 379.197853 
L 262.03625 382.606316 
L 262.730465 383.535449 
L 263.077566 383.642504 
L 263.42468 383.43549 
L 264.118896 382.340466 
L 264.813111 381.1885 
L 265.854428 380.109221 
L 266.895694 379.141147 
L 267.242922 379.032338 
L 267.590024 379.109499 
L 268.978429 379.939414 
L 269.672632 380.071823 
L 270.366835 380.492228 
L 271.061037 380.868406 
L 271.408139 380.766179 
L 272.102341 380.003192 
L 272.449443 379.604203 
L 272.796544 379.391366 
L 273.143645 379.448314 
L 273.490747 379.781927 
L 275.22638 382.341501 
L 275.573482 382.26205 
L 275.920583 381.898081 
L 277.308989 379.699992 
L 277.65609 379.420378 
L 278.003191 379.298064 
L 278.350293 379.332707 
L 278.697394 379.538418 
L 279.391597 380.483044 
L 280.432901 382.19781 
L 280.780002 382.397116 
L 281.127104 382.315676 
L 281.821433 381.570106 
L 282.515636 380.798378 
L 283.209839 380.52747 
L 284.251143 380.390388 
L 286.333751 379.475514 
L 287.027954 378.422044 
L 287.722156 377.309482 
L 288.069258 377.130555 
L 288.416359 377.277121 
L 289.110689 378.171888 
L 291.8875 382.274891 
L 292.234601 382.313807 
L 293.275905 381.885611 
L 294.317209 382.123862 
L 294.66431 381.752812 
L 295.011412 380.949102 
L 296.052716 377.64838 
L 296.399944 377.008227 
L 296.747045 376.772228 
L 297.094147 376.892589 
L 297.78835 377.818008 
L 299.176755 380.099102 
L 299.523856 380.405742 
L 299.870958 380.53953 
L 300.912262 380.52923 
L 301.259363 380.700697 
L 302.647769 381.892775 
L 303.341971 381.869677 
L 304.383402 381.471177 
L 304.730504 381.183986 
L 305.424706 380.089055 
L 306.118909 378.868754 
L 306.46601 378.60826 
L 306.813112 378.691158 
L 307.507315 379.540514 
L 308.201517 380.371098 
L 309.589923 381.615201 
L 310.978455 383.168197 
L 311.672658 383.602008 
L 312.019759 383.624016 
L 312.36686 383.459216 
L 312.713962 383.091785 
L 313.408165 381.845438 
L 314.449469 379.843476 
L 314.79657 379.577543 
L 315.143671 379.625146 
L 315.837874 380.344969 
L 316.184975 380.702049 
L 316.532077 380.877127 
L 316.879178 380.842177 
L 317.920482 380.324235 
L 318.26771 380.330058 
L 318.961913 380.733692 
L 319.656116 381.256361 
L 320.003217 381.35506 
L 320.350319 381.264409 
L 320.69742 380.971779 
L 321.391623 379.884044 
L 323.12713 376.551351 
L 323.821332 376.020141 
L 325.556966 375.173782 
L 326.251169 374.628143 
L 326.59827 374.156501 
L 327.292473 372.601812 
L 328.333777 369.559489 
L 328.680878 369.011848 
L 329.02798 368.963181 
L 329.375081 369.403901 
L 330.069284 371.184598 
L 331.80479 376.633962 
L 332.151892 377.088621 
L 332.49912 376.864659 
L 332.846221 375.9353 
L 333.540424 372.676549 
L 335.275931 363.769907 
L 335.623032 362.655001 
L 335.970134 362.191643 
L 336.317235 362.400886 
L 337.358539 364.47571 
L 337.70564 364.755828 
L 338.052742 364.75074 
L 338.746945 364.35027 
L 339.441147 363.630321 
L 340.82968 361.355611 
L 341.176781 361.110705 
L 341.870984 361.07862 
L 342.912288 361.30597 
L 343.259389 361.533365 
L 344.300693 362.67492 
L 344.647795 362.796209 
L 344.994896 362.613463 
L 346.0362 361.326437 
L 346.383301 361.254372 
L 346.730403 361.501749 
L 347.424732 362.631558 
L 349.854442 367.423964 
L 350.548645 367.987097 
L 351.589949 368.657076 
L 351.93705 368.740697 
L 352.284151 368.625308 
L 352.978354 367.874657 
L 353.672557 366.86409 
L 354.366886 365.36212 
L 355.40819 362.065469 
L 355.755292 361.530674 
L 356.102393 361.582802 
L 356.796596 362.616161 
L 357.143697 362.815668 
L 357.490799 362.438106 
L 358.185001 360.406113 
L 358.879204 358.616176 
L 359.226305 358.183707 
L 359.573407 357.97122 
L 359.920508 357.8929 
L 360.26761 357.943726 
L 360.614711 358.169075 
L 361.656142 359.413943 
L 362.003243 359.517338 
L 363.044547 359.195575 
L 363.391649 359.5659 
L 364.085851 360.65 
L 364.432953 360.59604 
L 364.780054 359.789213 
L 366.16846 354.2495 
L 366.515561 353.742075 
L 367.903966 352.76002 
L 368.251068 352.917224 
L 368.598296 353.446462 
L 369.6396 355.588215 
L 370.333803 356.832192 
L 370.680904 357.953081 
L 371.722208 362.749508 
L 372.06931 363.57163 
L 372.416411 363.605322 
L 372.763512 363.032463 
L 373.804816 360.759902 
L 374.499019 359.217074 
L 375.540323 356.180732 
L 375.887551 355.888088 
L 376.234653 356.167835 
L 377.275957 357.861585 
L 377.623058 357.920035 
L 378.317261 357.463895 
L 378.664362 357.151645 
L 379.011464 356.662962 
L 379.358565 355.751524 
L 379.705666 354.249697 
L 380.747605 348.403022 
L 381.093818 347.374965 
L 381.4413 347.006294 
L 381.788782 346.903767 
L 382.134995 346.583485 
L 382.482477 345.784613 
L 383.176173 343.50232 
L 383.523655 342.784161 
L 383.871136 342.551828 
L 384.218618 342.535261 
L 384.564832 342.310674 
L 384.912314 341.605379 
L 385.606009 339.383175 
L 385.953491 338.692844 
L 386.300973 338.614614 
L 386.994668 339.334172 
L 387.34215 339.426173 
L 388.035845 339.256855 
L 388.383327 339.733755 
L 389.424505 342.880218 
L 389.771986 342.966361 
L 390.119468 342.330445 
L 390.465682 341.44408 
L 390.813164 340.869638 
L 391.160645 340.885391 
L 391.854341 341.724058 
L 392.201823 341.671092 
L 392.548036 341.078994 
L 393.243 339.519459 
L 393.590482 339.220648 
L 394.631659 339.242236 
L 395.325355 338.613704 
L 395.672836 338.708769 
L 396.020318 339.341012 
L 396.714014 341.204613 
L 397.061495 341.600802 
L 397.407709 341.420087 
L 397.755191 340.956611 
L 398.102673 340.696907 
L 398.448886 341.011841 
L 399.14385 343.169621 
L 399.837545 345.06578 
L 400.185027 345.391761 
L 400.532509 345.383541 
L 400.878723 345.104647 
L 401.226205 344.463582 
L 401.573686 343.266801 
L 402.267382 339.102196 
L 402.962345 335.175434 
L 403.308559 334.545265 
L 403.656041 334.876772 
L 404.349736 336.365151 
L 404.697218 336.449495 
L 405.0447 335.911488 
L 405.738395 334.436923 
L 406.085877 334.219782 
L 407.127055 334.636936 
L 407.474536 334.50618 
L 407.82075 334.500979 
L 408.168232 334.988565 
L 408.515714 336.113613 
L 409.209409 339.11967 
L 409.556891 340.080986 
L 409.904373 340.444964 
L 410.250586 340.535935 
L 410.598068 340.869745 
L 410.94555 341.755013 
L 411.639245 344.027114 
L 411.986727 344.115404 
L 412.334209 343.011859 
L 413.375386 337.566143 
L 414.416564 335.065836 
L 415.110259 330.611404 
L 415.457741 328.389882 
L 415.805223 327.227979 
L 416.151436 327.350256 
L 416.8464 329.066126 
L 417.193882 329.0616 
L 417.540095 328.164212 
L 418.235059 326.065662 
L 418.581273 326.038031 
L 419.276236 327.311365 
L 419.62245 327.389765 
L 419.969932 326.716349 
L 420.664895 324.669048 
L 421.011109 324.207569 
L 421.706073 324.007394 
L 422.052286 323.347856 
L 423.094732 319.713127 
L 423.440945 319.886759 
L 423.788427 321.234554 
L 424.482123 325.180109 
L 424.829605 326.310397 
L 425.177086 326.457879 
L 426.218264 325.043668 
L 426.911959 325.151385 
L 427.259441 324.813221 
L 427.953136 323.134273 
L 428.300618 322.800801 
L 428.6481 323.457724 
L 429.689277 328.42732 
L 430.036759 329.124186 
L 430.382973 329.139086 
L 430.730455 328.943757 
L 430.730455 328.943757 
" style="fill:none;stroke:#ff0000;stroke-linecap:square;stroke-width:1.5;"/>
   </g>
   <g id="patch_3">
    <path d="M 57.885 410.398125 
L 57.885 22.318125 
" style="fill:none;stroke:#000000;stroke-linecap:square;stroke-linejoin:miter;stroke-width:0.8;"/>
   </g>
   <g id="patch_4">
    <path d="M 448.485 410.398125 
L 448.485 22.318125 
" style="fill:none;stroke:#000000;stroke-linecap:square;stroke-linejoin:miter;stroke-width:0.8;"/>
   </g>
   <g id="patch_5">
    <path d="M 57.885 410.398125 
L 448.485 410.398125 
" style="fill:none;stroke:#000000;stroke-linecap:square;stroke-linejoin:miter;stroke-width:0.8;"/>
   </g>
   <g id="patch_6">
    <path d="M 57.885 22.318125 
L 448.485 22.318125 
" style="fill:none;stroke:#000000;stroke-linecap:square;stroke-linejoin:miter;stroke-width:0.8;"/>
   </g>
   <g id="text_18">
    <!--   -->
    <g transform="translate(251.278125 16.318125)scale(0.12 -0.12)">
     <use xlink:href="#DejaVuSans-32"/>
    </g>
   </g>
   <g id="legend_1">
    <g id="patch_7">
     <path d="M 349.885 44.99625 
L 441.485 44.99625 
Q 443.485 44.99625 443.485 42.99625 
L 443.485 29.318125 
Q 443.485 27.318125 441.485 27.318125 
L 349.885 27.318125 
Q 347.885 27.318125 347.885 29.318125 
L 347.885 42.99625 
Q 347.885 44.99625 349.885 44.99625 
z
" style="fill:#ffffff;opacity:0.8;stroke:#cccccc;stroke-linejoin:miter;"/>
    </g>
    <g id="line2d_17">
     <path d="M 351.885 35.416562 
L 371.885 35.416562 
" style="fill:none;stroke:#ff0000;stroke-linecap:square;stroke-width:1.5;"/>
    </g>
    <g id="line2d_18"/>
    <g id="text_19">
     <!-- $dI/dV$ ($a.u.$) -->
     <g transform="translate(379.885 38.916562)scale(0.1 -0.1)">
      <use transform="translate(0 0.015625)" xlink:href="#DejaVuSans-Oblique-100"/>
      <use transform="translate(63.476562 0.015625)" xlink:href="#DejaVuSans-Oblique-73"/>
      <use transform="translate(92.96875 0.015625)" xlink:href="#DejaVuSans-47"/>
      <use transform="translate(126.660156 0.015625)" xlink:href="#DejaVuSans-Oblique-100"/>
      <use transform="translate(190.136719 0.015625)" xlink:href="#DejaVuSans-Oblique-86"/>
      <use transform="translate(258.544922 0.015625)" xlink:href="#DejaVuSans-32"/>
      <use transform="translate(290.332031 0.015625)" xlink:href="#DejaVuSans-40"/>
      <use transform="translate(329.345703 0.015625)" xlink:href="#DejaVuSans-Oblique-97"/>
      <use transform="translate(390.625 0.015625)" xlink:href="#DejaVuSans-46"/>
      <use transform="translate(441.894531 0.015625)" xlink:href="#DejaVuSans-Oblique-117"/>
      <use transform="translate(505.273438 0.015625)" xlink:href="#DejaVuSans-46"/>
      <use transform="translate(556.542969 0.015625)" xlink:href="#DejaVuSans-41"/>
     </g>
    </g>
   </g>
  </g>
  <g id="axes_2">
   <g id="patch_8">
    <path d="M 196.485 264.238125 
L 408.165 264.238125 
L 408.165 72.718125 
L 196.485 72.718125 
z
" style="fill:none;"/>
   </g>
   <g id="matplotlib.axis_3">
    <g id="xtick_8">
     <g id="line2d_19">
      <g>
       <use style="stroke:#000000;stroke-width:0.8;" x="206.106818" xlink:href="#m033a15a18f" y="264.238125"/>
      </g>
     </g>
     <g id="text_20">
      <!-- −1.0 -->
      <g transform="translate(189.108849 281.875937)scale(0.14 -0.14)">
       <use xlink:href="#DejaVuSans-8722"/>
       <use x="83.789062" xlink:href="#DejaVuSans-49"/>
       <use x="147.412109" xlink:href="#DejaVuSans-46"/>
       <use x="179.199219" xlink:href="#DejaVuSans-48"/>
      </g>
     </g>
    </g>
    <g id="xtick_9">
     <g id="line2d_20">
      <g>
       <use style="stroke:#000000;stroke-width:0.8;" x="254.215909" xlink:href="#m033a15a18f" y="264.238125"/>
      </g>
     </g>
     <g id="text_21">
      <!-- −0.5 -->
      <g transform="translate(237.21794 281.875937)scale(0.14 -0.14)">
       <use xlink:href="#DejaVuSans-8722"/>
       <use x="83.789062" xlink:href="#DejaVuSans-48"/>
       <use x="147.412109" xlink:href="#DejaVuSans-46"/>
       <use x="179.199219" xlink:href="#DejaVuSans-53"/>
      </g>
     </g>
    </g>
    <g id="xtick_10">
     <g id="line2d_21">
      <g>
       <use style="stroke:#000000;stroke-width:0.8;" x="302.325" xlink:href="#m033a15a18f" y="264.238125"/>
      </g>
     </g>
     <g id="text_22">
      <!-- 0.0 -->
      <g transform="translate(291.192813 281.875937)scale(0.14 -0.14)">
       <use xlink:href="#DejaVuSans-48"/>
       <use x="63.623047" xlink:href="#DejaVuSans-46"/>
       <use x="95.410156" xlink:href="#DejaVuSans-48"/>
      </g>
     </g>
    </g>
    <g id="xtick_11">
     <g id="line2d_22">
      <g>
       <use style="stroke:#000000;stroke-width:0.8;" x="350.434091" xlink:href="#m033a15a18f" y="264.238125"/>
      </g>
     </g>
     <g id="text_23">
      <!-- 0.5 -->
      <g transform="translate(339.301903 281.875937)scale(0.14 -0.14)">
       <use xlink:href="#DejaVuSans-48"/>
       <use x="63.623047" xlink:href="#DejaVuSans-46"/>
       <use x="95.410156" xlink:href="#DejaVuSans-53"/>
      </g>
     </g>
    </g>
    <g id="xtick_12">
     <g id="line2d_23">
      <g>
       <use style="stroke:#000000;stroke-width:0.8;" x="398.543182" xlink:href="#m033a15a18f" y="264.238125"/>
      </g>
     </g>
     <g id="text_24">
      <!-- 1.0 -->
      <g transform="translate(387.410994 281.875937)scale(0.14 -0.14)">
       <use xlink:href="#DejaVuSans-49"/>
       <use x="63.623047" xlink:href="#DejaVuSans-46"/>
       <use x="95.410156" xlink:href="#DejaVuSans-48"/>
      </g>
     </g>
    </g>
    <g id="text_25">
     <!-- Sample bias (V) -->
     <g transform="translate(231.260156 302.464687)scale(0.18 -0.18)">
      <use xlink:href="#DejaVuSans-83"/>
      <use x="63.476562" xlink:href="#DejaVuSans-97"/>
      <use x="124.755859" xlink:href="#DejaVuSans-109"/>
      <use x="222.167969" xlink:href="#DejaVuSans-112"/>
      <use x="285.644531" xlink:href="#DejaVuSans-108"/>
      <use x="313.427734" xlink:href="#DejaVuSans-101"/>
      <use x="374.951172" xlink:href="#DejaVuSans-32"/>
      <use x="406.738281" xlink:href="#DejaVuSans-98"/>
      <use x="470.214844" xlink:href="#DejaVuSans-105"/>
      <use x="497.998047" xlink:href="#DejaVuSans-97"/>
      <use x="559.277344" xlink:href="#DejaVuSans-115"/>
      <use x="611.376953" xlink:href="#DejaVuSans-32"/>
      <use x="643.164062" xlink:href="#DejaVuSans-40"/>
      <use x="682.177734" xlink:href="#DejaVuSans-86"/>
      <use x="750.585938" xlink:href="#DejaVuSans-41"/>
     </g>
    </g>
   </g>
   <g id="matplotlib.axis_4">
    <g id="ytick_9">
     <g id="line2d_24">
      <g>
       <use style="stroke:#000000;stroke-width:0.8;" x="196.485" xlink:href="#m9c60d58e85" y="259.194591"/>
      </g>
     </g>
     <g id="text_26">
      <!-- 0.0 -->
      <g transform="translate(167.220625 264.513497)scale(0.14 -0.14)">
       <use xlink:href="#DejaVuSans-48"/>
       <use x="63.623047" xlink:href="#DejaVuSans-46"/>
       <use x="95.410156" xlink:href="#DejaVuSans-48"/>
      </g>
     </g>
    </g>
    <g id="ytick_10">
     <g id="line2d_25">
      <g>
       <use style="stroke:#000000;stroke-width:0.8;" x="196.485" xlink:href="#m9c60d58e85" y="213.71961"/>
      </g>
     </g>
     <g id="text_27">
      <!-- 0.2 -->
      <g transform="translate(167.220625 219.038516)scale(0.14 -0.14)">
       <use xlink:href="#DejaVuSans-48"/>
       <use x="63.623047" xlink:href="#DejaVuSans-46"/>
       <use x="95.410156" xlink:href="#DejaVuSans-50"/>
      </g>
     </g>
    </g>
    <g id="ytick_11">
     <g id="line2d_26">
      <g>
       <use style="stroke:#000000;stroke-width:0.8;" x="196.485" xlink:href="#m9c60d58e85" y="168.24463"/>
      </g>
     </g>
     <g id="text_28">
      <!-- 0.4 -->
      <g transform="translate(167.220625 173.563536)scale(0.14 -0.14)">
       <use xlink:href="#DejaVuSans-48"/>
       <use x="63.623047" xlink:href="#DejaVuSans-46"/>
       <use x="95.410156" xlink:href="#DejaVuSans-52"/>
      </g>
     </g>
    </g>
    <g id="ytick_12">
     <g id="line2d_27">
      <g>
       <use style="stroke:#000000;stroke-width:0.8;" x="196.485" xlink:href="#m9c60d58e85" y="122.769649"/>
      </g>
     </g>
     <g id="text_29">
      <!-- 0.6 -->
      <g transform="translate(167.220625 128.088556)scale(0.14 -0.14)">
       <use xlink:href="#DejaVuSans-48"/>
       <use x="63.623047" xlink:href="#DejaVuSans-46"/>
       <use x="95.410156" xlink:href="#DejaVuSans-54"/>
      </g>
     </g>
    </g>
    <g id="ytick_13">
     <g id="line2d_28">
      <g>
       <use style="stroke:#000000;stroke-width:0.8;" x="196.485" xlink:href="#m9c60d58e85" y="77.294669"/>
      </g>
     </g>
     <g id="text_30">
      <!-- 0.8 -->
      <g transform="translate(167.220625 82.613575)scale(0.14 -0.14)">
       <defs>
        <path d="M 31.78125 34.625 
Q 24.75 34.625 20.71875 30.859375 
Q 16.703125 27.09375 16.703125 20.515625 
Q 16.703125 13.921875 20.71875 10.15625 
Q 24.75 6.390625 31.78125 6.390625 
Q 38.8125 6.390625 42.859375 10.171875 
Q 46.921875 13.96875 46.921875 20.515625 
Q 46.921875 27.09375 42.890625 30.859375 
Q 38.875 34.625 31.78125 34.625 
z
M 21.921875 38.8125 
Q 15.578125 40.375 12.03125 44.71875 
Q 8.5 49.078125 8.5 55.328125 
Q 8.5 64.0625 14.71875 69.140625 
Q 20.953125 74.21875 31.78125 74.21875 
Q 42.671875 74.21875 48.875 69.140625 
Q 55.078125 64.0625 55.078125 55.328125 
Q 55.078125 49.078125 51.53125 44.71875 
Q 48 40.375 41.703125 38.8125 
Q 48.828125 37.15625 52.796875 32.3125 
Q 56.78125 27.484375 56.78125 20.515625 
Q 56.78125 9.90625 50.3125 4.234375 
Q 43.84375 -1.421875 31.78125 -1.421875 
Q 19.734375 -1.421875 13.25 4.234375 
Q 6.78125 9.90625 6.78125 20.515625 
Q 6.78125 27.484375 10.78125 32.3125 
Q 14.796875 37.15625 21.921875 38.8125 
z
M 18.3125 54.390625 
Q 18.3125 48.734375 21.84375 45.5625 
Q 25.390625 42.390625 31.78125 42.390625 
Q 38.140625 42.390625 41.71875 45.5625 
Q 45.3125 48.734375 45.3125 54.390625 
Q 45.3125 60.0625 41.71875 63.234375 
Q 38.140625 66.40625 31.78125 66.40625 
Q 25.390625 66.40625 21.84375 63.234375 
Q 18.3125 60.0625 18.3125 54.390625 
z
" id="DejaVuSans-56"/>
       </defs>
       <use xlink:href="#DejaVuSans-48"/>
       <use x="63.623047" xlink:href="#DejaVuSans-46"/>
       <use x="95.410156" xlink:href="#DejaVuSans-56"/>
      </g>
     </g>
    </g>
    <g id="text_31">
     <!-- $dI/dV$ ($a.u.$) -->
     <g transform="translate(159.477188 222.118125)rotate(-90)scale(0.18 -0.18)">
      <use transform="translate(0 0.015625)" xlink:href="#DejaVuSans-Oblique-100"/>
      <use transform="translate(63.476562 0.015625)" xlink:href="#DejaVuSans-Oblique-73"/>
      <use transform="translate(92.96875 0.015625)" xlink:href="#DejaVuSans-47"/>
      <use transform="translate(126.660156 0.015625)" xlink:href="#DejaVuSans-Oblique-100"/>
      <use transform="translate(190.136719 0.015625)" xlink:href="#DejaVuSans-Oblique-86"/>
      <use transform="translate(258.544922 0.015625)" xlink:href="#DejaVuSans-32"/>
      <use transform="translate(290.332031 0.015625)" xlink:href="#DejaVuSans-40"/>
      <use transform="translate(329.345703 0.015625)" xlink:href="#DejaVuSans-Oblique-97"/>
      <use transform="translate(390.625 0.015625)" xlink:href="#DejaVuSans-46"/>
      <use transform="translate(441.894531 0.015625)" xlink:href="#DejaVuSans-Oblique-117"/>
      <use transform="translate(505.273438 0.015625)" xlink:href="#DejaVuSans-46"/>
      <use transform="translate(556.542969 0.015625)" xlink:href="#DejaVuSans-41"/>
     </g>
    </g>
   </g>
   <g id="line2d_29">
    <path clip-path="url(#p4460bf1af4)" d="M 206.106818 199.076116 
L 207.047351 197.752966 
L 207.799777 196.535416 
L 208.17599 196.348449 
L 208.364193 195.826908 
L 208.740406 193.453522 
L 209.116619 191.011868 
L 209.304726 190.552052 
L 209.492832 190.720835 
L 209.869045 192.201691 
L 210.997685 197.671499 
L 211.373898 199.892114 
L 211.562004 200.442294 
L 211.750111 200.571448 
L 212.31443 200.250671 
L 212.690643 200.711151 
L 213.066857 201.13494 
L 213.254963 201.085589 
L 213.819379 200.519689 
L 214.195592 200.579648 
L 214.759912 200.81855 
L 214.948018 200.780913 
L 215.136125 200.572282 
L 215.324231 200.070069 
L 215.700444 198.086137 
L 216.076658 196.009511 
L 216.264764 195.567659 
L 216.452871 195.661419 
L 216.829084 197.060853 
L 217.393403 199.65497 
L 217.769616 200.525198 
L 218.333936 201.576614 
L 218.710149 202.363854 
L 218.898256 202.461809 
L 219.086362 202.260854 
L 219.462672 201.178757 
L 220.026991 198.679854 
L 221.15563 192.062372 
L 221.343737 192.204076 
L 221.908057 193.476759 
L 222.096163 193.526324 
L 222.28427 193.30158 
L 222.660483 192.308494 
L 223.601016 189.462267 
L 223.789122 189.355661 
L 223.977229 189.489603 
L 224.541548 190.293145 
L 224.729751 190.2883 
L 225.105964 189.707668 
L 225.670284 188.133488 
L 226.610817 185.043067 
L 227.363243 184.027755 
L 227.927562 182.506329 
L 228.303775 180.861509 
L 228.679989 178.037973 
L 229.996734 165.46457 
L 230.373044 164.218299 
L 231.12547 162.798485 
L 231.877896 160.767816 
L 232.254109 160.475328 
L 232.442216 160.030079 
L 232.630322 159.016856 
L 233.006535 154.852083 
L 234.135175 139.232642 
L 235.075707 128.727947 
L 235.640027 125.778092 
L 236.016336 123.606303 
L 237.144975 115.370953 
L 237.333082 114.92973 
L 237.521189 114.89096 
L 238.085508 115.445174 
L 238.273615 115.003206 
L 239.026041 111.552259 
L 239.214147 111.897068 
L 239.590361 114.378965 
L 241.847735 135.024053 
L 242.788268 145.285721 
L 243.164481 148.481026 
L 243.540694 154.210753 
L 244.29312 168.261928 
L 245.045547 176.48008 
L 246.738506 205.549912 
L 247.491028 215.685093 
L 248.99588 232.2832 
L 249.5602 235.736343 
L 250.312626 238.485394 
L 251.065052 241.576989 
L 252.005585 245.331161 
L 252.570001 246.675877 
L 254.074853 248.983434 
L 254.451066 249.01582 
L 254.827279 249.002241 
L 255.203493 249.338386 
L 255.767812 250.050935 
L 256.520238 250.780552 
L 257.460771 252.112295 
L 258.213293 252.560024 
L 258.589507 252.504169 
L 258.96572 252.008439 
L 259.530039 251.083071 
L 259.718146 250.988655 
L 260.094359 251.197831 
L 260.658679 251.653773 
L 261.034892 251.538645 
L 261.411105 251.07046 
L 262.163531 249.878463 
L 262.351637 249.833463 
L 262.727851 250.190827 
L 263.29217 250.871019 
L 263.668479 250.870231 
L 265.173332 250.170572 
L 265.549545 250.229586 
L 266.678184 250.862629 
L 267.242504 250.773154 
L 267.806823 251.184284 
L 268.183037 251.359358 
L 268.747356 251.462744 
L 269.123666 251.907746 
L 269.687985 252.672411 
L 270.064198 252.699764 
L 270.816624 252.423326 
L 271.192838 252.521776 
L 271.945264 252.93339 
L 272.321477 252.776996 
L 272.69769 252.210506 
L 273.450116 250.805721 
L 273.638223 250.698476 
L 274.014436 250.881641 
L 274.390649 251.195854 
L 274.766958 256.26902685E-01957 
L 275.331278 250.724711 
L 275.895597 250.217173 
L 276.27181 250.19497 
L 276.648024 250.683236 
L 277.588556 252.674861 
L 277.776663 252.814043 
L 277.964769 252.790325 
L 278.340982 252.368486 
L 278.717196 251.897106 
L 279.093409 251.744669 
L 280.034038 251.715266 
L 281.162677 251.450059 
L 282.10321 251.956571 
L 282.479423 251.499282 
L 283.043742 250.582947 
L 283.419955 250.334733 
L 283.984275 250.286468 
L 284.548595 250.46884 
L 285.112914 251.019766 
L 285.67733 251.592704 
L 285.865437 251.593764 
L 286.24165 251.274949 
L 286.805969 250.744378 
L 287.182183 250.690903 
L 287.558396 250.825549 
L 288.687035 251.465186 
L 289.063248 251.180581 
L 289.627568 250.589036 
L 290.003781 250.470088 
L 290.944313 250.502738 
L 291.508729 250.404614 
L 291.884942 250.683304 
L 293.201679 252.409032 
L 293.577901 252.191992 
L 294.142231 251.765446 
L 295.647112 251.739459 
L 296.023325 252.177532 
L 296.77577 253.31375 
L 297.151983 253.445861 
L 297.528206 253.131442 
L 298.468758 251.683375 
L 299.221194 250.361223 
L 299.4093 250.22959 
L 299.597417 250.298904 
L 299.785523 250.607465 
L 300.161746 251.883503 
L 300.914182 254.900262 
L 301.290404 255.486005 
L 301.666621 255.480767 
L 302.230951 255.029729 
L 303.1715 254.079363 
L 303.547721 253.813437 
L 303.923935 253.009726 
L 304.67638 250.469444 
L 304.864486 250.277155 
L 305.052603 250.344568 
L 305.805038 251.336462 
L 305.993145 251.363246 
L 306.369368 251.050347 
L 307.498026 249.542092 
L 307.874249 249.585479 
L 308.250462 249.890632 
L 309.379121 251.145302 
L 309.567237 251.151361 
L 309.94345 250.831779 
L 310.507779 250.086899 
L 310.884002 249.938121 
L 312.953164 250.33687 
L 313.893793 250.731752 
L 314.458113 250.8771 
L 314.834326 251.174413 
L 315.962965 252.368992 
L 316.339178 252.535447 
L 316.715391 252.470729 
L 317.091604 252.07552 
L 317.655924 251.426523 
L 317.844031 251.400069 
L 318.220244 251.691538 
L 318.784659 252.336629 
L 319.160873 252.422411 
L 319.725192 252.086469 
L 321.041938 250.98159 
L 321.418151 250.712723 
L 321.606258 250.696697 
L 321.794364 250.8071 
L 322.170577 251.414943 
L 322.923003 252.973634 
L 323.299217 253.231934 
L 323.487323 253.153054 
L 324.051739 252.398323 
L 324.427952 251.999669 
L 325.744698 251.437855 
L 326.685231 251.367408 
L 327.81387 250.19404 
L 328.754403 250.150979 
L 329.130616 250.240828 
L 329.883138 250.588053 
L 330.447458 250.769319 
L 331.764204 251.852673 
L 332.328523 252.096536 
L 332.51663 252.002903 
L 332.892843 251.424716 
L 333.457162 250.319797 
L 333.833376 250.077275 
L 334.773908 250.140246 
L 335.526431 249.727208 
L 335.902644 249.799229 
L 336.466963 250.261182 
L 337.407496 251.090386 
L 337.971816 251.31897 
L 338.912349 251.296125 
L 339.288562 251.067164 
L 339.664775 250.449972 
L 340.229094 249.353072 
L 340.605404 249.091588 
L 340.79351 249.188682 
L 341.169723 249.800612 
L 341.922149 251.26833 
L 342.298363 251.396058 
L 343.238895 251.030496 
L 343.803215 250.943257 
L 344.931854 250.472569 
L 345.496174 250.364487 
L 346.436803 249.752636 
L 347.001122 249.108091 
L 347.753549 248.140827 
L 348.129762 248.008508 
L 348.694081 247.921277 
L 349.070294 247.564901 
L 349.446507 246.62184 
L 351.515679 238.474251 
L 352.080095 236.013581 
L 354.52548 228.432184 
L 355.0898 226.063083 
L 355.65412 221.985756 
L 356.594652 214.819367 
L 357.723388 208.291825 
L 358.852027 202.928395 
L 359.416347 199.403439 
L 360.168773 193.579886 
L 360.35688 193.058133 
L 360.544986 193.015994 
L 360.733093 193.163462 
L 360.921199 193.136704 
L 361.109306 192.676358 
L 362.049838 188.112785 
L 362.426052 187.446581 
L 362.802265 186.021844 
L 363.366681 183.594938 
L 363.742894 182.317143 
L 364.119107 180.018998 
L 364.683426 176.454077 
L 364.871533 176.268128 
L 365.247746 177.113605 
L 365.623959 177.689633 
L 366.000172 177.682001 
L 366.188279 177.901852 
L 366.564492 178.681162 
L 366.752598 178.739752 
L 366.940705 178.339021 
L 367.505025 176.154364 
L 367.881238 175.769386 
L 368.069344 175.526778 
L 368.445653 173.955024 
L 368.821867 172.12067 
L 369.009973 171.86588 
L 369.19808 172.108882 
L 369.574293 172.864324 
L 369.762399 172.791947 
L 370.138612 172.117057 
L 370.326719 172.261804 
L 370.702932 174.322575 
L 371.079145 176.292743 
L 371.267252 176.192474 
L 371.831571 173.90139 
L 372.019678 173.901147 
L 372.395891 174.740815 
L 372.583997 174.71701 
L 372.960211 173.18406 
L 373.336424 171.770615 
L 373.900839 171.286794 
L 374.465159 169.256207 
L 374.653266 169.274987 
L 375.029479 171.14077 
L 375.405692 172.719371 
L 375.593798 172.592117 
L 375.970011 171.74212 
L 376.158118 171.936304 
L 376.534331 173.956411 
L 376.910544 175.67933 
L 377.098651 175.780914 
L 377.474864 175.436474 
L 377.66297 175.564234 
L 378.039183 176.088689 
L 378.22729 175.759277 
L 378.603503 173.169825 
L 378.979716 170.302385 
L 379.167823 169.674162 
L 379.544132 169.323765 
L 379.732239 168.739608 
L 380.108452 165.871889 
L 381.425198 152.479813 
L 381.989517 143.682738 
L 382.177624 142.177346 
L 382.36573 141.568293 
L 382.553837 141.549723 
L 383.306263 142.472602 
L 383.682476 143.538175 
L 383.870583 143.568341 
L 384.058689 142.751045 
L 384.811212 136.284295 
L 384.999318 136.131786 
L 385.187425 136.319731 
L 385.375531 136.086294 
L 385.563638 134.804165 
L 385.939851 129.063875 
L 386.50417 120.374587 
L 386.880384 114.974554 
L 387.444703 104.524205 
L 387.63281 103.462373 
L 387.820916 104.500803 
L 388.385236 110.894002 
L 388.573342 110.655018 
L 389.137662 105.984133 
L 389.325769 105.573746 
L 389.513875 105.672517 
L 389.701982 105.543617 
L 389.890088 104.624451 
L 391.20693 92.445051 
L 391.583143 86.934472 
L 391.77125 86.030987 
L 391.959357 87.310241 
L 392.523676 96.303926 
L 392.711783 96.792255 
L 392.899889 95.364383 
L 393.276102 90.766277 
L 393.464209 89.595721 
L 393.652315 89.428724 
L 393.840422 89.609645 
L 394.028529 89.394598 
L 394.592848 86.518409 
L 394.780955 86.523775 
L 395.157168 87.616606 
L 395.345274 87.184979 
L 396.097797 81.42358 
L 396.285903 82.675607 
L 396.662116 86.750893 
L 396.850223 87.487626 
L 397.038329 86.886745 
L 397.414543 84.881558 
L 397.602649 85.445588 
L 397.978862 90.42017 
L 398.355075 95.665683 
L 398.543182 96.859709 
L 398.543182 96.859709 
" style="fill:none;stroke:#0000ff;stroke-linecap:square;stroke-width:1.5;"/>
   </g>
   <g id="patch_9">
    <path d="M 196.485 264.238125 
L 196.485 72.718125 
" style="fill:none;stroke:#000000;stroke-linecap:square;stroke-linejoin:miter;stroke-width:0.8;"/>
   </g>
   <g id="patch_10">
    <path d="M 408.165 264.238125 
L 408.165 72.718125 
" style="fill:none;stroke:#000000;stroke-linecap:square;stroke-linejoin:miter;stroke-width:0.8;"/>
   </g>
   <g id="patch_11">
    <path d="M 196.485 264.238125 
L 408.165 264.238125 
" style="fill:none;stroke:#000000;stroke-linecap:square;stroke-linejoin:miter;stroke-width:0.8;"/>
   </g>
   <g id="patch_12">
    <path d="M 196.485 72.718125 
L 408.165 72.718125 
" style="fill:none;stroke:#000000;stroke-linecap:square;stroke-linejoin:miter;stroke-width:0.8;"/>
   </g>
   <g id="text_32">
    <!--   -->
    <g transform="translate(300.418125 66.718125)scale(0.12 -0.12)">
     <use xlink:href="#DejaVuSans-32"/>
    </g>
   </g>
   <g id="legend_2">
    <g id="patch_13">
     <path d="M 203.485 95.39625 
L 295.085 95.39625 
Q 297.085 95.39625 297.085 93.39625 
L 297.085 79.718125 
Q 297.085 77.718125 295.085 77.718125 
L 203.485 77.718125 
Q 201.485 77.718125 201.485 79.718125 
L 201.485 93.39625 
Q 201.485 95.39625 203.485 95.39625 
z
" style="fill:#ffffff;opacity:0.8;stroke:#cccccc;stroke-linejoin:miter;"/>
    </g>
    <g id="line2d_30">
     <path d="M 205.485 85.816562 
L 225.485 85.816562 
" style="fill:none;stroke:#0000ff;stroke-linecap:square;stroke-width:1.5;"/>
    </g>
    <g id="line2d_31"/>
    <g id="text_33">
     <!-- $dI/dV$ ($a.u.$) -->
     <g transform="translate(233.485 89.316562)scale(0.1 -0.1)">
      <use transform="translate(0 0.015625)" xlink:href="#DejaVuSans-Oblique-100"/>
      <use transform="translate(63.476562 0.015625)" xlink:href="#DejaVuSans-Oblique-73"/>
      <use transform="translate(92.96875 0.015625)" xlink:href="#DejaVuSans-47"/>
      <use transform="translate(126.660156 0.015625)" xlink:href="#DejaVuSans-Oblique-100"/>
      <use transform="translate(190.136719 0.015625)" xlink:href="#DejaVuSans-Oblique-86"/>
      <use transform="translate(258.544922 0.015625)" xlink:href="#DejaVuSans-32"/>
      <use transform="translate(290.332031 0.015625)" xlink:href="#DejaVuSans-40"/>
      <use transform="translate(329.345703 0.015625)" xlink:href="#DejaVuSans-Oblique-97"/>
      <use transform="translate(390.625 0.015625)" xlink:href="#DejaVuSans-46"/>
      <use transform="translate(441.894531 0.015625)" xlink:href="#DejaVuSans-Oblique-117"/>
      <use transform="translate(505.273438 0.015625)" xlink:href="#DejaVuSans-46"/>
      <use transform="translate(556.542969 0.015625)" xlink:href="#DejaVuSans-41"/>
     </g>
    </g>
   </g>
  </g>
 </g>
 <defs>
  <clipPath id="pead37248c1">
   <rect height="388.08" width="390.6" x="57.885" y="22.318125"/>
  </clipPath>
  <clipPath id="p4460bf1af4">
   <rect height="191.52" width="211.68" x="196.485" y="72.718125"/>
  </clipPath>
 </defs>
</svg>
