<?xml version="1.0" encoding="utf-8" standalone="no"?>
<!DOCTYPE svg PUBLIC "-//W3C//DTD SVG 1.1//EN"
  "http://www.w3.org/Graphics/SVG/1.1/DTD/svg11.dtd">
<!-- Created with matplotlib (https://matplotlib.org/) -->
<svg height="429.756562pt" version="1.1" viewBox="0 0 433.891206 429.756562" width="433.891206pt" xmlns="http://www.w3.org/2000/svg" xmlns:xlink="http://www.w3.org/1999/xlink">
 <metadata>
  <rdf:RDF xmlns:cc="http://creativecommons.org/ns#" xmlns:dc="http://purl.org/dc/elements/1.1/" xmlns:rdf="http://www.w3.org/1999/02/22-rdf-syntax-ns#">
   <cc:Work>
    <dc:type rdf:resource="http://purl.org/dc/dcmitype/StillImage"/>
    <dc:date>2023-09-28T04:07:47.429559</dc:date>
    <dc:format>image/svg+xml</dc:format>
    <dc:creator>
     <cc:Agent>
      <dc:title>Matplotlib v3.3.4, https://matplotlib.org/</dc:title>
     </cc:Agent>
    </dc:creator>
   </cc:Work>
  </rdf:RDF>
 </metadata>
 <defs>
  <style type="text/css">*{stroke-linecap:butt;stroke-linejoin:round;}</style>
 </defs>
 <g id="figure_1">
  <g id="patch_1">
   <path d="M 0 429.756562 
L 433.891206 429.756562 
L 433.891206 0 
L 0 0 
z
" style="fill:#ffffff;"/>
  </g>
  <g id="axes_1">
   <g id="patch_2">
    <path d="M 30.103125 405.878437 
L 420.703125 405.878437 
L 420.703125 17.798437 
L 30.103125 17.798437 
z
" style="fill:none;"/>
   </g>
   <g id="matplotlib.axis_1">
    <g id="xtick_1">
     <g id="line2d_1">
      <defs>
       <path d="M 0 0 
L 0 3.5 
" id="mfbcd987d3c" style="stroke:#000000;stroke-width:0.8;"/>
      </defs>
      <g>
       <use style="stroke:#000000;stroke-width:0.8;" x="32.640741" xlink:href="#mfbcd987d3c" y="405.878437"/>
      </g>
     </g>
     <g id="text_1">
      <!-- −1.5 -->
      <g transform="translate(20.499334 420.476875)scale(0.1 -0.1)">
       <defs>
        <path d="M 10.59375 35.5 
L 73.1875 35.5 
L 73.1875 27.203125 
L 10.59375 27.203125 
z
" id="DejaVuSans-8722"/>
        <path d="M 12.40625 8.296875 
L 28.515625 8.296875 
L 28.515625 63.921875 
L 10.984375 60.40625 
L 10.984375 69.390625 
L 28.421875 72.90625 
L 38.28125 72.90625 
L 38.28125 8.296875 
L 54.390625 8.296875 
L 54.390625 0 
L 12.40625 0 
z
" id="DejaVuSans-49"/>
        <path d="M 10.6875 12.40625 
L 21 12.40625 
L 21 0 
L 10.6875 0 
z
" id="DejaVuSans-46"/>
        <path d="M 10.796875 72.90625 
L 49.515625 72.90625 
L 49.515625 64.59375 
L 19.828125 64.59375 
L 19.828125 46.734375 
Q 21.96875 47.46875 24.109375 47.828125 
Q 26.265625 48.1875 28.421875 48.1875 
Q 40.625 48.1875 47.75 41.5 
Q 54.890625 34.8125 54.890625 23.390625 
Q 54.890625 11.625 47.5625 5.09375 
Q 40.234375 -1.421875 26.90625 -1.421875 
Q 22.3125 -1.421875 17.546875 -0.640625 
Q 12.796875 0.140625 7.71875 1.703125 
L 7.71875 11.625 
Q 12.109375 9.234375 16.796875 8.0625 
Q 21.484375 6.890625 26.703125 6.890625 
Q 35.15625 6.890625 40.078125 11.328125 
Q 45.015625 15.765625 45.015625 23.390625 
Q 45.015625 31 40.078125 35.4375 
Q 35.15625 39.890625 26.703125 39.890625 
Q 22.75 39.890625 18.8125 39.015625 
Q 14.890625 38.140625 10.796875 36.28125 
z
" id="DejaVuSans-53"/>
       </defs>
       <use xlink:href="#DejaVuSans-8722"/>
       <use x="83.789062" xlink:href="#DejaVuSans-49"/>
       <use x="147.412109" xlink:href="#DejaVuSans-46"/>
       <use x="179.199219" xlink:href="#DejaVuSans-53"/>
      </g>
     </g>
    </g>
    <g id="xtick_2">
     <g id="line2d_2">
      <g>
       <use style="stroke:#000000;stroke-width:0.8;" x="109.860521" xlink:href="#mfbcd987d3c" y="405.878437"/>
      </g>
     </g>
     <g id="text_2">
      <!-- −1.0 -->
      <g transform="translate(97.719115 420.476875)scale(0.1 -0.1)">
       <defs>
        <path d="M 31.78125 66.40625 
Q 24.171875 66.40625 20.328125 58.90625 
Q 16.5 51.421875 16.5 36.375 
Q 16.5 21.390625 20.328125 13.890625 
Q 24.171875 6.390625 31.78125 6.390625 
Q 39.453125 6.390625 43.28125 13.890625 
Q 47.125 21.390625 47.125 36.375 
Q 47.125 51.421875 43.28125 58.90625 
Q 39.453125 66.40625 31.78125 66.40625 
z
M 31.78125 74.21875 
Q 44.046875 74.21875 50.515625 64.515625 
Q 56.984375 54.828125 56.984375 36.375 
Q 56.984375 17.96875 50.515625 8.265625 
Q 44.046875 -1.421875 31.78125 -1.421875 
Q 19.53125 -1.421875 13.0625 8.265625 
Q 6.59375 17.96875 6.59375 36.375 
Q 6.59375 54.828125 13.0625 64.515625 
Q 19.53125 74.21875 31.78125 74.21875 
z
" id="DejaVuSans-48"/>
       </defs>
       <use xlink:href="#DejaVuSans-8722"/>
       <use x="83.789062" xlink:href="#DejaVuSans-49"/>
       <use x="147.412109" xlink:href="#DejaVuSans-46"/>
       <use x="179.199219" xlink:href="#DejaVuSans-48"/>
      </g>
     </g>
    </g>
    <g id="xtick_3">
     <g id="line2d_3">
      <g>
       <use style="stroke:#000000;stroke-width:0.8;" x="187.080302" xlink:href="#mfbcd987d3c" y="405.878437"/>
      </g>
     </g>
     <g id="text_3">
      <!-- −0.5 -->
      <g transform="translate(174.938895 420.476875)scale(0.1 -0.1)">
       <use xlink:href="#DejaVuSans-8722"/>
       <use x="83.789062" xlink:href="#DejaVuSans-48"/>
       <use x="147.412109" xlink:href="#DejaVuSans-46"/>
       <use x="179.199219" xlink:href="#DejaVuSans-53"/>
      </g>
     </g>
    </g>
    <g id="xtick_4">
     <g id="line2d_4">
      <g>
       <use style="stroke:#000000;stroke-width:0.8;" x="264.300082" xlink:href="#mfbcd987d3c" y="405.878437"/>
      </g>
     </g>
     <g id="text_4">
      <!-- 0.0 -->
      <g transform="translate(256.34852 420.476875)scale(0.1 -0.1)">
       <use xlink:href="#DejaVuSans-48"/>
       <use x="63.623047" xlink:href="#DejaVuSans-46"/>
       <use x="95.410156" xlink:href="#DejaVuSans-48"/>
      </g>
     </g>
    </g>
    <g id="xtick_5">
     <g id="line2d_5">
      <g>
       <use style="stroke:#000000;stroke-width:0.8;" x="341.519863" xlink:href="#mfbcd987d3c" y="405.878437"/>
      </g>
     </g>
     <g id="text_5">
      <!-- 0.5 -->
      <g transform="translate(333.5683 420.476875)scale(0.1 -0.1)">
       <use xlink:href="#DejaVuSans-48"/>
       <use x="63.623047" xlink:href="#DejaVuSans-46"/>
       <use x="95.410156" xlink:href="#DejaVuSans-53"/>
      </g>
     </g>
    </g>
    <g id="xtick_6">
     <g id="line2d_6">
      <g>
       <use style="stroke:#000000;stroke-width:0.8;" x="418.739643" xlink:href="#mfbcd987d3c" y="405.878437"/>
      </g>
     </g>
     <g id="text_6">
      <!-- 1.0 -->
      <g transform="translate(410.788081 420.476875)scale(0.1 -0.1)">
       <use xlink:href="#DejaVuSans-49"/>
       <use x="63.623047" xlink:href="#DejaVuSans-46"/>
       <use x="95.410156" xlink:href="#DejaVuSans-48"/>
      </g>
     </g>
    </g>
   </g>
   <g id="matplotlib.axis_2">
    <g id="ytick_1">
     <g id="line2d_7">
      <defs>
       <path d="M 0 0 
L -3.5 0 
" id="m15006d1e79" style="stroke:#000000;stroke-width:0.8;"/>
      </defs>
      <g>
       <use style="stroke:#000000;stroke-width:0.8;" x="30.103125" xlink:href="#m15006d1e79" y="394.153527"/>
      </g>
     </g>
     <g id="text_7">
      <!-- 0.0 -->
      <g transform="translate(7.2 397.952746)scale(0.1 -0.1)">
       <use xlink:href="#DejaVuSans-48"/>
       <use x="63.623047" xlink:href="#DejaVuSans-46"/>
       <use x="95.410156" xlink:href="#DejaVuSans-48"/>
      </g>
     </g>
    </g>
    <g id="ytick_2">
     <g id="line2d_8">
      <g>
       <use style="stroke:#000000;stroke-width:0.8;" x="30.103125" xlink:href="#m15006d1e79" y="341.567174"/>
      </g>
     </g>
     <g id="text_8">
      <!-- 0.5 -->
      <g transform="translate(7.2 345.366393)scale(0.1 -0.1)">
       <use xlink:href="#DejaVuSans-48"/>
       <use x="63.623047" xlink:href="#DejaVuSans-46"/>
       <use x="95.410156" xlink:href="#DejaVuSans-53"/>
      </g>
     </g>
    </g>
    <g id="ytick_3">
     <g id="line2d_9">
      <g>
       <use style="stroke:#000000;stroke-width:0.8;" x="30.103125" xlink:href="#m15006d1e79" y="288.980821"/>
      </g>
     </g>
     <g id="text_9">
      <!-- 1.0 -->
      <g transform="translate(7.2 292.78004)scale(0.1 -0.1)">
       <use xlink:href="#DejaVuSans-49"/>
       <use x="63.623047" xlink:href="#DejaVuSans-46"/>
       <use x="95.410156" xlink:href="#DejaVuSans-48"/>
      </g>
     </g>
    </g>
    <g id="ytick_4">
     <g id="line2d_10">
      <g>
       <use style="stroke:#000000;stroke-width:0.8;" x="30.103125" xlink:href="#m15006d1e79" y="236.394468"/>
      </g>
     </g>
     <g id="text_10">
      <!-- 1.5 -->
      <g transform="translate(7.2 240.193687)scale(0.1 -0.1)">
       <use xlink:href="#DejaVuSans-49"/>
       <use x="63.623047" xlink:href="#DejaVuSans-46"/>
       <use x="95.410156" xlink:href="#DejaVuSans-53"/>
      </g>
     </g>
    </g>
    <g id="ytick_5">
     <g id="line2d_11">
      <g>
       <use style="stroke:#000000;stroke-width:0.8;" x="30.103125" xlink:href="#m15006d1e79" y="183.808115"/>
      </g>
     </g>
     <g id="text_11">
      <!-- 2.0 -->
      <g transform="translate(7.2 187.607334)scale(0.1 -0.1)">
       <defs>
        <path d="M 19.1875 8.296875 
L 53.609375 8.296875 
L 53.609375 0 
L 7.328125 0 
L 7.328125 8.296875 
Q 12.9375 14.109375 22.625 23.890625 
Q 32.328125 33.6875 34.8125 36.53125 
Q 39.546875 41.84375 41.421875 45.53125 
Q 43.3125 49.21875 43.3125 52.78125 
Q 43.3125 58.59375 39.234375 62.25 
Q 35.15625 65.921875 28.609375 65.921875 
Q 23.96875 65.921875 18.8125 64.3125 
Q 13.671875 62.703125 7.8125 59.421875 
L 7.8125 69.390625 
Q 13.765625 71.78125 18.9375 73 
Q 24.125 74.21875 28.421875 74.21875 
Q 39.75 74.21875 46.484375 68.546875 
Q 53.21875 62.890625 53.21875 53.421875 
Q 53.21875 48.921875 51.53125 44.890625 
Q 49.859375 40.875 45.40625 35.40625 
Q 44.1875 33.984375 37.640625 27.21875 
Q 31.109375 20.453125 19.1875 8.296875 
z
" id="DejaVuSans-50"/>
       </defs>
       <use xlink:href="#DejaVuSans-50"/>
       <use x="63.623047" xlink:href="#DejaVuSans-46"/>
       <use x="95.410156" xlink:href="#DejaVuSans-48"/>
      </g>
     </g>
    </g>
    <g id="ytick_6">
     <g id="line2d_12">
      <g>
       <use style="stroke:#000000;stroke-width:0.8;" x="30.103125" xlink:href="#m15006d1e79" y="131.221762"/>
      </g>
     </g>
     <g id="text_12">
      <!-- 2.5 -->
      <g transform="translate(7.2 135.020981)scale(0.1 -0.1)">
       <use xlink:href="#DejaVuSans-50"/>
       <use x="63.623047" xlink:href="#DejaVuSans-46"/>
       <use x="95.410156" xlink:href="#DejaVuSans-53"/>
      </g>
     </g>
    </g>
    <g id="ytick_7">
     <g id="line2d_13">
      <g>
       <use style="stroke:#000000;stroke-width:0.8;" x="30.103125" xlink:href="#m15006d1e79" y="78.635409"/>
      </g>
     </g>
     <g id="text_13">
      <!-- 3.0 -->
      <g transform="translate(7.2 82.434628)scale(0.1 -0.1)">
       <defs>
        <path d="M 40.578125 39.3125 
Q 47.65625 37.796875 51.625 33 
Q 55.609375 28.21875 55.609375 21.1875 
Q 55.609375 10.40625 48.1875 4.484375 
Q 40.765625 -1.421875 27.09375 -1.421875 
Q 22.515625 -1.421875 17.65625 -0.515625 
Q 12.796875 0.390625 7.625 2.203125 
L 7.625 11.71875 
Q 11.71875 9.328125 16.59375 8.109375 
Q 21.484375 6.890625 26.8125 6.890625 
Q 36.078125 6.890625 40.9375 10.546875 
Q 45.796875 14.203125 45.796875 21.1875 
Q 45.796875 27.640625 41.28125 31.265625 
Q 36.765625 34.90625 28.71875 34.90625 
L 20.21875 34.90625 
L 20.21875 43.015625 
L 29.109375 43.015625 
Q 36.375 43.015625 40.234375 45.921875 
Q 44.09375 48.828125 44.09375 54.296875 
Q 44.09375 59.90625 40.109375 62.90625 
Q 36.140625 65.921875 28.71875 65.921875 
Q 24.65625 65.921875 20.015625 65.03125 
Q 15.375 64.15625 9.8125 62.3125 
L 9.8125 71.09375 
Q 15.4375 72.65625 20.34375 73.4375 
Q 25.25 74.21875 29.59375 74.21875 
Q 40.828125 74.21875 47.359375 69.109375 
Q 53.90625 64.015625 53.90625 55.328125 
Q 53.90625 49.265625 50.4375 45.09375 
Q 46.96875 40.921875 40.578125 39.3125 
z
" id="DejaVuSans-51"/>
       </defs>
       <use xlink:href="#DejaVuSans-51"/>
       <use x="63.623047" xlink:href="#DejaVuSans-46"/>
       <use x="95.410156" xlink:href="#DejaVuSans-48"/>
      </g>
     </g>
    </g>
    <g id="ytick_8">
     <g id="line2d_14">
      <g>
       <use style="stroke:#000000;stroke-width:0.8;" x="30.103125" xlink:href="#m15006d1e79" y="26.049056"/>
      </g>
     </g>
     <g id="text_14">
      <!-- 3.5 -->
      <g transform="translate(7.2 29.848275)scale(0.1 -0.1)">
       <use xlink:href="#DejaVuSans-51"/>
       <use x="63.623047" xlink:href="#DejaVuSans-46"/>
       <use x="95.410156" xlink:href="#DejaVuSans-53"/>
      </g>
     </g>
    </g>
    <g id="text_15">
     <!-- 1e−11 -->
     <g transform="translate(30.103125 14.798437)scale(0.1 -0.1)">
      <defs>
       <path d="M 56.203125 29.59375 
L 56.203125 25.203125 
L 14.890625 25.203125 
Q 15.484375 15.921875 20.484375 11.0625 
Q 25.484375 6.203125 34.421875 6.203125 
Q 39.59375 6.203125 44.453125 7.46875 
Q 49.3125 8.734375 54.109375 11.28125 
L 54.109375 2.78125 
Q 49.265625 0.734375 44.1875 -0.34375 
Q 39.109375 -1.421875 33.890625 -1.421875 
Q 20.796875 -1.421875 13.15625 6.1875 
Q 5.515625 13.8125 5.515625 26.8125 
Q 5.515625 40.234375 12.765625 48.109375 
Q 20.015625 56 32.328125 56 
Q 43.359375 56 49.78125 48.890625 
Q 56.203125 41.796875 56.203125 29.59375 
z
M 47.21875 32.234375 
Q 47.125 39.59375 43.09375 43.984375 
Q 39.0625 48.390625 32.421875 48.390625 
Q 24.90625 48.390625 20.390625 44.140625 
Q 15.875 39.890625 15.1875 32.171875 
z
" id="DejaVuSans-101"/>
      </defs>
      <use xlink:href="#DejaVuSans-49"/>
      <use x="63.623047" xlink:href="#DejaVuSans-101"/>
      <use x="125.146484" xlink:href="#DejaVuSans-8722"/>
      <use x="208.935547" xlink:href="#DejaVuSans-49"/>
      <use x="272.558594" xlink:href="#DejaVuSans-49"/>
     </g>
    </g>
   </g>
   <g id="line2d_15">
    <path clip-path="url(#pda841e71e0)" d="M 47.85767 330.381256 
L 48.204778 330.545842 
L 49.940315 331.975694 
L 50.287423 332.000771 
L 50.981637 331.700326 
L 52.02296 331.016994 
L 52.370067 330.930923 
L 53.064282 331.101687 
L 53.758497 331.468776 
L 54.105604 331.526054 
L 54.452712 331.375025 
L 54.799819 330.948684 
L 55.494034 329.255671 
L 56.188249 327.119351 
L 56.535356 326.35354 
L 56.882464 326.048562 
L 57.229571 326.327179 
L 57.576679 327.211935 
L 58.270894 330.410634 
L 59.659323 337.833214 
L 60.353538 340.03372 
L 60.700646 340.548266 
L 61.047753 340.680038 
L 61.394861 340.496937 
L 63.477505 338.193465 
L 64.17172 337.591388 
L 64.865935 336.616377 
L 65.907257 334.956248 
L 66.254365 334.608985 
L 66.601472 334.435503 
L 66.94858 334.429835 
L 67.642794 334.744324 
L 69.378332 335.82971 
L 70.072546 336.710871 
L 70.766761 337.654932 
L 71.113869 337.922961 
L 71.460976 337.961286 
L 71.808084 337.763323 
L 72.502299 336.889577 
L 73.196513 336.020655 
L 73.543621 335.813449 
L 73.890728 335.835944 
L 74.237836 336.11867 
L 74.584943 336.668184 
L 75.279158 338.45392 
L 76.32048 341.497325 
L 76.667588 342.11698 
L 77.014695 342.389728 
L 77.361803 342.323358 
L 78.056018 341.533927 
L 78.750232 340.77193 
L 79.09734 340.660187 
L 79.444447 340.75139 
L 80.832877 341.706611 
L 81.527092 341.748045 
L 82.568414 341.638941 
L 83.609737 341.572218 
L 83.956844 341.375817 
L 84.651059 340.597855 
L 85.692381 339.212098 
L 86.386596 338.760482 
L 87.775026 338.295602 
L 89.163456 337.434127 
L 89.510563 337.398708 
L 90.204778 337.658797 
L 90.898993 338.25438 
L 91.593208 339.108468 
L 93.328745 341.59034 
L 93.675852 341.729673 
L 94.02296 341.600545 
L 94.370067 341.181311 
L 95.064282 339.590021 
L 96.452712 335.832163 
L 96.799819 335.299787 
L 97.146927 335.019344 
L 97.494034 334.969803 
L 98.188249 335.345016 
L 98.882464 335.840539 
L 99.229571 335.946256 
L 99.576679 335.888558 
L 99.923786 335.649639 
L 100.618001 334.698485 
L 102.006431 332.458064 
L 102.700646 331.924193 
L 104.436183 331.289736 
L 105.477505 330.599679 
L 105.824613 330.489838 
L 106.17172 330.514009 
L 106.518827 330.688847 
L 107.213042 331.419098 
L 108.254365 332.755829 
L 108.94858 333.325433 
L 109.989902 333.705412 
L 110.684117 334.015866 
L 111.378332 334.685283 
L 112.072546 335.852273 
L 112.766761 337.524317 
L 113.808084 340.851105 
L 115.196513 346.36976 
L 116.584943 352.836976 
L 119.014695 364.836569 
L 120.056018 368.801324 
L 121.09734 371.811236 
L 122.138662 374.137842 
L 123.179985 375.934515 
L 124.221307 377.253549 
L 126.651059 379.739811 
L 127.345274 380.221504 
L 128.039489 380.494856 
L 128.733704 380.55132 
L 129.427918 380.387838 
L 130.122133 380.015828 
L 131.163456 379.171027 
L 132.898993 377.728705 
L 133.940315 377.247751 
L 135.675852 376.595023 
L 138.105604 375.250759 
L 139.494034 375.012149 
L 140.535356 374.992587 
L 141.229571 375.163129 
L 142.270894 375.712241 
L 143.659323 376.736584 
L 144.700646 377.793113 
L 148.17172 381.703779 
L 149.56015 383.078747 
L 150.601472 383.820652 
L 152.684117 384.888467 
L 154.419654 385.544777 
L 156.502299 386.103931 
L 159.626265 386.653871 
L 162.056018 387.682185 
L 162.750232 387.714079 
L 163.444447 387.555875 
L 164.832877 386.902055 
L 165.874199 386.484244 
L 166.915522 386.316774 
L 171.080811 386.179229 
L 174.204778 386.464176 
L 176.63453 386.384954 
L 178.370067 386.721753 
L 179.758497 386.940636 
L 184.270894 387.201041 
L 186.006431 387.461934 
L 187.047753 387.36652 
L 190.518827 386.554438 
L 192.601472 386.648377 
L 197.113869 386.900935 
L 199.543621 386.73521 
L 201.973373 387.024331 
L 203.361803 387.308378 
L 205.09734 387.810787 
L 205.791555 387.847763 
L 206.832877 387.629716 
L 209.956844 386.548343 
L 210.998166 386.624357 
L 213.427918 387.019184 
L 216.204778 387.158317 
L 220.02296 386.887512 
L 222.452712 386.955204 
L 224.188249 386.882354 
L 226.618001 387.099224 
L 232.518827 386.534144 
L 234.254365 386.6254 
L 237.725439 386.525285 
L 239.460976 386.640165 
L 242.584943 387.115671 
L 243.626265 386.882599 
L 246.403125 385.889528 
L 247.444447 385.999946 
L 252.651059 387.464716 
L 254.039489 388.0014 
L 255.080811 388.200452 
L 256.122133 388.222992 
L 257.163456 387.992679 
L 260.287423 386.852625 
L 266.882464 386.355487 
L 267.923786 386.575602 
L 270.006431 387.068017 
L 271.741968 387.181007 
L 274.865935 386.996165 
L 280.419654 386.661375 
L 281.808084 386.486774 
L 283.196513 386.556514 
L 286.667588 386.826285 
L 288.056018 386.576638 
L 289.444447 386.373538 
L 290.48577 386.44019 
L 293.609737 386.972212 
L 295.692381 386.78628 
L 297.427918 386.677364 
L 298.469241 386.857524 
L 299.85767 387.148031 
L 300.898993 387.139935 
L 303.328745 386.958746 
L 305.064282 386.850281 
L 307.841142 386.53117 
L 312.006431 386.537699 
L 315.130398 386.558642 
L 316.865935 386.493805 
L 318.254365 386.742639 
L 319.642794 386.988361 
L 320.684117 386.975294 
L 323.460976 386.767205 
L 325.890728 386.904778 
L 329.70891 386.722922 
L 331.444447 386.741854 
L 333.179985 386.591843 
L 336.303951 386.762231 
L 338.039489 386.668571 
L 340.816348 386.811975 
L 343.593208 387.05934 
L 344.981637 387.11655 
L 347.411389 387.407457 
L 348.452712 387.256346 
L 349.841142 386.774208 
L 352.965108 385.395919 
L 359.213042 384.289384 
L 360.254365 383.875492 
L 362.684117 382.666153 
L 363.725439 382.455586 
L 365.460976 382.215642 
L 366.849406 381.726542 
L 368.237836 381.311109 
L 373.444447 380.741256 
L 374.832877 380.71266 
L 376.221307 380.366166 
L 377.956844 379.941104 
L 380.733704 379.488302 
L 381.775026 379.65194 
L 383.163456 379.889862 
L 385.2461 380.083206 
L 386.63453 380.43874 
L 387.328745 380.379955 
L 389.758497 379.609783 
L 392.535356 379.682391 
L 393.229571 379.377437 
L 394.270894 378.584636 
L 395.659323 377.460504 
L 396.353538 377.123484 
L 397.047753 377.083566 
L 397.741968 377.388371 
L 399.130398 378.368803 
L 399.824613 378.485474 
L 400.518827 378.228095 
L 402.94858 376.632599 
L 402.94858 376.632599 
" style="fill:none;stroke:#1f77b4;stroke-linecap:square;stroke-width:1.5;"/>
   </g>
   <g id="line2d_16">
    <path clip-path="url(#pda841e71e0)" d="M 47.85767 250.420289 
L 48.204778 249.30809 
L 48.898993 245.904023 
L 49.593208 240.838318 
L 51.675852 222.243538 
L 52.370067 218.624817 
L 52.717175 217.517599 
L 53.064282 216.848249 
L 53.411389 216.601389 
L 53.758497 216.558764 
L 55.494034 216.883515 
L 56.535356 216.423228 
L 57.229571 216.243727 
L 57.576679 216.3159 
L 57.923786 216.530248 
L 58.270894 216.918316 
L 58.965108 218.313587 
L 59.659323 220.289965 
L 60.700646 223.583192 
L 61.394861 225.057988 
L 61.741968 225.317179 
L 62.089075 225.018898 
L 62.436183 224.183459 
L 62.78329 222.761077 
L 63.130398 220.715508 
L 63.824613 214.414589 
L 64.865935 201.190598 
L 65.907257 187.968504 
L 66.601472 182.143491 
L 66.94858 180.57835 
L 67.295687 180.062722 
L 67.642794 180.274735 
L 67.989902 181.068673 
L 68.684117 183.744146 
L 69.378332 186.453518 
L 70.072546 188.241778 
L 70.419654 188.665827 
L 70.766761 188.747145 
L 71.113869 188.555953 
L 71.460976 188.091348 
L 71.808084 187.34767 
L 72.155191 186.26201 
L 72.849406 182.959247 
L 73.543621 178.31581 
L 74.584943 169.202294 
L 75.973373 157.258886 
L 76.667588 153.504148 
L 77.014695 152.421273 
L 77.361803 152.005583 
L 77.70891 152.222169 
L 78.056018 152.909518 
L 78.750232 155.382871 
L 80.48577 163.096718 
L 81.874199 168.205274 
L 82.568414 171.873478 
L 83.262629 176.981765 
L 84.303951 186.689754 
L 85.692381 202.242098 
L 86.733704 216.141429 
L 88.122133 238.144696 
L 90.204778 271.999911 
L 91.2461 284.221149 
L 93.675852 308.596661 
L 95.064282 323.038711 
L 96.105604 331.227089 
L 97.146927 337.094117 
L 98.188249 341.714957 
L 99.576679 346.684247 
L 101.312216 351.778948 
L 103.394861 357.387108 
L 104.436183 359.715175 
L 105.477505 361.50051 
L 106.518827 362.766573 
L 107.56015 363.556588 
L 108.601472 364.011737 
L 109.642794 364.175865 
L 110.337009 364.099966 
L 111.378332 363.71707 
L 113.460976 362.810805 
L 114.502299 362.616481 
L 115.543621 362.612588 
L 116.932051 362.886343 
L 118.32048 363.109138 
L 120.056018 363.057415 
L 122.138662 362.821849 
L 123.527092 362.398162 
L 124.568414 361.895434 
L 125.609737 361.142176 
L 126.651059 360.028286 
L 129.427918 356.696826 
L 130.469241 356.096911 
L 131.85767 355.492481 
L 132.551885 354.948059 
L 133.2461 354.124098 
L 134.287423 352.482546 
L 136.02296 349.093193 
L 137.758497 345.68457 
L 138.799819 344.124048 
L 139.841142 343.046398 
L 140.882464 342.363921 
L 141.923786 342.037252 
L 143.312216 341.974418 
L 144.353538 341.862672 
L 145.394861 341.481687 
L 146.436183 341.094321 
L 147.130398 341.121767 
L 147.824613 341.519004 
L 148.518827 342.388405 
L 149.56015 344.308856 
L 150.94858 347.478155 
L 152.337009 351.123514 
L 156.155191 361.717045 
L 158.237836 367.290529 
L 160.32048 373.860095 
L 161.361803 376.873844 
L 162.056018 378.490583 
L 163.09734 380.262457 
L 163.791555 381.089005 
L 164.832877 381.999354 
L 168.998166 384.944277 
L 170.386596 385.611716 
L 172.122133 386.062868 
L 174.551885 386.704752 
L 175.940315 386.985633 
L 177.328745 387.039156 
L 180.105604 386.843849 
L 182.882464 386.407986 
L 184.270894 386.28751 
L 185.659323 386.473016 
L 187.741968 386.845359 
L 189.130398 386.792508 
L 191.907257 386.586923 
L 193.642794 386.774771 
L 196.419654 387.168449 
L 198.155191 387.045183 
L 201.626265 386.744247 
L 204.056018 386.745516 
L 206.138662 387.027184 
L 207.874199 387.21521 
L 209.262629 387.151992 
L 212.039489 386.96989 
L 214.122133 386.983829 
L 215.510563 386.700795 
L 217.2461 386.263548 
L 218.287423 386.226424 
L 220.02296 386.480857 
L 221.758497 386.66239 
L 223.146927 386.583356 
L 225.576679 386.423652 
L 230.089075 386.532074 
L 233.213042 386.797609 
L 234.94858 386.573545 
L 236.684117 386.378929 
L 238.419654 386.429787 
L 241.196513 386.554052 
L 243.626265 386.582728 
L 246.403125 386.936101 
L 248.48577 387.212026 
L 250.221307 387.093815 
L 251.262629 387.084715 
L 252.303951 387.311151 
L 254.733704 388.103668 
L 255.427918 388.113684 
L 256.469241 387.881513 
L 259.2461 386.902935 
L 260.287423 386.815006 
L 263.758497 387.002095 
L 265.841142 387.269512 
L 267.576679 387.48989 
L 268.618001 387.452394 
L 270.006431 387.116209 
L 272.089075 386.538694 
L 273.824613 386.423726 
L 276.94858 386.384982 
L 279.031224 386.698498 
L 283.196513 387.465202 
L 284.932051 387.366896 
L 293.262629 386.571687 
L 296.386596 386.735937 
L 302.287423 387.107039 
L 303.328745 386.876473 
L 305.064282 386.386485 
L 306.105604 386.326183 
L 308.188249 386.53811 
L 311.312216 386.728901 
L 314.78329 386.896704 
L 317.56015 387.001348 
L 319.642794 387.098765 
L 326.584943 386.747111 
L 327.973373 386.714729 
L 331.444447 386.850861 
L 332.832877 386.630827 
L 334.221307 386.144675 
L 335.956844 385.21432 
L 337.692381 384.058262 
L 339.080811 382.801004 
L 340.469241 381.16614 
L 342.204778 378.715916 
L 343.593208 376.313323 
L 344.981637 373.315784 
L 346.717175 368.8113 
L 348.105604 364.578657 
L 349.146927 360.667474 
L 350.535356 354.405129 
L 352.618001 344.808886 
L 354.006431 339.451203 
L 356.089075 332.366179 
L 358.17172 325.983945 
L 359.907257 320.598689 
L 362.337009 312.529303 
L 363.378332 309.969906 
L 365.113869 306.633378 
L 367.543621 302.148313 
L 368.237836 301.285144 
L 369.279158 300.389496 
L 370.667588 299.200629 
L 371.70891 297.940992 
L 373.444447 295.357413 
L 374.48577 293.970661 
L 375.179985 293.378381 
L 375.874199 293.111254 
L 376.568414 293.132127 
L 377.956844 293.529221 
L 379.345274 293.872694 
L 380.039489 293.847257 
L 380.733704 293.55762 
L 381.427918 292.823703 
L 382.122133 291.642871 
L 383.510563 288.467415 
L 384.551885 286.327289 
L 385.2461 285.336335 
L 385.940315 284.660663 
L 386.981637 284.080173 
L 388.370067 283.628751 
L 389.411389 283.50557 
L 391.146927 283.454335 
L 391.841142 283.12679 
L 392.535356 282.45873 
L 393.229571 281.408373 
L 394.270894 279.275195 
L 396.700646 273.789904 
L 397.394861 272.830816 
L 398.089075 272.332135 
L 399.130398 272.198516 
L 400.17172 272.025267 
L 401.213042 271.512442 
L 402.254365 271.026912 
L 402.94858 270.992624 
L 402.94858 270.992624 
" style="fill:none;stroke:#ff7f0e;stroke-linecap:square;stroke-width:1.5;"/>
   </g>
   <g id="line2d_17">
    <path clip-path="url(#pda841e71e0)" d="M 47.85767 158.158143 
L 48.898993 166.940582 
L 50.287423 176.895341 
L 50.981637 180.589034 
L 51.328745 181.643415 
L 51.675852 182.015806 
L 52.02296 181.698699 
L 52.370067 180.797619 
L 53.411389 177.217542 
L 53.758497 176.834901 
L 54.105604 177.311391 
L 54.452712 178.756955 
L 55.146927 184.206545 
L 56.535356 197.446115 
L 57.229571 201.32019 
L 58.618001 206.651852 
L 59.659323 212.936148 
L 60.353538 216.90582 
L 61.047753 219.424896 
L 61.394861 220.135648 
L 61.741968 220.573997 
L 62.089075 220.787733 
L 62.436183 220.782435 
L 62.78329 220.520209 
L 63.130398 219.960952 
L 63.824613 218.016493 
L 64.518827 215.848445 
L 64.865935 215.194429 
L 65.213042 215.021197 
L 65.56015 215.372582 
L 65.907257 216.19233 
L 66.601472 218.808753 
L 70.072546 234.715452 
L 71.460976 242.031005 
L 72.155191 244.361616 
L 72.849406 245.749249 
L 73.543621 246.601167 
L 74.237836 247.070452 
L 74.932051 247.104125 
L 75.626265 246.773292 
L 76.667588 246.229363 
L 77.014695 246.227651 
L 77.361803 246.409243 
L 77.70891 246.835753 
L 78.056018 247.567498 
L 78.750232 250.056051 
L 80.48577 258.527695 
L 80.832877 259.510876 
L 81.179985 260.075764 
L 81.527092 260.309309 
L 81.874199 260.321827 
L 82.568414 260.064744 
L 83.262629 259.638814 
L 83.956844 258.805459 
L 85.692381 255.683557 
L 86.039489 255.545718 
L 86.386596 255.762311 
L 86.733704 256.370718 
L 87.080811 257.384401 
L 87.775026 260.52859 
L 89.85767 272.468545 
L 90.551885 274.891167 
L 91.2461 276.308911 
L 91.940315 277.021912 
L 92.63453 277.32422 
L 94.370067 277.63868 
L 95.064282 278.243563 
L 95.758497 279.360269 
L 100.270894 288.629676 
L 101.312216 290.835895 
L 102.006431 291.831077 
L 104.089075 294.260784 
L 105.477505 296.088962 
L 106.17172 296.754216 
L 106.865935 297.114746 
L 107.56015 297.201363 
L 108.601472 297.239646 
L 111.031224 297.707716 
L 111.378332 297.886822 
L 112.072546 298.653204 
L 113.113869 300.607479 
L 114.155191 302.394356 
L 117.279158 306.368275 
L 118.667588 308.008572 
L 119.361803 309.249062 
L 121.791555 314.497749 
L 122.832877 315.844103 
L 124.221307 317.158913 
L 125.262629 317.851146 
L 126.998166 318.74063 
L 127.692381 318.932139 
L 129.775026 319.132877 
L 130.469241 319.586083 
L 131.163456 320.388194 
L 132.551885 322.192269 
L 133.2461 322.804416 
L 134.287423 323.376391 
L 135.328745 323.891246 
L 136.02296 324.43639 
L 138.105604 326.61308 
L 138.799819 326.840625 
L 139.494034 326.735664 
L 140.535356 326.477186 
L 141.229571 326.525692 
L 142.270894 326.953716 
L 144.700646 328.373917 
L 146.436183 329.529818 
L 147.477505 329.896685 
L 149.56015 330.221596 
L 149.907257 330.509357 
L 150.601472 331.537015 
L 151.642794 333.932452 
L 152.337009 335.47967 
L 153.031224 336.478926 
L 153.378332 336.723084 
L 154.072546 336.801683 
L 155.808084 336.492741 
L 156.502299 336.694987 
L 157.196513 337.114424 
L 158.237836 338.042215 
L 159.626265 339.36701 
L 160.32048 339.777983 
L 161.014695 339.932561 
L 163.09734 340.006749 
L 163.791555 340.481105 
L 164.48577 341.31593 
L 166.221307 343.645182 
L 166.915522 344.106305 
L 167.609737 344.203843 
L 168.303951 344.008956 
L 169.692381 343.203639 
L 170.733704 342.680502 
L 171.427918 342.520716 
L 172.122133 342.580837 
L 172.816348 342.896993 
L 173.85767 343.730519 
L 174.898993 344.532981 
L 175.593208 344.835121 
L 179.758497 345.944559 
L 181.146927 346.367759 
L 182.535356 346.501208 
L 183.923786 346.664692 
L 184.965108 347.070146 
L 187.047753 348.094024 
L 188.78329 348.750265 
L 190.518827 349.53068 
L 191.907257 349.999224 
L 192.94858 350.672778 
L 195.031224 352.296628 
L 196.072546 352.754326 
L 200.237836 354.191258 
L 201.973373 355.002835 
L 204.403125 356.236393 
L 205.444447 356.406581 
L 207.179985 356.533128 
L 208.221307 356.901526 
L 212.039489 358.87921 
L 214.469241 360.228637 
L 215.510563 360.507706 
L 218.63453 361.057298 
L 220.370067 361.717676 
L 221.758497 362.479302 
L 223.841142 363.677765 
L 225.229571 364.101409 
L 227.312216 364.678674 
L 231.477505 366.350045 
L 233.907257 367.433479 
L 238.072546 368.892058 
L 239.460976 369.422549 
L 240.849406 370.228985 
L 243.279158 371.76787 
L 244.32048 372.156269 
L 245.361803 372.336132 
L 247.444447 372.57667 
L 248.48577 373.012127 
L 249.874199 373.939867 
L 251.956844 375.590501 
L 253.692381 377.27836 
L 257.85767 381.512678 
L 259.2461 382.299852 
L 260.981637 383.306202 
L 262.717175 384.352186 
L 263.758497 384.681893 
L 264.452712 384.707424 
L 265.146927 384.5567 
L 265.841142 384.217699 
L 266.882464 383.408882 
L 268.618001 381.999564 
L 271.394861 380.367652 
L 272.436183 379.286377 
L 276.254365 374.518415 
L 281.808084 366.704042 
L 283.196513 364.537299 
L 287.70891 356.558364 
L 293.262629 344.943443 
L 295.345274 339.991419 
L 297.080811 335.111376 
L 302.287423 319.493699 
L 304.02296 313.650629 
L 306.799819 303.27945 
L 308.535356 297.18604 
L 310.965108 289.218531 
L 312.353538 283.500595 
L 314.436183 274.584794 
L 315.824613 268.726771 
L 316.865935 263.518202 
L 318.601472 253.450936 
L 320.337009 243.73156 
L 321.378332 239.00149 
L 322.419654 235.26192 
L 325.890728 224.273694 
L 327.279158 218.75581 
L 328.667588 212.185205 
L 329.70891 207.568197 
L 330.750232 204.259955 
L 332.138662 200.061311 
L 333.527092 195.57928 
L 334.221307 193.91473 
L 335.262629 192.120553 
L 336.303951 190.216711 
L 337.345274 187.514403 
L 338.386596 184.158677 
L 339.427918 180.050708 
L 341.85767 169.478754 
L 342.204778 168.677798 
L 342.551885 168.165522 
L 342.898993 167.892503 
L 344.287423 167.411423 
L 344.981637 166.574892 
L 347.411389 162.479396 
L 348.105604 161.945661 
L 349.494034 161.303817 
L 350.188249 160.610407 
L 350.882464 159.494118 
L 351.923786 157.145791 
L 353.312216 153.807675 
L 354.006431 152.730747 
L 355.741968 150.806305 
L 357.130398 148.688097 
L 357.477505 148.588015 
L 357.824613 148.835031 
L 358.17172 149.442864 
L 358.865935 151.460053 
L 359.56015 153.572844 
L 359.907257 154.25847 
L 360.254365 154.549013 
L 360.601472 154.416393 
L 360.94858 153.907643 
L 362.684117 149.997228 
L 363.378332 149.406792 
L 364.766761 148.774403 
L 365.460976 148.066782 
L 366.502299 146.518199 
L 367.196513 145.116028 
L 367.890728 143.189567 
L 368.584943 140.61697 
L 370.667588 132.220537 
L 372.056018 127.833545 
L 374.138662 119.648464 
L 374.48577 119.089617 
L 374.832877 118.958064 
L 375.179985 119.195345 
L 376.221307 120.53064 
L 376.568414 120.526857 
L 376.915522 120.042717 
L 377.262629 119.031228 
L 377.956844 115.564925 
L 378.651059 110.663417 
L 381.427918 88.745898 
L 382.122133 86.298439 
L 382.816348 84.97542 
L 383.510563 84.290585 
L 384.204778 84.063319 
L 385.2461 84.239651 
L 385.940315 84.198126 
L 386.63453 83.696308 
L 387.675852 82.6555 
L 388.02296 82.501106 
L 388.370067 82.50589 
L 388.717175 82.66694 
L 389.411389 83.363771 
L 390.799819 85.210561 
L 391.146927 85.390891 
L 391.494034 85.275935 
L 391.841142 84.786204 
L 392.188249 83.873523 
L 392.882464 80.773203 
L 393.576679 76.224185 
L 395.659323 60.720946 
L 396.006431 59.431928 
L 396.353538 58.894028 
L 396.700646 59.114676 
L 397.047753 60.000876 
L 398.436183 65.683394 
L 398.78329 66.210019 
L 399.130398 65.879204 
L 399.477505 64.571186 
L 399.824613 62.28381 
L 400.518827 55.40487 
L 401.56015 43.753213 
L 402.254365 38.265117 
L 402.601472 36.537245 
L 402.94858 35.438437 
L 402.94858 35.438437 
" style="fill:none;stroke:#2ca02c;stroke-linecap:square;stroke-width:1.5;"/>
   </g>
   <g id="patch_3">
    <path d="M 30.103125 405.878437 
L 30.103125 17.798437 
" style="fill:none;stroke:#000000;stroke-linecap:square;stroke-linejoin:miter;stroke-width:0.8;"/>
   </g>
   <g id="patch_4">
    <path d="M 420.703125 405.878437 
L 420.703125 17.798437 
" style="fill:none;stroke:#000000;stroke-linecap:square;stroke-linejoin:miter;stroke-width:0.8;"/>
   </g>
   <g id="patch_5">
    <path d="M 30.103125 405.878437 
L 420.703125 405.878437 
" style="fill:none;stroke:#000000;stroke-linecap:square;stroke-linejoin:miter;stroke-width:0.8;"/>
   </g>
   <g id="patch_6">
    <path d="M 30.103125 17.798437 
L 420.703125 17.798437 
" style="fill:none;stroke:#000000;stroke-linecap:square;stroke-linejoin:miter;stroke-width:0.8;"/>
   </g>
  </g>
 </g>
 <defs>
  <clipPath id="pda841e71e0">
   <rect height="388.08" width="390.6" x="30.103125" y="17.798437"/>
  </clipPath>
 </defs>
</svg>
