<?xml version="1.0" encoding="utf-8" standalone="no"?>
<!DOCTYPE svg PUBLIC "-//W3C//DTD SVG 1.1//EN"
  "http://www.w3.org/Graphics/SVG/1.1/DTD/svg11.dtd">
<!-- Created with matplotlib (https://matplotlib.org/) -->
<svg height="596.076563pt" version="1.1" viewBox="0 0 260.503125 596.076563" width="260.503125pt" xmlns="http://www.w3.org/2000/svg" xmlns:xlink="http://www.w3.org/1999/xlink">
 <metadata>
  <rdf:RDF xmlns:cc="http://creativecommons.org/ns#" xmlns:dc="http://purl.org/dc/elements/1.1/" xmlns:rdf="http://www.w3.org/1999/02/22-rdf-syntax-ns#">
   <cc:Work>
    <dc:type rdf:resource="http://purl.org/dc/dcmitype/StillImage"/>
    <dc:date>2023-09-28T18:28:30.116652</dc:date>
    <dc:format>image/svg+xml</dc:format>
    <dc:creator>
     <cc:Agent>
      <dc:title>Matplotlib v3.3.4, https://matplotlib.org/</dc:title>
     </cc:Agent>
    </dc:creator>
   </cc:Work>
  </rdf:RDF>
 </metadata>
 <defs>
  <style type="text/css">*{stroke-linecap:butt;stroke-linejoin:round;}</style>
 </defs>
 <g id="figure_1">
  <g id="patch_1">
   <path d="M 0 596.076563 
L 260.503125 596.076563 
L 260.503125 0 
L 0 0 
z
" style="fill:#ffffff;"/>
  </g>
  <g id="axes_1">
   <g id="patch_2">
    <path d="M 30.103125 572.198438 
L 253.303125 572.198438 
L 253.303125 17.798438 
L 30.103125 17.798438 
z
" style="fill:none;"/>
   </g>
   <g id="matplotlib.axis_1">
    <g id="xtick_1">
     <g id="line2d_1">
      <defs>
       <path d="M 0 0 
L 0 3.5 
" id="m5aa1d4b8ac" style="stroke:#000000;stroke-width:0.8;"/>
      </defs>
      <g>
       <use style="stroke:#000000;stroke-width:0.8;" x="31.992737" xlink:href="#m5aa1d4b8ac" y="572.198438"/>
      </g>
     </g>
     <g id="text_1">
      <!-- −1.5 -->
      <g transform="translate(19.851331 586.796875)scale(0.1 -0.1)">
       <defs>
        <path d="M 10.59375 35.5 
L 73.1875 35.5 
L 73.1875 27.203125 
L 10.59375 27.203125 
z
" id="DejaVuSans-8722"/>
        <path d="M 12.40625 8.296875 
L 28.515625 8.296875 
L 28.515625 63.921875 
L 10.984375 60.40625 
L 10.984375 69.390625 
L 28.421875 72.90625 
L 38.28125 72.90625 
L 38.28125 8.296875 
L 54.390625 8.296875 
L 54.390625 0 
L 12.40625 0 
z
" id="DejaVuSans-49"/>
        <path d="M 10.6875 12.40625 
L 21 12.40625 
L 21 0 
L 10.6875 0 
z
" id="DejaVuSans-46"/>
        <path d="M 10.796875 72.90625 
L 49.515625 72.90625 
L 49.515625 64.59375 
L 19.828125 64.59375 
L 19.828125 46.734375 
Q 21.96875 47.46875 24.109375 47.828125 
Q 26.265625 48.1875 28.421875 48.1875 
Q 40.625 48.1875 47.75 41.5 
Q 54.890625 34.8125 54.890625 23.390625 
Q 54.890625 11.625 47.5625 5.09375 
Q 40.234375 -1.421875 26.90625 -1.421875 
Q 22.3125 -1.421875 17.546875 -0.640625 
Q 12.796875 0.140625 7.71875 1.703125 
L 7.71875 11.625 
Q 12.109375 9.234375 16.796875 8.0625 
Q 21.484375 6.890625 26.703125 6.890625 
Q 35.15625 6.890625 40.078125 11.328125 
Q 45.015625 15.765625 45.015625 23.390625 
Q 45.015625 31 40.078125 35.4375 
Q 35.15625 39.890625 26.703125 39.890625 
Q 22.75 39.890625 18.8125 39.015625 
Q 14.890625 38.140625 10.796875 36.28125 
z
" id="DejaVuSans-53"/>
       </defs>
       <use xlink:href="#DejaVuSans-8722"/>
       <use x="83.789062" xlink:href="#DejaVuSans-49"/>
       <use x="147.412109" xlink:href="#DejaVuSans-46"/>
       <use x="179.199219" xlink:href="#DejaVuSans-53"/>
      </g>
     </g>
    </g>
    <g id="xtick_2">
     <g id="line2d_2">
      <g>
       <use style="stroke:#000000;stroke-width:0.8;" x="74.265355" xlink:href="#m5aa1d4b8ac" y="572.198438"/>
      </g>
     </g>
     <g id="text_2">
      <!-- −1.0 -->
      <g transform="translate(62.123948 586.796875)scale(0.1 -0.1)">
       <defs>
        <path d="M 31.78125 66.40625 
Q 24.171875 66.40625 20.328125 58.90625 
Q 16.5 51.421875 16.5 36.375 
Q 16.5 21.390625 20.328125 13.890625 
Q 24.171875 6.390625 31.78125 6.390625 
Q 39.453125 6.390625 43.28125 13.890625 
Q 47.125 21.390625 47.125 36.375 
Q 47.125 51.421875 43.28125 58.90625 
Q 39.453125 66.40625 31.78125 66.40625 
z
M 31.78125 74.21875 
Q 44.046875 74.21875 50.515625 64.515625 
Q 56.984375 54.828125 56.984375 36.375 
Q 56.984375 17.96875 50.515625 8.265625 
Q 44.046875 -1.421875 31.78125 -1.421875 
Q 19.53125 -1.421875 13.0625 8.265625 
Q 6.59375 17.96875 6.59375 36.375 
Q 6.59375 54.828125 13.0625 64.515625 
Q 19.53125 74.21875 31.78125 74.21875 
z
" id="DejaVuSans-48"/>
       </defs>
       <use xlink:href="#DejaVuSans-8722"/>
       <use x="83.789062" xlink:href="#DejaVuSans-49"/>
       <use x="147.412109" xlink:href="#DejaVuSans-46"/>
       <use x="179.199219" xlink:href="#DejaVuSans-48"/>
      </g>
     </g>
    </g>
    <g id="xtick_3">
     <g id="line2d_3">
      <g>
       <use style="stroke:#000000;stroke-width:0.8;" x="116.537972" xlink:href="#m5aa1d4b8ac" y="572.198438"/>
      </g>
     </g>
     <g id="text_3">
      <!-- −0.5 -->
      <g transform="translate(104.396566 586.796875)scale(0.1 -0.1)">
       <use xlink:href="#DejaVuSans-8722"/>
       <use x="83.789062" xlink:href="#DejaVuSans-48"/>
       <use x="147.412109" xlink:href="#DejaVuSans-46"/>
       <use x="179.199219" xlink:href="#DejaVuSans-53"/>
      </g>
     </g>
    </g>
    <g id="xtick_4">
     <g id="line2d_4">
      <g>
       <use style="stroke:#000000;stroke-width:0.8;" x="158.810589" xlink:href="#m5aa1d4b8ac" y="572.198438"/>
      </g>
     </g>
     <g id="text_4">
      <!-- 0.0 -->
      <g transform="translate(150.859026 586.796875)scale(0.1 -0.1)">
       <use xlink:href="#DejaVuSans-48"/>
       <use x="63.623047" xlink:href="#DejaVuSans-46"/>
       <use x="95.410156" xlink:href="#DejaVuSans-48"/>
      </g>
     </g>
    </g>
    <g id="xtick_5">
     <g id="line2d_5">
      <g>
       <use style="stroke:#000000;stroke-width:0.8;" x="201.083206" xlink:href="#m5aa1d4b8ac" y="572.198438"/>
      </g>
     </g>
     <g id="text_5">
      <!-- 0.5 -->
      <g transform="translate(193.131644 586.796875)scale(0.1 -0.1)">
       <use xlink:href="#DejaVuSans-48"/>
       <use x="63.623047" xlink:href="#DejaVuSans-46"/>
       <use x="95.410156" xlink:href="#DejaVuSans-53"/>
      </g>
     </g>
    </g>
    <g id="xtick_6">
     <g id="line2d_6">
      <g>
       <use style="stroke:#000000;stroke-width:0.8;" x="243.355823" xlink:href="#m5aa1d4b8ac" y="572.198438"/>
      </g>
     </g>
     <g id="text_6">
      <!-- 1.0 -->
      <g transform="translate(235.404261 586.796875)scale(0.1 -0.1)">
       <use xlink:href="#DejaVuSans-49"/>
       <use x="63.623047" xlink:href="#DejaVuSans-46"/>
       <use x="95.410156" xlink:href="#DejaVuSans-48"/>
      </g>
     </g>
    </g>
   </g>
   <g id="matplotlib.axis_2">
    <g id="ytick_1">
     <g id="line2d_7">
      <defs>
       <path d="M 0 0 
L -3.5 0 
" id="m71325d5629" style="stroke:#000000;stroke-width:0.8;"/>
      </defs>
      <g>
       <use style="stroke:#000000;stroke-width:0.8;" x="30.103125" xlink:href="#m71325d5629" y="526.164916"/>
      </g>
     </g>
     <g id="text_7">
      <!-- 0.2 -->
      <g transform="translate(7.2 529.964135)scale(0.1 -0.1)">
       <defs>
        <path d="M 19.1875 8.296875 
L 53.609375 8.296875 
L 53.609375 0 
L 7.328125 0 
L 7.328125 8.296875 
Q 12.9375 14.109375 22.625 23.890625 
Q 32.328125 33.6875 34.8125 36.53125 
Q 39.546875 41.84375 41.421875 45.53125 
Q 43.3125 49.21875 43.3125 52.78125 
Q 43.3125 58.59375 39.234375 62.25 
Q 35.15625 65.921875 28.609375 65.921875 
Q 23.96875 65.921875 18.8125 64.3125 
Q 13.671875 62.703125 7.8125 59.421875 
L 7.8125 69.390625 
Q 13.765625 71.78125 18.9375 73 
Q 24.125 74.21875 28.421875 74.21875 
Q 39.75 74.21875 46.484375 68.546875 
Q 53.21875 62.890625 53.21875 53.421875 
Q 53.21875 48.921875 51.53125 44.890625 
Q 49.859375 40.875 45.40625 35.40625 
Q 44.1875 33.984375 37.640625 27.21875 
Q 31.109375 20.453125 19.1875 8.296875 
z
" id="DejaVuSans-50"/>
       </defs>
       <use xlink:href="#DejaVuSans-48"/>
       <use x="63.623047" xlink:href="#DejaVuSans-46"/>
       <use x="95.410156" xlink:href="#DejaVuSans-50"/>
      </g>
     </g>
    </g>
    <g id="ytick_2">
     <g id="line2d_8">
      <g>
       <use style="stroke:#000000;stroke-width:0.8;" x="30.103125" xlink:href="#m71325d5629" y="449.537044"/>
      </g>
     </g>
     <g id="text_8">
      <!-- 0.4 -->
      <g transform="translate(7.2 453.336263)scale(0.1 -0.1)">
       <defs>
        <path d="M 37.796875 64.3125 
L 12.890625 25.390625 
L 37.796875 25.390625 
z
M 35.203125 72.90625 
L 47.609375 72.90625 
L 47.609375 25.390625 
L 58.015625 25.390625 
L 58.015625 17.1875 
L 47.609375 17.1875 
L 47.609375 0 
L 37.796875 0 
L 37.796875 17.1875 
L 4.890625 17.1875 
L 4.890625 26.703125 
z
" id="DejaVuSans-52"/>
       </defs>
       <use xlink:href="#DejaVuSans-48"/>
       <use x="63.623047" xlink:href="#DejaVuSans-46"/>
       <use x="95.410156" xlink:href="#DejaVuSans-52"/>
      </g>
     </g>
    </g>
    <g id="ytick_3">
     <g id="line2d_9">
      <g>
       <use style="stroke:#000000;stroke-width:0.8;" x="30.103125" xlink:href="#m71325d5629" y="372.909172"/>
      </g>
     </g>
     <g id="text_9">
      <!-- 0.6 -->
      <g transform="translate(7.2 376.708391)scale(0.1 -0.1)">
       <defs>
        <path d="M 33.015625 40.375 
Q 26.375 40.375 22.484375 35.828125 
Q 18.609375 31.296875 18.609375 23.390625 
Q 18.609375 15.53125 22.484375 10.953125 
Q 26.375 6.390625 33.015625 6.390625 
Q 39.65625 6.390625 43.53125 10.953125 
Q 47.40625 15.53125 47.40625 23.390625 
Q 47.40625 31.296875 43.53125 35.828125 
Q 39.65625 40.375 33.015625 40.375 
z
M 52.59375 71.296875 
L 52.59375 62.3125 
Q 48.875 64.0625 45.09375 64.984375 
Q 41.3125 65.921875 37.59375 65.921875 
Q 27.828125 65.921875 22.671875 59.328125 
Q 17.53125 52.734375 16.796875 39.40625 
Q 19.671875 43.65625 24.015625 45.921875 
Q 28.375 48.1875 33.59375 48.1875 
Q 44.578125 48.1875 50.953125 41.515625 
Q 57.328125 34.859375 57.328125 23.390625 
Q 57.328125 12.15625 50.6875 5.359375 
Q 44.046875 -1.421875 33.015625 -1.421875 
Q 20.359375 -1.421875 13.671875 8.265625 
Q 6.984375 17.96875 6.984375 36.375 
Q 6.984375 53.65625 15.1875 63.9375 
Q 23.390625 74.21875 37.203125 74.21875 
Q 40.921875 74.21875 44.703125 73.484375 
Q 48.484375 72.75 52.59375 71.296875 
z
" id="DejaVuSans-54"/>
       </defs>
       <use xlink:href="#DejaVuSans-48"/>
       <use x="63.623047" xlink:href="#DejaVuSans-46"/>
       <use x="95.410156" xlink:href="#DejaVuSans-54"/>
      </g>
     </g>
    </g>
    <g id="ytick_4">
     <g id="line2d_10">
      <g>
       <use style="stroke:#000000;stroke-width:0.8;" x="30.103125" xlink:href="#m71325d5629" y="296.2813"/>
      </g>
     </g>
     <g id="text_10">
      <!-- 0.8 -->
      <g transform="translate(7.2 300.080519)scale(0.1 -0.1)">
       <defs>
        <path d="M 31.78125 34.625 
Q 24.75 34.625 20.71875 30.859375 
Q 16.703125 27.09375 16.703125 20.515625 
Q 16.703125 13.921875 20.71875 10.15625 
Q 24.75 6.390625 31.78125 6.390625 
Q 38.8125 6.390625 42.859375 10.171875 
Q 46.921875 13.96875 46.921875 20.515625 
Q 46.921875 27.09375 42.890625 30.859375 
Q 38.875 34.625 31.78125 34.625 
z
M 21.921875 38.8125 
Q 15.578125 40.375 12.03125 44.71875 
Q 8.5 49.078125 8.5 55.328125 
Q 8.5 64.0625 14.71875 69.140625 
Q 20.953125 74.21875 31.78125 74.21875 
Q 42.671875 74.21875 48.875 69.140625 
Q 55.078125 64.0625 55.078125 55.328125 
Q 55.078125 49.078125 51.53125 44.71875 
Q 48 40.375 41.703125 38.8125 
Q 48.828125 37.15625 52.796875 32.3125 
Q 56.78125 27.484375 56.78125 20.515625 
Q 56.78125 9.90625 50.3125 4.234375 
Q 43.84375 -1.421875 31.78125 -1.421875 
Q 19.734375 -1.421875 13.25 4.234375 
Q 6.78125 9.90625 6.78125 20.515625 
Q 6.78125 27.484375 10.78125 32.3125 
Q 14.796875 37.15625 21.921875 38.8125 
z
M 18.3125 54.390625 
Q 18.3125 48.734375 21.84375 45.5625 
Q 25.390625 42.390625 31.78125 42.390625 
Q 38.140625 42.390625 41.71875 45.5625 
Q 45.3125 48.734375 45.3125 54.390625 
Q 45.3125 60.0625 41.71875 63.234375 
Q 38.140625 66.40625 31.78125 66.40625 
Q 25.390625 66.40625 21.84375 63.234375 
Q 18.3125 60.0625 18.3125 54.390625 
z
" id="DejaVuSans-56"/>
       </defs>
       <use xlink:href="#DejaVuSans-48"/>
       <use x="63.623047" xlink:href="#DejaVuSans-46"/>
       <use x="95.410156" xlink:href="#DejaVuSans-56"/>
      </g>
     </g>
    </g>
    <g id="ytick_5">
     <g id="line2d_11">
      <g>
       <use style="stroke:#000000;stroke-width:0.8;" x="30.103125" xlink:href="#m71325d5629" y="219.653428"/>
      </g>
     </g>
     <g id="text_11">
      <!-- 1.0 -->
      <g transform="translate(7.2 223.452647)scale(0.1 -0.1)">
       <use xlink:href="#DejaVuSans-49"/>
       <use x="63.623047" xlink:href="#DejaVuSans-46"/>
       <use x="95.410156" xlink:href="#DejaVuSans-48"/>
      </g>
     </g>
    </g>
    <g id="ytick_6">
     <g id="line2d_12">
      <g>
       <use style="stroke:#000000;stroke-width:0.8;" x="30.103125" xlink:href="#m71325d5629" y="143.025556"/>
      </g>
     </g>
     <g id="text_12">
      <!-- 1.2 -->
      <g transform="translate(7.2 146.824775)scale(0.1 -0.1)">
       <use xlink:href="#DejaVuSans-49"/>
       <use x="63.623047" xlink:href="#DejaVuSans-46"/>
       <use x="95.410156" xlink:href="#DejaVuSans-50"/>
      </g>
     </g>
    </g>
    <g id="ytick_7">
     <g id="line2d_13">
      <g>
       <use style="stroke:#000000;stroke-width:0.8;" x="30.103125" xlink:href="#m71325d5629" y="66.397684"/>
      </g>
     </g>
     <g id="text_13">
      <!-- 1.4 -->
      <g transform="translate(7.2 70.196903)scale(0.1 -0.1)">
       <use xlink:href="#DejaVuSans-49"/>
       <use x="63.623047" xlink:href="#DejaVuSans-46"/>
       <use x="95.410156" xlink:href="#DejaVuSans-52"/>
      </g>
     </g>
    </g>
    <g id="text_14">
     <!-- 1e−10 -->
     <g transform="translate(30.103125 14.798438)scale(0.1 -0.1)">
      <defs>
       <path d="M 56.203125 29.59375 
L 56.203125 25.203125 
L 14.890625 25.203125 
Q 15.484375 15.921875 20.484375 11.0625 
Q 25.484375 6.203125 34.421875 6.203125 
Q 39.59375 6.203125 44.453125 7.46875 
Q 49.3125 8.734375 54.109375 11.28125 
L 54.109375 2.78125 
Q 49.265625 0.734375 44.1875 -0.34375 
Q 39.109375 -1.421875 33.890625 -1.421875 
Q 20.796875 -1.421875 13.15625 6.1875 
Q 5.515625 13.8125 5.515625 26.8125 
Q 5.515625 40.234375 12.765625 48.109375 
Q 20.015625 56 32.328125 56 
Q 43.359375 56 49.78125 48.890625 
Q 56.203125 41.796875 56.203125 29.59375 
z
M 47.21875 32.234375 
Q 47.125 39.59375 43.09375 43.984375 
Q 39.0625 48.390625 32.421875 48.390625 
Q 24.90625 48.390625 20.390625 44.140625 
Q 15.875 39.890625 15.1875 32.171875 
z
" id="DejaVuSans-101"/>
      </defs>
      <use xlink:href="#DejaVuSans-49"/>
      <use x="63.623047" xlink:href="#DejaVuSans-101"/>
      <use x="125.146484" xlink:href="#DejaVuSans-8722"/>
      <use x="208.935547" xlink:href="#DejaVuSans-49"/>
      <use x="272.558594" xlink:href="#DejaVuSans-48"/>
     </g>
    </g>
   </g>
   <g id="line2d_14">
    <path clip-path="url(#p97760d7f8f)" d="M 40.447261 525.921331 
L 40.843567 526.087987 
L 41.636178 526.502177 
L 42.032484 526.474272 
L 43.221401 526.133561 
L 44.212166 526.283356 
L 44.608472 525.865549 
L 45.401083 524.454052 
L 45.599236 524.34295 
L 45.797389 524.444449 
L 46.193695 525.280117 
L 47.382612 529.106294 
L 47.778918 529.625126 
L 47.977071 529.67313 
L 48.373377 529.461856 
L 49.165988 528.859635 
L 49.9586 528.38785 
L 50.949364 527.461473 
L 51.34567 527.39621 
L 52.336434 527.721601 
L 52.930893 528.050729 
L 53.723505 528.668739 
L 54.11981 528.610584 
L 55.110575 527.900254 
L 55.506881 528.011445 
L 55.903187 528.502547 
L 56.893951 530.196601 
L 57.290257 530.271784 
L 58.281021 529.665898 
L 58.677327 529.784808 
L 59.271786 530.047106 
L 60.064397 530.025901 
L 61.055162 529.926599 
L 61.64962 529.460928 
L 62.244079 529.035131 
L 64.225608 528.477756 
L 64.820067 528.668693 
L 65.414525 529.100614 
L 66.40529 530.004749 
L 66.801596 530.008466 
L 67.197901 529.604768 
L 68.386819 527.713129 
L 68.783125 527.592917 
L 69.377583 527.829126 
L 69.773889 527.948635 
L 70.170195 527.840579 
L 70.764653 527.270128 
L 71.359112 526.677902 
L 71.953571 526.43854 
L 72.746182 526.252286 
L 73.538794 525.960887 
L 73.9351 526.033385 
L 74.529558 526.469392 
L 75.124017 526.906158 
L 75.718476 527.095726 
L 76.511087 527.346514 
L 76.907393 527.678155 
L 77.501852 528.523515 
L 78.294463 530.203764 
L 79.285228 532.87779 
L 81.663063 539.917586 
L 82.455674 541.319319 
L 83.248286 542.319464 
L 84.040897 542.996693 
L 85.62612 543.999127 
L 86.418732 544.197737 
L 87.013191 544.1385 
L 87.805802 543.807296 
L 89.192873 543.098207 
L 92.561472 542.195497 
L 93.552236 542.195796 
L 94.344848 542.435201 
L 95.533765 543.053185 
L 98.902364 545.309572 
L 100.487587 545.833912 
L 102.270963 546.195484 
L 104.846951 546.60107 
L 105.837716 546.810546 
L 106.630327 546.699719 
L 108.21555 546.310102 
L 110.791538 546.248277 
L 113.169373 546.321054 
L 114.35829 546.362621 
L 116.339819 546.528491 
L 118.123195 546.596729 
L 119.708418 546.703145 
L 123.077017 546.419186 
L 126.247464 546.470055 
L 127.634534 546.4915 
L 129.814216 546.78228 
L 130.606827 546.856117 
L 131.597592 546.676498 
L 132.984662 546.382744 
L 133.975426 546.463423 
L 135.758802 546.597767 
L 137.145873 546.560715 
L 138.929249 546.515359 
L 140.514472 546.505265 
L 141.703389 546.558759 
L 142.694154 546.568997 
L 145.666447 546.368285 
L 147.846129 546.369273 
L 150.025811 546.436928 
L 151.809187 546.573753 
L 152.799951 546.338043 
L 153.790716 546.14274 
L 154.583327 546.217203 
L 159.140844 546.998438 
L 159.933455 546.908909 
L 161.914984 546.482605 
L 166.076195 546.392674 
L 167.661418 546.599164 
L 169.246641 546.572821 
L 175.191228 546.412269 
L 177.172757 546.44713 
L 178.75798 546.327025 
L 181.730274 546.483975 
L 183.315497 546.46605 
L 184.90072 546.598258 
L 189.656389 546.374602 
L 195.20467 546.508907 
L 196.393588 546.524833 
L 198.176964 546.487317 
L 199.564034 546.493006 
L 201.941869 546.465551 
L 207.886455 546.494944 
L 211.255055 546.696781 
L 212.245819 546.606823 
L 213.632889 546.208639 
L 214.623654 545.962921 
L 218.586712 545.467992 
L 220.766394 544.891771 
L 222.351617 544.676699 
L 223.540534 544.45837 
L 227.701745 544.168709 
L 230.07958 543.823599 
L 231.070344 543.870416 
L 232.457414 543.969149 
L 233.646332 544.136965 
L 234.24079 544.135628 
L 236.024166 543.870414 
L 237.213084 543.881509 
L 238.005695 543.588589 
L 239.392765 542.949311 
L 239.987224 542.975576 
L 241.374294 543.445477 
L 241.968753 543.271114 
L 243.15767 542.770483 
L 243.15767 542.770483 
" style="fill:none;stroke:#add8e6;stroke-linecap:square;stroke-width:1.5;"/>
   </g>
   <g id="line2d_15">
    <path clip-path="url(#p97760d7f8f)" d="M 40.447261 494.263481 
L 40.843179 494.432806 
L 41.239098 494.817501 
L 41.832975 495.766895 
L 43.02073 497.885367 
L 43.614608 498.546878 
L 44.604404 499.287771 
L 45.198282 499.569999 
L 45.792159 499.621629 
L 46.583996 499.664878 
L 47.96971 500.117057 
L 48.563588 499.899801 
L 49.157466 499.665774 
L 49.553384 499.679838 
L 50.345221 500.034425 
L 51.532976 500.800955 
L 52.126854 501.134786 
L 52.522772 501.147545 
L 53.11665 500.820594 
L 53.908486 500.311815 
L 54.304405 500.227679 
L 54.700323 500.312181 
L 55.294201 500.721198 
L 56.086038 501.344172 
L 56.481956 501.398035 
L 56.877874 501.227258 
L 57.86767 500.558324 
L 58.263589 500.525525 
L 58.857466 500.828785 
L 60.243181 501.842596 
L 60.639099 501.888353 
L 61.035018 501.725539 
L 61.628895 501.087382 
L 62.618691 499.881172 
L 63.212569 499.57055 
L 65.192161 499.150273 
L 65.786038 499.372414 
L 66.775834 499.856226 
L 67.171753 499.804664 
L 67.76563 499.439853 
L 69.349304 498.204216 
L 70.537059 497.412762 
L 72.516651 495.903775 
L 72.912569 495.833691 
L 73.308488 495.982506 
L 73.704406 496.399135 
L 74.298284 497.412264 
L 75.090121 499.26281 
L 76.277876 502.676805 
L 78.851345 510.543551 
L 80.039101 513.053734 
L 81.424815 515.526321 
L 82.414611 516.842114 
L 83.008489 517.362885 
L 83.602366 517.600922 
L 84.394203 517.612544 
L 86.373795 517.304371 
L 87.759509 516.888005 
L 88.947265 516.336897 
L 90.926856 515.233868 
L 91.916652 515.080115 
L 93.104408 515.113428 
L 94.292163 515.411237 
L 95.281959 515.902169 
L 96.271755 516.701173 
L 98.053388 518.170245 
L 99.043184 518.727867 
L 100.03298 518.984082 
L 106.961552 519.957343 
L 109.93094 519.618939 
L 111.910532 519.799887 
L 116.661552 519.564158 
L 120.422777 519.613515 
L 121.610532 519.558284 
L 123.392165 519.734985 
L 124.975839 519.837166 
L 127.351349 519.74602 
L 129.132982 519.702316 
L 132.498288 519.80453 
L 133.884003 519.81982 
L 136.259513 519.663311 
L 138.239105 519.725808 
L 145.167677 519.661854 
L 146.751351 519.854628 
L 152.294208 519.561214 
L 153.284004 519.507005 
L 157.045229 519.883118 
L 158.430943 520.158556 
L 159.420739 520.09291 
L 160.608494 519.779143 
L 161.59829 519.528835 
L 162.390127 519.548868 
L 163.973801 519.718046 
L 166.74523 519.751378 
L 168.922781 519.93543 
L 170.902373 519.704485 
L 173.277883 519.578003 
L 174.663598 519.584117 
L 176.44523 519.650065 
L 178.028904 519.688751 
L 179.810537 519.750972 
L 182.977884 519.620248 
L 184.561557 519.764846 
L 185.749313 519.550843 
L 186.937068 519.388313 
L 188.124823 519.495219 
L 189.510537 519.605928 
L 196.637069 519.575281 
L 197.824824 519.632891 
L 205.149314 519.548264 
L 207.722784 519.696074 
L 209.306457 519.803187 
L 211.08809 519.935153 
L 212.275845 519.832122 
L 213.66156 519.473208 
L 215.443192 518.991874 
L 218.214621 518.530566 
L 220.392172 517.865355 
L 226.330948 516.741027 
L 229.102377 516.58907 
L 231.279928 516.580782 
L 233.061561 516.035159 
L 234.447275 515.736974 
L 235.239112 515.741801 
L 236.228908 516.033057 
L 237.218704 516.33449 
L 238.010541 516.340929 
L 239.000337 516.068875 
L 240.188092 515.727115 
L 240.979929 515.736457 
L 241.969725 515.733596 
L 242.761562 515.397363 
L 242.959521 515.294954 
L 242.959521 515.294954 
" style="fill:none;stroke:#add8e6;stroke-linecap:square;stroke-width:1.5;"/>
   </g>
   <g id="line2d_16">
    <path clip-path="url(#p97760d7f8f)" d="M 40.24858 482.579384 
L 41.041192 482.376964 
L 42.031959 482.228942 
L 42.824571 481.720292 
L 43.617184 481.233373 
L 44.013491 481.216257 
L 44.409797 481.377737 
L 45.400563 482.255309 
L 46.391329 483.026092 
L 46.985789 483.263952 
L 47.580249 483.282524 
L 48.571015 482.983169 
L 49.759934 482.697148 
L 51.147007 482.662856 
L 52.335926 482.872497 
L 53.326692 482.985908 
L 55.308225 482.82662 
L 55.902684 483.155037 
L 57.289757 484.126892 
L 57.884216 484.195578 
L 59.667595 484.009111 
L 60.856515 484.202309 
L 62.838047 484.261802 
L 64.22512 484.600737 
L 64.819579 484.439218 
L 65.414039 484.01403 
L 66.999265 482.627243 
L 67.593724 482.431456 
L 68.782644 482.432542 
L 69.77341 482.344441 
L 72.745708 481.799158 
L 73.934628 482.04267 
L 76.906926 482.841885 
L 77.699539 483.441288 
L 78.888458 484.731911 
L 82.05891 488.387455 
L 83.644135 489.917801 
L 84.634902 490.596934 
L 85.427514 490.905147 
L 86.418281 491.00514 
L 87.805353 490.823704 
L 89.786885 490.531746 
L 90.777651 490.640449 
L 92.759184 491.218958 
L 96.524095 492.31888 
L 99.29824 492.60589 
L 101.279772 492.70919 
L 103.657611 492.818119 
L 107.422522 493.013444 
L 110.98928 492.830512 
L 113.367119 492.790675 
L 115.943111 492.848572 
L 121.293248 492.630427 
L 125.454466 492.799232 
L 127.832304 492.616168 
L 131.200909 492.790221 
L 133.182441 492.816193 
L 135.758433 492.844159 
L 139.523344 492.722547 
L 142.099336 492.927521 
L 152.006997 492.8284 
L 155.177449 492.717404 
L 156.564522 492.963709 
L 158.546054 493.347717 
L 159.53682 493.319379 
L 162.707272 492.91609 
L 166.670336 492.909153 
L 168.057409 492.88745 
L 170.435247 492.971376 
L 172.41678 492.913641 
L 175.785384 492.960223 
L 178.163223 492.825995 
L 180.144755 492.762542 
L 183.51336 492.840378 
L 185.296739 492.919123 
L 186.683812 492.894867 
L 189.854263 492.646717 
L 194.411787 492.809201 
L 197.780392 492.945137 
L 199.365618 492.897159 
L 202.139763 492.703028 
L 205.508368 492.832666 
L 206.89544 492.936324 
L 208.876973 493.160012 
L 212.047424 493.029176 
L 217.595714 492.252871 
L 220.964319 492.291788 
L 222.945851 492.269722 
L 224.531077 492.205457 
L 226.908916 491.974257 
L 229.088601 491.852739 
L 233.051666 491.575823 
L 237.807343 491.726178 
L 242.166714 491.220233 
L 242.959327 491.079342 
L 242.959327 491.079342 
" style="fill:none;stroke:#add8e6;stroke-linecap:square;stroke-width:1.5;"/>
   </g>
   <g id="line2d_17">
    <path clip-path="url(#p97760d7f8f)" d="M 40.422743 447.054176 
L 40.818854 446.713272 
L 41.214966 446.613869 
L 41.611078 446.838941 
L 42.205245 447.613006 
L 43.195524 448.986088 
L 43.789691 449.471633 
L 44.383859 449.695692 
L 45.374138 449.979891 
L 46.958584 450.807029 
L 47.354696 450.737545 
L 47.948863 450.317215 
L 48.939142 449.545947 
L 49.533309 449.358256 
L 50.325533 449.3046 
L 50.721644 449.443726 
L 51.117756 449.818799 
L 51.513867 450.524254 
L 52.900258 453.499556 
L 53.29637 453.738268 
L 53.692481 453.635934 
L 54.880816 453.001441 
L 55.474983 453.021622 
L 56.267207 453.055591 
L 56.861374 452.782044 
L 58.247765 451.891479 
L 58.841932 451.959528 
L 60.426378 452.503167 
L 62.604992 452.415367 
L 63.397215 452.410863 
L 64.189439 452.146735 
L 66.368052 451.144946 
L 67.952499 450.827032 
L 70.329168 449.772184 
L 71.517503 449.656694 
L 72.507782 449.55207 
L 73.300005 449.215044 
L 74.092228 448.872612 
L 74.686396 448.891711 
L 75.082507 449.107897 
L 75.676675 449.741079 
L 76.468898 450.997574 
L 78.647512 455.049648 
L 81.420293 460.734607 
L 82.410572 462.082599 
L 83.202795 462.876302 
L 83.995018 463.407177 
L 84.787242 463.691175 
L 85.777521 463.779274 
L 86.965855 463.675715 
L 88.352246 463.276944 
L 89.738636 462.907937 
L 90.728915 462.876895 
L 92.313362 463.125091 
L 94.095864 463.572601 
L 95.284199 464.19407 
L 96.472534 464.766773 
L 98.651147 465.476108 
L 100.235594 465.702809 
L 106.177268 466.299699 
L 109.34616 466.064969 
L 110.930607 465.980482 
L 112.515053 465.963648 
L 119.843118 466.024143 
L 121.229508 465.983829 
L 123.012011 466.07527 
L 125.586736 465.972738 
L 128.161461 466.12209 
L 129.943963 466.049795 
L 132.9148 466.169308 
L 134.499247 465.984769 
L 135.687582 465.903968 
L 142.025367 466.107005 
L 146.382595 465.974544 
L 150.937878 466.155069 
L 152.126213 466.271 
L 156.879552 466.276922 
L 159.454277 466.456988 
L 162.029003 466.106509 
L 164.603728 466.19876 
L 166.980398 465.973825 
L 168.960956 465.929184 
L 171.337625 466.037363 
L 175.298741 465.929588 
L 180.448192 466.098099 
L 183.220973 466.174043 
L 184.80542 466.255821 
L 186.984033 466.013971 
L 188.964591 465.844299 
L 192.529596 465.906848 
L 194.114042 465.869514 
L 197.282935 466.030985 
L 199.263493 465.78753 
L 201.640162 465.867426 
L 204.610999 465.988317 
L 207.383781 466.025282 
L 211.344897 466.175465 
L 212.731287 466.28226 
L 213.721566 466.132891 
L 216.494347 465.437058 
L 218.672961 465.141491 
L 220.653519 464.811757 
L 226.991305 464.193626 
L 228.575751 464.144013 
L 230.556309 463.807581 
L 231.744644 463.953046 
L 233.527146 464.184047 
L 234.913537 464.127059 
L 238.478541 463.792238 
L 239.666876 463.644944 
L 241.449378 463.216823 
L 242.439657 463.333672 
L 243.033824 463.484312 
L 243.033824 463.484312 
" style="fill:none;stroke:#add8e6;stroke-linecap:square;stroke-width:1.5;"/>
   </g>
   <g id="line2d_18">
    <path clip-path="url(#p97760d7f8f)" d="M 40.422743 416.653352 
L 41.01691 416.959181 
L 41.611078 416.936019 
L 42.205245 416.934424 
L 42.799412 417.203106 
L 43.987747 418.153101 
L 44.77997 418.712472 
L 45.176082 418.80628 
L 45.572193 418.725105 
L 46.760528 418.241828 
L 47.354696 418.292436 
L 49.335254 418.970915 
L 49.929421 419.475942 
L 51.315812 420.86138 
L 51.711923 420.941724 
L 52.306091 420.781427 
L 53.098314 420.495319 
L 53.890537 420.5032 
L 54.68276 420.511592 
L 55.474983 420.26418 
L 56.663318 419.576663 
L 57.455541 419.163471 
L 58.049709 419.100559 
L 59.238044 419.29662 
L 59.832211 419.029378 
L 60.624434 418.582544 
L 61.020546 418.552066 
L 62.803048 418.874431 
L 63.595271 418.921612 
L 64.783606 419.134121 
L 66.169996 418.871008 
L 66.96222 418.595532 
L 67.754443 417.960068 
L 68.744722 417.130494 
L 69.536945 416.804528 
L 70.527224 416.382411 
L 71.715559 415.825902 
L 72.903894 415.591402 
L 73.498061 415.628896 
L 74.092228 415.943362 
L 74.686396 416.58662 
L 75.478619 417.796238 
L 76.072786 419.000404 
L 76.666954 420.711303 
L 77.261121 423.056133 
L 79.043623 430.814717 
L 79.835847 433.000019 
L 80.430014 434.044291 
L 81.024181 434.730602 
L 81.816405 435.297433 
L 83.598907 436.172568 
L 84.39113 436.351897 
L 85.183353 436.330163 
L 86.173632 436.06495 
L 87.560023 435.425967 
L 89.342525 434.544855 
L 90.332804 434.400303 
L 91.719194 434.396488 
L 92.709473 434.601915 
L 93.897808 435.062903 
L 95.086143 435.753699 
L 98.453092 438.05835 
L 99.443371 438.450325 
L 101.423929 438.899641 
L 103.008375 439.000167 
L 104.19671 439.16107 
L 106.573379 439.641973 
L 107.761714 439.512688 
L 109.544216 439.294201 
L 113.901444 439.103907 
L 115.48589 439.09311 
L 118.852839 439.262244 
L 121.229508 439.124692 
L 123.012011 439.23874 
L 125.982848 439.214343 
L 127.369238 439.28102 
L 130.142019 439.155211 
L 131.924521 439.466134 
L 133.310912 439.375735 
L 135.489526 439.214164 
L 147.768985 439.233501 
L 150.937878 439.047369 
L 153.908715 439.144464 
L 155.295106 439.027734 
L 156.48344 439.197798 
L 159.256222 439.807676 
L 160.246501 439.64223 
L 162.029003 439.323272 
L 163.613449 439.275625 
L 165.990119 439.303926 
L 167.970677 439.080629 
L 181.438471 439.277518 
L 183.220973 439.269259 
L 185.795699 439.238744 
L 188.56848 439.077919 
L 190.549038 439.25315 
L 194.312098 439.256157 
L 196.490712 439.224489 
L 198.075158 439.105144 
L 200.253772 439.291845 
L 204.214888 439.14351 
L 207.779892 439.175539 
L 209.76045 439.23156 
L 212.335176 439.103769 
L 214.909901 438.670906 
L 217.484626 438.133794 
L 218.672961 437.697902 
L 220.257407 437.055242 
L 221.247686 436.899435 
L 223.030189 436.662754 
L 228.971863 435.37556 
L 232.338811 435.39828 
L 234.715481 435.292025 
L 239.666876 434.977122 
L 241.449378 434.72343 
L 242.637713 434.663808 
L 243.033824 434.568702 
L 243.033824 434.568702 
" style="fill:none;stroke:#add8e6;stroke-linecap:square;stroke-width:1.5;"/>
   </g>
   <g id="line2d_19">
    <path clip-path="url(#p97760d7f8f)" d="M 40.422743 385.810432 
L 41.413022 387.71349 
L 42.007189 388.572105 
L 42.403301 388.796915 
L 42.799412 388.655529 
L 43.195524 388.242564 
L 44.581914 386.431832 
L 44.978026 386.33505 
L 45.374138 386.448539 
L 45.968305 386.924831 
L 47.750807 388.677644 
L 48.146919 388.639631 
L 48.939142 388.370974 
L 49.335254 388.465774 
L 49.929421 389.060061 
L 50.9197 390.189433 
L 51.315812 390.361856 
L 52.702202 390.544845 
L 53.494425 391.270794 
L 54.088593 391.651078 
L 54.484704 391.601772 
L 54.880816 391.301624 
L 55.474983 390.518417 
L 56.267207 389.454989 
L 56.663318 389.195025 
L 57.05943 389.167252 
L 57.653597 389.466499 
L 58.247765 389.778969 
L 58.643876 389.79629 
L 59.039988 389.611899 
L 59.436099 389.18889 
L 60.030267 388.204855 
L 62.208881 384.014514 
L 63.001104 383.323796 
L 63.991383 382.534249 
L 64.783606 381.835336 
L 65.179717 381.732808 
L 65.575829 381.971121 
L 65.971941 382.522632 
L 67.358331 384.941646 
L 67.754443 385.164659 
L 68.150554 385.126083 
L 68.744722 384.758999 
L 70.131112 383.753495 
L 70.72528 383.56183 
L 71.319447 383.620578 
L 72.11167 383.988437 
L 73.101949 384.735439 
L 73.696117 385.452662 
L 74.290284 386.502551 
L 75.082507 388.469172 
L 76.270842 392.265126 
L 79.439735 402.572005 
L 80.62807 405.459329 
L 81.420293 406.929775 
L 82.01446 407.683821 
L 82.608628 408.153517 
L 83.202795 408.395121 
L 83.995018 408.459973 
L 85.975576 408.194109 
L 86.965855 407.925095 
L 88.15419 407.31769 
L 90.332804 406.10648 
L 90.926971 406.049083 
L 91.719194 406.219657 
L 92.907529 406.784055 
L 93.897808 407.460623 
L 96.670589 409.619493 
L 99.047259 411.020614 
L 100.235594 411.354945 
L 105.5831 412.613531 
L 106.573379 412.563694 
L 108.751993 412.335244 
L 113.307276 412.242514 
L 115.287834 412.288688 
L 118.852839 412.240132 
L 120.437285 412.261647 
L 122.417843 412.266773 
L 125.784792 412.365878 
L 128.359517 412.360839 
L 130.538131 412.395873 
L 132.716745 412.49853 
L 137.272028 412.414257 
L 139.05453 412.328043 
L 140.440921 412.385447 
L 141.827311 412.38392 
L 143.213702 412.347713 
L 145.392316 412.387379 
L 147.967041 412.414679 
L 149.749543 412.365269 
L 151.532045 412.35348 
L 154.106771 412.359865 
L 156.285385 412.422086 
L 159.454277 412.870638 
L 164.009561 412.21398 
L 165.395951 412.281291 
L 167.178454 412.391604 
L 169.753179 412.411868 
L 172.327904 412.489661 
L 175.100685 412.320008 
L 176.883188 412.458832 
L 181.438471 412.309564 
L 182.42875 412.242672 
L 186.19181 412.375588 
L 187.776257 412.324123 
L 190.945149 412.47676 
L 192.925707 412.257383 
L 195.500433 412.395614 
L 197.480991 412.30049 
L 200.847939 412.524156 
L 202.828497 412.385322 
L 205.205167 412.09964 
L 207.383781 412.109769 
L 208.572115 412.145229 
L 211.939064 412.530391 
L 213.325455 412.122289 
L 215.90018 411.381997 
L 217.880738 410.979343 
L 222.832133 409.270795 
L 225.604914 408.480749 
L 227.981584 407.983232 
L 230.160197 407.732029 
L 232.734923 407.190445 
L 236.101871 407.008963 
L 239.072708 406.815938 
L 242.835768 406.099605 
L 243.033824 406.08147 
L 243.033824 406.08147 
" style="fill:none;stroke:#add8e6;stroke-linecap:square;stroke-width:1.5;"/>
   </g>
   <g id="line2d_20">
    <path clip-path="url(#p97760d7f8f)" d="M 40.422743 356.439424 
L 41.01691 356.587875 
L 42.205245 356.680028 
L 42.601357 356.932527 
L 44.978026 359.186552 
L 45.770249 360.10107 
L 46.166361 360.271718 
L 46.562472 360.083176 
L 47.15664 359.301424 
L 47.750807 358.501519 
L 48.146919 358.291677 
L 48.54303 358.475858 
L 49.137198 359.294981 
L 49.929421 360.441303 
L 50.325533 360.716197 
L 50.721644 360.732331 
L 51.117756 360.565999 
L 51.711923 360.056011 
L 52.306091 359.321434 
L 52.900258 358.277999 
L 55.474983 353.098489 
L 56.069151 352.493287 
L 56.465262 352.428161 
L 56.861374 352.646302 
L 57.653597 353.273384 
L 58.049709 353.233062 
L 58.44582 352.765644 
L 59.039988 351.457269 
L 60.426378 347.783807 
L 61.020546 346.893224 
L 61.614713 346.520887 
L 62.208881 346.207319 
L 62.803048 345.57415 
L 63.991383 344.119923 
L 64.783606 343.239991 
L 65.575829 341.841869 
L 66.566108 340.184102 
L 68.150554 338.070909 
L 68.34861 338.034592 
L 68.546666 338.138679 
L 68.942778 338.828395 
L 69.338889 340.24856 
L 71.319447 348.686864 
L 72.11167 351.341566 
L 72.705838 354.136982 
L 73.498061 359.11161 
L 74.48834 365.248498 
L 75.082507 367.963864 
L 75.676675 369.874482 
L 76.270842 371.168538 
L 77.459177 373.41323 
L 78.053344 375.092741 
L 79.241679 378.711957 
L 79.835847 379.827598 
L 80.430014 380.384482 
L 81.024181 380.606729 
L 82.01446 380.650324 
L 83.598907 380.489321 
L 84.589186 380.144932 
L 85.579465 379.519535 
L 87.163911 378.477778 
L 90.926971 376.62424 
L 92.115306 376.498166 
L 93.501697 376.602071 
L 94.095864 376.820781 
L 94.690031 377.28887 
L 95.482255 378.308451 
L 98.453092 382.532599 
L 99.245315 383.259773 
L 100.43365 383.997689 
L 102.414208 384.906375 
L 103.998654 385.404541 
L 106.177268 385.814794 
L 107.365603 385.748601 
L 111.326718 385.379792 
L 115.089779 385.474716 
L 118.258671 385.420535 
L 120.239229 385.493608 
L 123.408122 385.614701 
L 132.9148 385.478751 
L 135.489526 385.363184 
L 136.875916 385.51159 
L 138.262307 385.641971 
L 139.648698 385.486249 
L 140.837032 385.418479 
L 142.81759 385.496204 
L 144.600093 385.383281 
L 148.363153 385.577897 
L 150.145655 385.537917 
L 152.72038 385.643816 
L 155.493161 385.618286 
L 156.681496 385.724701 
L 158.86011 386.081653 
L 159.652333 385.977081 
L 161.830947 385.420921 
L 167.772621 385.489089 
L 170.545402 385.644009 
L 172.922072 385.560803 
L 174.704574 385.641338 
L 179.655969 385.465314 
L 181.240415 385.658895 
L 189.162647 385.47771 
L 194.510154 385.50454 
L 197.877102 385.539954 
L 200.649883 385.655559 
L 204.610999 385.565474 
L 206.789613 385.474434 
L 209.364339 385.381603 
L 210.552673 385.344067 
L 211.542952 385.068994 
L 212.929343 384.382142 
L 215.107957 383.075404 
L 218.276849 380.802996 
L 219.66324 379.794134 
L 223.4263 377.794323 
L 226.397137 377.0032 
L 231.348532 376.271408 
L 232.932979 375.689818 
L 234.319369 375.20845 
L 236.101871 374.812214 
L 237.09215 374.843696 
L 238.478541 374.972713 
L 239.270764 374.732243 
L 240.657155 374.112499 
L 241.647434 373.997273 
L 243.033824 374.049624 
L 243.033824 374.049624 
" style="fill:none;stroke:#add8e6;stroke-linecap:square;stroke-width:1.5;"/>
   </g>
   <g id="line2d_21">
    <path clip-path="url(#p97760d7f8f)" d="M 40.422743 326.170488 
L 41.01691 326.364913 
L 41.611078 326.438491 
L 42.007189 326.677116 
L 42.403301 327.157737 
L 43.195524 328.738359 
L 43.789691 329.746482 
L 44.185803 329.998427 
L 44.383859 329.971833 
L 44.77997 329.612428 
L 45.968305 328.081169 
L 46.364417 327.922968 
L 46.760528 328.046656 
L 47.354696 328.570809 
L 48.146919 329.404028 
L 48.54303 329.565539 
L 48.939142 329.388538 
L 49.335254 328.860431 
L 51.315812 325.132901 
L 51.909979 324.719045 
L 52.504146 324.565304 
L 53.494425 324.609194 
L 54.286649 324.86389 
L 55.276928 325.252156 
L 55.871095 325.23431 
L 56.663318 324.961983 
L 57.455541 324.456265 
L 58.247765 323.56768 
L 59.238044 322.449749 
L 59.832211 322.16969 
L 60.82249 321.890678 
L 61.416657 321.475643 
L 63.397215 319.860653 
L 63.991383 319.680001 
L 64.783606 319.537595 
L 65.179717 319.274996 
L 65.773885 318.48892 
L 67.754443 314.945227 
L 68.34861 313.249929 
L 69.140833 310.755028 
L 69.536945 310.141022 
L 69.735001 310.115384 
L 69.933057 310.306075 
L 70.329168 311.479629 
L 70.923336 314.552951 
L 72.507782 324.128272 
L 73.894173 330.547758 
L 77.261121 345.414534 
L 78.2514 349.160458 
L 78.845568 350.790243 
L 79.439735 351.718135 
L 80.033902 352.120909 
L 80.826126 352.269135 
L 83.400851 352.373256 
L 83.995018 352.127405 
L 84.985297 351.408792 
L 87.361967 349.559159 
L 89.540581 348.163359 
L 90.134748 348.103158 
L 90.728915 348.254856 
L 91.719194 348.816161 
L 93.699752 350.20285 
L 94.888087 351.482793 
L 99.443371 356.41374 
L 100.43365 357.120643 
L 101.621984 357.658572 
L 103.008375 358.012059 
L 104.19671 358.345199 
L 105.979212 358.991482 
L 106.771435 359.012903 
L 111.326718 358.61894 
L 116.674225 358.698333 
L 118.654783 358.734861 
L 120.437285 358.50698 
L 121.62562 358.470116 
L 126.775071 358.849543 
L 129.547852 358.710659 
L 130.934242 358.806636 
L 132.320633 358.879646 
L 135.093414 358.791216 
L 137.073972 358.816254 
L 140.044809 358.664806 
L 142.421479 358.563681 
L 144.005925 358.742048 
L 145.19426 358.89723 
L 149.749543 358.668058 
L 151.730101 358.595669 
L 153.710659 358.625864 
L 155.493161 358.522691 
L 156.48344 358.759444 
L 158.662054 359.475065 
L 159.454277 359.405495 
L 161.830947 358.918375 
L 165.792063 358.823192 
L 167.574565 358.882335 
L 169.555123 358.881626 
L 171.535681 358.995286 
L 173.516239 358.784999 
L 176.090964 358.604997 
L 179.259857 358.592878 
L 181.438471 358.399353 
L 182.824862 358.580939 
L 184.013196 358.670261 
L 185.597643 358.752794 
L 187.182089 358.867324 
L 192.529596 358.672675 
L 193.71793 358.573321 
L 194.708209 358.725811 
L 195.896544 358.908796 
L 196.886823 358.811837 
L 198.47127 358.628734 
L 205.403223 358.743238 
L 211.741008 358.274727 
L 212.731287 357.81383 
L 214.117678 356.799603 
L 216.890459 354.518051 
L 219.465184 352.006187 
L 222.436021 349.313168 
L 223.624356 348.657906 
L 224.812691 348.227383 
L 226.001026 348.120011 
L 226.991305 347.973433 
L 227.783528 347.660555 
L 230.358253 346.411549 
L 231.348532 346.563831 
L 231.9427 346.54456 
L 232.536867 346.275578 
L 233.923258 345.352504 
L 234.517425 345.257641 
L 235.70576 345.220386 
L 236.894094 345.025196 
L 237.488262 345.183127 
L 238.874652 345.732693 
L 239.46882 345.745905 
L 240.062987 345.574452 
L 240.657155 345.209553 
L 241.449378 344.429868 
L 243.033824 342.573787 
L 243.033824 342.573787 
" style="fill:none;stroke:#add8e6;stroke-linecap:square;stroke-width:1.5;"/>
   </g>
   <g id="line2d_22">
    <path clip-path="url(#p97760d7f8f)" d="M 40.422743 297.120872 
L 40.818854 295.90852 
L 41.214966 295.384676 
L 41.413022 295.416908 
L 41.809133 296.017084 
L 42.601357 297.482697 
L 42.997468 297.727989 
L 43.39358 297.636084 
L 44.185803 297.205614 
L 44.581914 297.240647 
L 45.770249 297.776436 
L 46.166361 297.319561 
L 46.562472 296.209029 
L 47.354696 292.713334 
L 47.948863 290.263187 
L 48.344975 289.151878 
L 48.741086 288.569514 
L 49.137198 288.359081 
L 50.325533 288.234673 
L 50.9197 287.58016 
L 51.513867 286.901754 
L 51.909979 286.747833 
L 52.306091 286.898725 
L 52.900258 287.544107 
L 53.494425 288.192499 
L 53.890537 288.385237 
L 54.286649 288.318953 
L 54.880816 287.817909 
L 56.267207 286.201656 
L 56.861374 285.098849 
L 58.049709 282.202477 
L 58.841932 279.747865 
L 60.228323 274.776022 
L 60.624434 274.276684 
L 61.020546 274.227789 
L 61.614713 274.413131 
L 62.010825 274.343043 
L 62.604992 273.867749 
L 63.793327 272.619313 
L 64.189439 271.957906 
L 64.783606 270.497013 
L 66.368052 266.226911 
L 66.96222 265.415429 
L 67.160275 265.339906 
L 67.358331 265.390531 
L 67.754443 265.90701 
L 68.150554 267.120623 
L 68.744722 270.384233 
L 69.536945 276.700628 
L 70.527224 284.355 
L 71.913615 293.835667 
L 74.092228 312.320558 
L 74.884452 316.47412 
L 75.874731 320.377185 
L 76.666954 322.814541 
L 77.261121 324.061963 
L 77.855289 324.78336 
L 78.449456 325.130738 
L 79.241679 325.35527 
L 80.033902 325.350699 
L 80.62807 325.139468 
L 81.420293 324.592981 
L 83.202795 323.219208 
L 86.173632 321.450753 
L 87.163911 320.460533 
L 88.748357 318.775152 
L 89.540581 318.380621 
L 91.91725 317.623581 
L 92.511418 317.631367 
L 93.105585 317.851817 
L 93.699752 318.300258 
L 94.888087 319.600438 
L 95.878366 320.96599 
L 96.868645 322.746321 
L 98.453092 325.636468 
L 99.443371 326.849656 
L 102.612263 330.128229 
L 103.602542 330.779282 
L 105.385045 331.540203 
L 106.573379 331.879334 
L 107.761714 331.932987 
L 112.713109 331.885001 
L 114.0995 331.842062 
L 115.48589 331.805304 
L 119.24895 331.92319 
L 121.823676 331.760442 
L 123.804234 331.881001 
L 125.586736 331.842096 
L 127.76535 332.020092 
L 131.52841 331.849188 
L 132.9148 332.007064 
L 134.301191 332.111103 
L 137.272028 332.009407 
L 139.846753 331.848571 
L 141.035088 331.80593 
L 142.421479 331.702356 
L 143.411758 331.885311 
L 144.798148 332.167991 
L 145.986483 332.10339 
L 148.561209 331.888956 
L 156.285385 331.897785 
L 157.275664 332.191761 
L 158.265943 332.494781 
L 159.058166 332.484909 
L 160.048445 332.199433 
L 161.434835 331.815857 
L 162.62317 331.747852 
L 166.188175 331.80955 
L 167.376509 331.71288 
L 168.960956 331.884009 
L 171.13957 332.125512 
L 172.724016 332.028933 
L 174.308462 331.992406 
L 177.081243 332.069687 
L 178.66569 331.971716 
L 182.032638 331.925407 
L 183.617085 331.964866 
L 185.201531 332.023732 
L 187.974312 331.980344 
L 190.152926 331.920928 
L 198.47127 331.887255 
L 205.007111 331.819157 
L 206.789613 331.544241 
L 209.166283 331.310051 
L 210.156562 331.012172 
L 211.146841 330.471982 
L 212.13712 329.664548 
L 213.127399 328.481485 
L 214.513789 326.397644 
L 219.66324 318.28743 
L 221.049631 316.583175 
L 224.218523 313.264476 
L 225.208802 312.859794 
L 225.80297 312.540275 
L 226.793249 311.653049 
L 227.585472 311.043405 
L 228.377695 310.817403 
L 229.764086 310.783557 
L 230.556309 310.746984 
L 231.150476 310.458923 
L 231.744644 309.894622 
L 233.32909 308.239401 
L 234.121313 307.796932 
L 234.715481 307.710728 
L 235.309648 307.860273 
L 235.903816 308.296591 
L 237.488262 309.920153 
L 237.884373 309.889186 
L 238.280485 309.601232 
L 239.666876 308.150823 
L 240.459099 307.786172 
L 241.845489 307.151162 
L 243.033824 306.255274 
L 243.033824 306.255274 
" style="fill:none;stroke:#add8e6;stroke-linecap:square;stroke-width:1.5;"/>
   </g>
   <g id="line2d_23">
    <path clip-path="url(#p97760d7f8f)" d="M 40.422743 263.887638 
L 40.620799 263.836766 
L 41.01691 263.285538 
L 42.007189 261.219827 
L 42.205245 261.063206 
L 42.403301 261.05067 
L 42.799412 261.504879 
L 43.39358 262.841038 
L 44.383859 265.312122 
L 44.77997 265.87491 
L 44.978026 265.972404 
L 45.176082 265.919102 
L 45.374138 265.687434 
L 45.770249 264.626719 
L 46.958584 260.54214 
L 47.354696 260.130872 
L 47.750807 260.311751 
L 48.344975 260.819592 
L 48.741086 260.78783 
L 49.137198 260.287962 
L 49.533309 259.301886 
L 51.117756 254.561611 
L 51.513867 253.944705 
L 52.108035 253.495451 
L 54.088593 252.698685 
L 54.68276 251.906942 
L 55.474983 250.295739 
L 57.05943 246.830122 
L 57.653597 245.658824 
L 58.049709 244.415621 
L 58.44582 242.345776 
L 59.039988 237.785496 
L 59.832211 231.645395 
L 60.228323 230.063959 
L 60.426378 229.834462 
L 60.624434 229.887189 
L 61.020546 230.644407 
L 62.010825 233.293491 
L 62.406936 233.629476 
L 62.803048 233.573879 
L 63.19916 233.417408 
L 63.397215 233.449961 
L 63.595271 233.611139 
L 63.991383 234.431838 
L 64.387494 236.144681 
L 64.981662 240.019221 
L 68.34861 266.783177 
L 69.338889 274.498787 
L 70.72528 283.128873 
L 71.715559 288.296913 
L 72.507782 291.441944 
L 73.300005 293.817087 
L 74.092228 295.586873 
L 74.884452 296.776699 
L 75.478619 297.269666 
L 76.072786 297.474942 
L 77.261121 297.752474 
L 78.845568 298.511855 
L 79.439735 298.349589 
L 80.430014 298.007235 
L 81.816405 297.769762 
L 82.410572 297.300335 
L 84.193074 295.642824 
L 84.985297 295.326052 
L 86.173632 295.15861 
L 87.956134 294.956973 
L 88.550302 294.638748 
L 89.144469 294.053209 
L 90.926971 292.0913 
L 92.115306 290.909009 
L 93.897808 288.943659 
L 94.491976 288.622666 
L 95.086143 288.597862 
L 95.68031 288.82475 
L 96.472534 289.452424 
L 97.264757 290.412149 
L 98.05698 291.797766 
L 99.047259 294.136704 
L 100.037538 296.324631 
L 101.027817 297.869821 
L 103.998654 302.083074 
L 104.988933 302.965164 
L 106.375324 303.84533 
L 107.563658 304.402376 
L 108.751993 304.642986 
L 112.118942 305.020421 
L 114.0995 305.134886 
L 116.674225 305.157432 
L 120.041174 305.150765 
L 123.408122 304.925582 
L 125.982848 305.120102 
L 128.953685 304.883184 
L 138.064251 305.002744 
L 139.648698 305.041963 
L 142.81759 305.144114 
L 147.372874 304.955733 
L 149.353432 304.97705 
L 150.739822 305.041975 
L 151.928157 305.091117 
L 153.710659 304.82924 
L 154.700938 304.804389 
L 156.087329 305.061111 
L 158.463998 305.517164 
L 159.652333 305.538303 
L 160.840668 305.307321 
L 162.029003 305.131924 
L 165.197896 305.128019 
L 166.38623 305.036782 
L 167.574565 304.969367 
L 172.129848 305.120052 
L 173.714295 304.942664 
L 174.90263 304.860305 
L 184.013196 305.151935 
L 187.776257 305.027981 
L 190.350982 304.990229 
L 192.925707 305.152899 
L 196.688767 305.152143 
L 198.47127 305.181176 
L 202.432386 304.852095 
L 204.016832 304.790907 
L 205.205167 304.516618 
L 206.195446 304.083655 
L 207.581836 303.217496 
L 209.364339 301.866374 
L 210.354618 300.901935 
L 211.741008 299.195863 
L 212.929343 297.387847 
L 214.315734 294.860043 
L 217.088515 289.586054 
L 218.078794 288.316627 
L 219.267128 287.304185 
L 219.861296 286.666408 
L 220.653519 285.404338 
L 221.841854 283.450006 
L 222.634077 282.606109 
L 224.218523 281.379793 
L 224.812691 281.133587 
L 225.604914 281.075812 
L 226.595193 281.045558 
L 227.585472 280.760078 
L 229.169918 280.121226 
L 231.150476 279.014377 
L 231.9427 279.096846 
L 232.734923 279.108804 
L 234.121313 278.747061 
L 236.497983 278.218999 
L 237.290206 278.232236 
L 237.884373 277.979576 
L 238.478541 277.441826 
L 239.46882 276.43817 
L 239.864931 276.29163 
L 240.261043 276.367692 
L 241.647434 277.147895 
L 242.043545 276.935058 
L 242.637713 276.19758 
L 243.033824 275.633549 
L 243.033824 275.633549 
" style="fill:none;stroke:#add8e6;stroke-linecap:square;stroke-width:1.5;"/>
   </g>
   <g id="line2d_24">
    <path clip-path="url(#p97760d7f8f)" d="M 40.422743 228.594364 
L 40.818854 227.644578 
L 41.214966 226.100212 
L 41.809133 222.742074 
L 42.601357 218.329703 
L 42.997468 217.011419 
L 43.39358 216.364223 
L 43.789691 216.258765 
L 44.978026 216.334849 
L 45.770249 216.143999 
L 46.166361 216.248377 
L 46.562472 216.612935 
L 47.15664 217.618025 
L 47.948863 219.130936 
L 48.344975 219.449416 
L 48.54303 219.340753 
L 48.741086 219.036407 
L 49.137198 217.773048 
L 49.533309 215.477652 
L 51.117756 203.721439 
L 51.315812 203.151265 
L 51.513867 202.963424 
L 51.711923 203.040659 
L 52.108035 203.772108 
L 52.900258 205.668176 
L 53.29637 206.097496 
L 53.692481 206.057469 
L 54.088593 205.617297 
L 54.484704 204.682512 
L 55.078872 202.327032 
L 56.861374 193.288257 
L 57.257486 192.742337 
L 57.455541 192.821238 
L 57.851653 193.465547 
L 60.030267 199.245266 
L 60.624434 201.841046 
L 61.416657 206.708911 
L 62.406936 214.331242 
L 63.397215 224.122422 
L 64.783606 238.097 
L 65.575829 243.33389 
L 66.566108 249.78775 
L 67.556387 256.145457 
L 68.150554 258.81351 
L 68.942778 261.332155 
L 69.933057 263.662884 
L 71.517503 266.567699 
L 72.705838 268.409992 
L 73.498061 269.233297 
L 74.290284 269.728382 
L 75.082507 269.975209 
L 75.874731 270.030223 
L 76.86501 269.805425 
L 78.053344 269.507062 
L 79.043623 269.465506 
L 82.01446 269.61012 
L 83.400851 269.434002 
L 84.39113 269.125035 
L 85.183353 268.672222 
L 87.361967 267.149458 
L 88.748357 266.673353 
L 89.540581 265.992338 
L 90.728915 264.540452 
L 91.91725 263.090345 
L 92.709473 262.448933 
L 93.501697 262.089009 
L 94.29392 261.954384 
L 95.878366 261.821482 
L 96.868645 261.616706 
L 97.462813 261.781209 
L 98.05698 262.306857 
L 99.047259 263.649522 
L 100.235594 265.639555 
L 102.414208 269.463007 
L 103.800598 271.939463 
L 105.385045 274.975403 
L 106.177268 275.895272 
L 106.969491 276.427884 
L 109.34616 277.522808 
L 110.534495 277.885112 
L 113.703388 278.355927 
L 115.48589 278.318645 
L 119.24895 278.186787 
L 120.635341 278.293242 
L 123.606178 278.267679 
L 125.586736 278.402757 
L 129.943963 278.281171 
L 132.518689 278.405098 
L 134.895358 278.356252 
L 136.083693 278.240729 
L 137.470084 278.064458 
L 139.05453 278.199085 
L 140.440921 278.197947 
L 142.81759 278.139541 
L 144.996204 278.224469 
L 146.580651 278.254188 
L 148.95732 278.132652 
L 157.869831 278.653461 
L 158.86011 278.755438 
L 159.850389 278.572651 
L 161.23678 278.295621 
L 162.62317 278.318062 
L 167.178454 278.392063 
L 168.7629 278.156261 
L 171.535681 278.15591 
L 175.892909 278.470218 
L 181.438471 278.217614 
L 186.19181 278.304728 
L 187.578201 278.103996 
L 189.756815 278.217653 
L 197.877102 278.343383 
L 203.422665 278.139122 
L 204.809055 277.699213 
L 206.195446 277.065888 
L 207.185725 276.384389 
L 208.572115 275.131131 
L 209.562394 273.939536 
L 210.552673 272.410909 
L 211.741008 270.181736 
L 212.533231 268.224144 
L 215.504068 260.138422 
L 217.28657 256.496043 
L 218.871017 253.292144 
L 220.059352 250.881461 
L 220.851575 249.785295 
L 223.030189 247.269755 
L 223.822412 246.797918 
L 224.812691 246.224242 
L 225.80297 245.35205 
L 226.991305 244.337786 
L 227.585472 244.146487 
L 228.377695 244.216388 
L 229.764086 244.428686 
L 230.358253 244.309097 
L 230.754365 244.041734 
L 231.348532 243.345634 
L 232.734923 241.479193 
L 233.32909 241.067976 
L 234.319369 240.761013 
L 235.309648 240.64718 
L 236.497983 240.583522 
L 237.09215 240.265821 
L 237.686318 239.644395 
L 238.874652 237.907441 
L 239.666876 236.912059 
L 240.261043 236.576749 
L 242.439657 236.144426 
L 243.033824 236.088771 
L 243.033824 236.088771 
" style="fill:none;stroke:#add8e6;stroke-linecap:square;stroke-width:1.5;"/>
   </g>
   <g id="line2d_25">
    <path clip-path="url(#p97760d7f8f)" d="M 40.422743 189.557666 
L 40.620799 189.536762 
L 40.818854 189.330991 
L 41.214966 188.432208 
L 42.601357 184.302451 
L 42.997468 183.918301 
L 43.987747 183.312474 
L 44.581914 182.369938 
L 45.374138 181.026153 
L 45.968305 180.52159 
L 46.364417 180.457262 
L 46.760528 180.618421 
L 48.54303 181.956369 
L 49.929421 183.263555 
L 50.325533 183.168031 
L 51.315812 182.628316 
L 52.108035 182.545239 
L 52.306091 182.420552 
L 52.702202 181.761205 
L 53.098314 180.41815 
L 53.494425 178.130856 
L 54.68276 169.711808 
L 54.880816 169.152366 
L 55.078872 169.038104 
L 55.276928 169.45627 
L 55.673039 171.582623 
L 56.663318 178.504729 
L 57.05943 179.866487 
L 57.257486 180.051821 
L 57.455541 179.918509 
L 57.851653 178.971446 
L 58.247765 177.268656 
L 58.841932 173.547275 
L 59.436099 168.492976 
L 60.624434 157.762754 
L 61.020546 155.768383 
L 61.218602 155.293344 
L 61.416657 155.155634 
L 61.614713 155.286056 
L 62.010825 156.223298 
L 62.604992 158.78733 
L 63.793327 164.254037 
L 64.189439 165.372869 
L 64.58555 165.904394 
L 65.179717 166.354988 
L 65.377773 166.772314 
L 65.773885 168.4943 
L 66.169996 171.815049 
L 66.764164 179.676135 
L 69.338889 219.547992 
L 70.131112 226.757489 
L 71.121391 233.465083 
L 71.913615 237.20902 
L 72.507782 238.945401 
L 73.101949 239.942424 
L 73.696117 240.426082 
L 75.280563 241.376583 
L 76.666954 242.40007 
L 77.657233 242.794536 
L 79.439735 243.218466 
L 80.033902 243.210484 
L 80.62807 242.994694 
L 81.618349 242.296475 
L 82.806684 241.533876 
L 84.193074 241.008509 
L 85.381409 240.4464 
L 86.767799 239.504629 
L 88.15419 238.257553 
L 90.332804 236.275319 
L 91.719194 235.424797 
L 94.491976 233.944543 
L 95.284199 233.898159 
L 96.076422 234.039793 
L 96.670589 234.387746 
L 97.264757 235.121443 
L 98.255036 236.92583 
L 101.027817 242.384848 
L 102.216152 244.998792 
L 103.008375 246.295054 
L 105.385045 249.497367 
L 106.177268 250.230117 
L 106.969491 250.601489 
L 108.751993 251.047713 
L 111.524774 251.466515 
L 112.713109 251.468163 
L 114.891723 251.333027 
L 119.645062 251.538325 
L 122.813955 251.406836 
L 127.76535 251.459675 
L 129.349796 251.386089 
L 135.885637 251.675972 
L 137.66814 251.635571 
L 139.252586 251.673274 
L 141.629256 251.374457 
L 143.015646 251.245152 
L 144.402037 251.408663 
L 146.580651 251.668408 
L 148.165097 251.632777 
L 151.33399 251.413809 
L 155.295106 251.479675 
L 156.48344 251.395705 
L 157.473719 251.593788 
L 158.86011 251.848045 
L 159.850389 251.783931 
L 162.029003 251.487938 
L 164.801784 251.495679 
L 166.782342 251.28764 
L 169.159012 251.326343 
L 180.05208 251.41646 
L 183.815141 251.384446 
L 188.172368 251.541017 
L 189.360703 251.32568 
L 190.549038 251.118087 
L 191.737373 251.165133 
L 195.698488 251.505837 
L 198.075158 251.470745 
L 199.461549 251.619959 
L 200.451828 251.429209 
L 202.036274 251.117584 
L 205.403223 250.734135 
L 206.393502 250.351727 
L 207.185725 249.835855 
L 208.176004 248.933262 
L 209.166283 247.723149 
L 210.156562 246.127 
L 210.948785 244.475946 
L 211.741008 242.307069 
L 213.127399 237.572926 
L 214.315734 232.79539 
L 216.098236 225.373108 
L 218.871017 215.287914 
L 221.643798 207.444806 
L 222.237965 206.120317 
L 222.832133 205.238005 
L 224.020468 203.68647 
L 225.80297 201.153416 
L 227.18936 199.601958 
L 227.981584 199.036077 
L 228.575751 198.790837 
L 229.169918 198.806348 
L 229.764086 199.136415 
L 230.160197 199.342951 
L 230.358253 199.361502 
L 230.556309 199.258642 
L 230.952421 198.640623 
L 231.546588 196.923178 
L 232.338811 194.637889 
L 233.131034 193.258579 
L 233.923258 191.757154 
L 235.309648 189.072167 
L 235.903816 188.241214 
L 236.299927 187.951132 
L 236.696039 188.064118 
L 237.09215 188.597198 
L 237.686318 190.055144 
L 238.280485 191.503369 
L 238.478541 191.750391 
L 238.676597 191.81621 
L 238.874652 191.69635 
L 239.270764 190.902313 
L 240.062987 187.807439 
L 240.85521 184.881134 
L 241.845489 181.375513 
L 242.439657 179.198662 
L 242.835768 178.443508 
L 243.033824 178.386399 
L 243.033824 178.386399 
" style="fill:none;stroke:#add8e6;stroke-linecap:square;stroke-width:1.5;"/>
   </g>
   <g id="line2d_26">
    <path clip-path="url(#p97760d7f8f)" d="M 40.422743 142.610854 
L 41.809133 151.997791 
L 42.007189 152.311372 
L 42.205245 152.292839 
L 42.403301 151.984411 
L 43.39358 149.400888 
L 43.591635 149.289861 
L 43.789691 149.36099 
L 44.185803 149.937139 
L 45.374138 152.366958 
L 46.166361 153.305745 
L 46.364417 153.415599 
L 46.562472 153.392765 
L 46.760528 153.233334 
L 47.15664 152.464294 
L 47.750807 150.318526 
L 48.344975 148.307484 
L 48.741086 147.873264 
L 48.939142 147.959974 
L 49.335254 148.665235 
L 50.523588 151.817736 
L 50.9197 152.212777 
L 51.117756 152.229328 
L 51.315812 152.110933 
L 51.711923 151.433572 
L 52.108035 150.139169 
L 52.504146 147.829623 
L 52.900258 144.206333 
L 53.692481 133.920811 
L 54.286649 127.484579 
L 54.68276 125.764664 
L 54.880816 125.619824 
L 55.078872 125.874182 
L 55.474983 127.272461 
L 56.267207 130.243344 
L 56.465262 130.438163 
L 56.663318 130.256163 
L 56.861374 129.637325 
L 57.257486 126.795947 
L 57.851653 118.508677 
L 59.039988 99.683703 
L 59.436099 96.793912 
L 59.634155 96.20216 
L 59.832211 96.113951 
L 60.030267 96.496145 
L 60.426378 98.673895 
L 61.020546 104.343394 
L 61.614713 112.383888 
L 62.208881 122.682793 
L 63.001104 140.91903 
L 63.991383 165.175738 
L 64.58555 174.638478 
L 64.981662 178.36695 
L 65.377773 180.429285 
L 65.971941 182.285034 
L 66.566108 184.131201 
L 67.160275 186.719734 
L 67.952499 191.555578 
L 69.140833 199.328174 
L 69.933057 202.92222 
L 70.923336 206.126799 
L 71.715559 207.893988 
L 72.705838 209.414592 
L 74.48834 211.964786 
L 74.884452 212.18781 
L 75.478619 212.174598 
L 76.270842 212.096638 
L 76.86501 212.29449 
L 78.449456 213.080253 
L 79.043623 213.108159 
L 81.618349 212.628104 
L 84.39113 211.881085 
L 85.381409 211.60438 
L 87.560023 210.874326 
L 88.352246 210.817611 
L 89.144469 210.725971 
L 89.540581 210.491679 
L 90.134748 209.773565 
L 91.521139 207.631707 
L 91.91725 207.48383 
L 92.313362 207.612546 
L 93.105585 208.046384 
L 93.501697 207.989689 
L 93.897808 207.647963 
L 95.284199 206.103907 
L 95.68031 205.993544 
L 96.472534 206.133738 
L 97.264757 206.209996 
L 98.849203 206.12235 
L 99.245315 206.362285 
L 99.839482 207.084065 
L 102.018096 210.651207 
L 102.810319 212.432303 
L 104.592821 216.617136 
L 105.979212 219.298865 
L 106.771435 220.413189 
L 107.563658 221.141219 
L 112.118942 224.095938 
L 113.901444 224.521719 
L 114.891723 224.639216 
L 118.852839 224.706723 
L 120.041174 224.722329 
L 123.012011 224.533727 
L 125.190624 224.661794 
L 129.943963 224.414949 
L 132.320633 224.563637 
L 134.103135 224.566376 
L 136.083693 224.710237 
L 138.856474 224.517031 
L 141.233144 224.570866 
L 144.203981 224.528354 
L 146.184539 224.778106 
L 149.749543 224.646078 
L 150.739822 224.64505 
L 153.314548 224.410093 
L 156.879552 224.73471 
L 158.662054 225.066294 
L 159.652333 224.991094 
L 161.632891 224.676571 
L 163.811505 224.768859 
L 165.197896 224.759368 
L 167.376509 224.570398 
L 170.347346 224.700067 
L 174.704574 224.745012 
L 176.28902 224.759771 
L 179.854025 224.48314 
L 184.409308 224.802648 
L 185.795699 224.644973 
L 187.380145 224.489615 
L 189.558759 224.43134 
L 194.114042 224.810227 
L 196.688767 224.744251 
L 198.669325 224.580985 
L 200.055716 224.438045 
L 202.432386 224.38141 
L 204.214888 223.969487 
L 205.403223 223.555107 
L 206.195446 223.081192 
L 206.987669 222.339759 
L 207.779892 221.236918 
L 208.572115 219.747837 
L 209.562394 217.362941 
L 211.741008 211.350021 
L 212.533231 208.566237 
L 213.127399 205.849092 
L 213.919622 201.092924 
L 216.296291 185.384493 
L 218.078794 176.095927 
L 220.455463 164.853716 
L 221.643798 159.670874 
L 222.634077 156.311139 
L 224.020468 152.539345 
L 225.406858 148.938232 
L 226.199081 145.854036 
L 226.793249 143.715043 
L 227.18936 142.903279 
L 227.585472 142.600093 
L 228.179639 142.627766 
L 228.575751 142.782699 
L 228.971863 143.30267 
L 229.367974 144.435563 
L 229.962142 147.487955 
L 230.754365 151.62273 
L 231.150476 152.545367 
L 231.348532 152.624361 
L 231.546588 152.380745 
L 231.9427 151.054866 
L 232.338811 148.775365 
L 233.725202 138.688783 
L 234.121313 137.484422 
L 234.319369 137.28667 
L 234.517425 137.378094 
L 234.913537 138.024195 
L 235.507704 139.181921 
L 235.903816 139.410321 
L 236.299927 139.135879 
L 236.894094 138.486617 
L 237.09215 138.429533 
L 237.290206 138.493258 
L 237.884373 139.064922 
L 238.082429 139.089588 
L 238.280485 138.900756 
L 238.676597 137.437854 
L 240.062987 129.986258 
L 240.261043 129.976941 
L 240.657155 130.878444 
L 241.251322 132.242502 
L 241.449378 132.225044 
L 241.647434 131.919413 
L 242.043545 130.558682 
L 242.835768 126.169359 
L 243.033824 125.072674 
L 243.033824 125.072674 
" style="fill:none;stroke:#add8e6;stroke-linecap:square;stroke-width:1.5;"/>
   </g>
   <g id="line2d_27">
    <path clip-path="url(#p97760d7f8f)" d="M 40.322979 105.210858 
L 40.703015 102.458088 
L 40.893033 101.788238 
L 41.083051 101.943188 
L 41.273069 103.098047 
L 41.653105 108.576007 
L 42.98323 136.698399 
L 43.173248 137.405974 
L 43.363266 136.897668 
L 43.743301 133.433972 
L 44.313355 127.627799 
L 44.693391 125.76435 
L 45.073427 125.147052 
L 45.453462 124.970945 
L 45.64348 124.998707 
L 45.833498 125.156194 
L 46.213534 126.011175 
L 49.823874 138.743113 
L 50.20391 140.098169 
L 50.583945 142.679226 
L 51.724053 153.874446 
L 51.914071 154.212993 
L 52.104089 153.706021 
L 52.484124 150.316392 
L 53.054178 141.005106 
L 53.81425 127.1419 
L 54.004268 125.149456 
L 54.194285 124.364449 
L 54.384303 124.896337 
L 54.574321 126.702012 
L 54.954357 133.2541 
L 56.4745 164.266034 
L 56.854536 167.697181 
L 57.044554 168.248834 
L 57.234572 168.147123 
L 57.614607 166.840369 
L 58.184661 164.324402 
L 58.564697 161.2511 
L 58.944733 155.284522 
L 59.704804 141.978386 
L 59.894822 140.75938 
L 60.08484 140.665374 
L 60.274858 141.434094 
L 61.034929 145.926805 
L 61.985019 148.741916 
L 62.365055 151.782109 
L 62.745091 156.562791 
L 64.075216 176.733962 
L 64.265234 176.367844 
L 64.455252 174.716867 
L 65.595359 159.373604 
L 65.785377 158.635521 
L 65.975395 158.434354 
L 66.165413 158.592216 
L 67.495538 160.904202 
L 67.875574 160.970814 
L 69.015681 160.614695 
L 69.395717 160.944855 
L 70.91586 162.906994 
L 71.295896 162.910857 
L 72.245985 162.663813 
L 72.626021 162.800086 
L 73.006057 163.182827 
L 73.766128 164.457893 
L 74.5262 165.566514 
L 74.906236 165.887037 
L 75.286271 165.966637 
L 75.666307 165.729514 
L 76.806414 164.428779 
L 77.18645 164.498463 
L 77.566486 164.895887 
L 77.946522 165.630745 
L 78.516575 167.356503 
L 79.086629 169.066964 
L 79.466665 169.554881 
L 79.656683 169.556065 
L 80.606772 169.015499 
L 80.986808 169.459253 
L 82.316933 172.06325 
L 82.506951 172.09573 
L 82.696969 171.99587 
L 83.077005 171.41409 
L 83.647059 169.797855 
L 84.40713 167.507133 
L 84.787166 166.908961 
L 85.167202 166.770767 
L 86.117291 166.910781 
L 86.497327 166.524645 
L 86.877363 165.766089 
L 87.827452 163.454991 
L 88.01747 163.303457 
L 88.207488 163.364984 
L 88.397506 163.653441 
L 88.777542 164.849479 
L 90.487703 172.100222 
L 90.867738 172.687159 
L 91.247774 172.858931 
L 91.62781 172.744563 
L 92.387882 172.434563 
L 92.767917 172.587556 
L 93.147953 173.00866 
L 94.668096 175.235447 
L 95.23815 175.516029 
L 96.188239 175.801926 
L 96.568275 176.172962 
L 97.138329 177.101179 
L 97.8984 178.358995 
L 98.658472 179.039997 
L 99.228526 179.603276 
L 99.988597 180.779211 
L 100.558651 181.622502 
L 100.938687 181.865981 
L 101.318722 181.767144 
L 102.648848 180.81641 
L 103.218901 180.863342 
L 104.359009 181.068689 
L 105.499116 180.991455 
L 106.259188 180.961882 
L 106.829241 181.244321 
L 107.779331 181.885668 
L 108.159366 181.918193 
L 109.299474 181.725194 
L 109.67951 181.93407 
L 110.249563 182.592185 
L 111.199653 183.762688 
L 111.769706 184.087776 
L 112.149742 184.098254 
L 112.909814 183.792697 
L 113.479867 183.63327 
L 114.049921 183.72246 
L 116.140118 184.591893 
L 117.660261 185.339749 
L 118.990386 186.074398 
L 119.940476 186.231488 
L 121.080583 186.450671 
L 123.930851 187.375692 
L 126.971138 188.821908 
L 128.301263 189.171993 
L 129.631388 189.615372 
L 130.581478 190.127569 
L 131.721585 190.804844 
L 132.671674 191.10085 
L 134.191818 191.296843 
L 135.901979 191.511393 
L 138.372211 192.335176 
L 139.702336 192.541171 
L 141.032462 192.713497 
L 142.552605 192.826916 
L 143.692712 193.233655 
L 144.642802 193.50151 
L 146.542981 193.596622 
L 149.203231 193.83018 
L 152.623553 195.166066 
L 156.423911 196.994341 
L 158.32409 197.373205 
L 159.084161 197.286055 
L 159.844233 196.984832 
L 161.554394 196.137641 
L 162.694501 195.711245 
L 164.59468 194.570144 
L 165.924805 193.510787 
L 168.015002 191.835271 
L 171.435324 189.247826 
L 172.385414 188.054332 
L 174.095575 185.479435 
L 177.135861 180.393038 
L 178.656004 176.966168 
L 180.366165 172.887045 
L 181.126237 170.523445 
L 183.026416 164.005625 
L 185.30663 158.498297 
L 186.826773 155.163884 
L 188.536934 150.892875 
L 191.007167 145.15161 
L 191.767239 143.036095 
L 193.857435 138.157947 
L 194.997543 134.905307 
L 196.707704 128.769807 
L 198.797901 123.947058 
L 199.367954 122.79694 
L 200.128026 121.850273 
L 200.698079 121.210499 
L 201.078115 120.547893 
L 201.648169 119.000635 
L 202.408241 116.960919 
L 202.978294 116.204038 
L 203.35833 115.700822 
L 203.738366 114.795695 
L 204.308419 112.438466 
L 205.258509 108.109303 
L 205.638545 107.552941 
L 205.828563 107.647996 
L 206.208598 108.484379 
L 207.348706 112.13849 
L 207.538724 112.228571 
L 207.728741 112.05154 
L 208.108777 110.980547 
L 208.868849 108.265755 
L 209.248885 107.801648 
L 209.62892 107.991855 
L 210.008956 108.335806 
L 210.198974 108.380527 
L 210.388992 108.266569 
L 210.769028 107.497629 
L 211.909135 103.902427 
L 212.289171 103.398276 
L 213.23926 102.521682 
L 213.999332 101.637496 
L 214.379368 101.539765 
L 214.759403 101.898008 
L 215.139439 102.714173 
L 216.279547 105.722138 
L 217.229636 107.127473 
L 217.79969 107.790957 
L 217.989708 107.783996 
L 218.179725 107.573532 
L 218.559761 106.434278 
L 219.129815 103.324425 
L 219.699869 100.654023 
L 219.889887 100.340082 
L 220.079904 100.398162 
L 220.45994 101.464199 
L 221.029994 103.560799 
L 221.220012 103.779267 
L 221.41003 103.574265 
L 221.790065 101.923372 
L 223.500226 90.894367 
L 224.07028 89.445422 
L 224.640334 88.048072 
L 225.780441 84.84022 
L 226.730531 83.29144 
L 228.440692 79.123503 
L 229.010745 77.543649 
L 229.200763 77.35159 
L 229.390781 77.444219 
L 229.580799 77.839121 
L 229.960835 79.397094 
L 230.910924 84.23171 
L 231.29096 85.064003 
L 231.480978 85.01839 
L 231.670996 84.620053 
L 232.051032 82.798843 
L 233.381157 73.803949 
L 233.571175 73.332722 
L 233.761193 73.188814 
L 233.95121 73.345756 
L 234.331246 74.285909 
L 234.711282 75.336502 
L 234.711282 75.336502 
" style="fill:none;stroke:#add8e6;stroke-linecap:square;stroke-width:1.5;"/>
   </g>
   <g id="line2d_28">
    <path clip-path="url(#p97760d7f8f)" d="M 40.322979 87.704665 
L 41.083051 91.850511 
L 41.843122 95.281713 
L 42.223158 96.260242 
L 42.413176 96.395903 
L 42.603194 96.280382 
L 42.98323 95.492398 
L 43.363266 94.647917 
L 43.553284 94.508523 
L 43.743301 94.682106 
L 43.933319 95.208718 
L 44.313355 97.193979 
L 45.073427 102.017094 
L 45.453462 103.428402 
L 46.403552 106.061337 
L 47.353641 109.637727 
L 47.733677 110.282787 
L 48.113713 110.520338 
L 48.493749 110.422881 
L 48.873784 109.905402 
L 49.633856 108.482723 
L 49.823874 108.419616 
L 50.013892 108.547624 
L 50.393928 109.279582 
L 52.104089 114.259562 
L 53.624232 119.108197 
L 54.194285 119.786216 
L 54.764339 120.095013 
L 55.144375 120.10728 
L 56.4745 119.854138 
L 56.854536 120.276085 
L 57.234572 121.182653 
L 58.374679 124.627003 
L 58.754715 124.917868 
L 59.324768 124.828774 
L 59.894822 124.547145 
L 60.464876 123.880777 
L 61.034929 123.232728 
L 61.224947 123.182514 
L 61.414965 123.261417 
L 61.795001 123.852337 
L 62.175037 124.997751 
L 63.505162 129.839721 
L 63.885198 130.528436 
L 64.265234 130.900955 
L 64.835287 131.116322 
L 65.975395 131.317755 
L 66.35543 131.633203 
L 67.30552 132.921233 
L 70.155788 136.542837 
L 71.295896 137.459927 
L 72.245985 138.194581 
L 72.816039 138.350794 
L 74.716218 138.510143 
L 75.096253 138.607184 
L 75.476289 138.886373 
L 77.376468 140.886086 
L 79.656683 143.023059 
L 80.79679 144.658469 
L 81.556862 145.282604 
L 82.506951 145.80482 
L 83.837076 146.246274 
L 85.547237 146.512126 
L 86.307309 147.152534 
L 87.067381 147.68455 
L 88.967559 148.555641 
L 89.727631 149.072028 
L 90.297685 149.146198 
L 91.437792 149.040194 
L 92.387882 149.333395 
L 95.23815 150.291345 
L 95.998221 150.386594 
L 96.378257 150.650646 
L 96.948311 151.427907 
L 97.708382 152.514895 
L 98.088418 152.755057 
L 98.658472 152.753741 
L 99.418544 152.671144 
L 99.988597 152.812291 
L 100.748669 153.23561 
L 101.698758 153.804786 
L 102.268812 153.924255 
L 103.598937 154.019948 
L 104.168991 154.42821 
L 105.309098 155.377972 
L 105.879152 155.480263 
L 106.639223 155.272747 
L 107.779331 154.88752 
L 108.349384 154.88901 
L 108.919438 155.093265 
L 110.249563 155.710235 
L 115.9501 156.732167 
L 118.230315 157.376366 
L 119.750458 157.836867 
L 121.080583 158.493737 
L 122.410708 158.776131 
L 124.310887 159.28518 
L 126.591102 159.925665 
L 127.921227 160.051145 
L 130.011424 160.754367 
L 131.911603 161.394614 
L 134.761871 161.860473 
L 138.182193 162.853822 
L 140.652426 163.486107 
L 143.122658 164.181514 
L 146.162945 165.04689 
L 147.683088 165.625009 
L 148.823195 165.745727 
L 149.773285 165.857599 
L 150.723374 166.22045 
L 152.433535 167.148623 
L 155.853857 169.292934 
L 158.894143 170.235532 
L 159.654215 170.057128 
L 163.074537 168.404412 
L 165.164734 166.691711 
L 168.015002 164.0297 
L 169.345127 162.669075 
L 172.385414 158.923401 
L 175.615718 154.267828 
L 176.945843 151.795092 
L 180.176147 145.232506 
L 181.886308 141.051188 
L 183.216434 137.949358 
L 184.546559 134.965978 
L 186.826773 128.550665 
L 187.776863 125.39035 
L 190.057078 117.155527 
L 190.817149 115.402433 
L 192.337292 112.257252 
L 193.4774 109.218344 
L 194.807525 105.257396 
L 197.08774 100.730626 
L 198.797901 98.399016 
L 199.557972 96.714591 
L 200.318044 94.503175 
L 201.078115 92.227816 
L 201.458151 91.536927 
L 201.838187 91.250848 
L 202.788276 90.948689 
L 203.35833 90.311203 
L 204.118402 89.428876 
L 204.688455 89.084441 
L 205.638545 88.74328 
L 206.208598 88.191355 
L 206.96867 87.01158 
L 207.728741 85.898997 
L 208.488813 85.353606 
L 209.058867 84.814874 
L 209.62892 84.254771 
L 209.818938 84.218311 
L 210.008956 84.308298 
L 210.388992 84.862875 
L 211.149064 86.284032 
L 211.339081 86.389876 
L 211.529099 86.341563 
L 211.909135 85.872485 
L 212.669207 84.731681 
L 213.049242 84.516588 
L 213.999332 84.171443 
L 214.759403 83.464287 
L 215.329457 82.631327 
L 215.899511 81.314496 
L 217.229636 77.872075 
L 217.989708 76.158425 
L 218.939797 73.675765 
L 219.319833 73.424256 
L 219.699869 73.68244 
L 220.079904 73.997138 
L 220.269922 73.99576 
L 220.45994 73.81939 
L 220.839976 72.898312 
L 221.41003 70.402554 
L 222.930173 62.418102 
L 223.310209 61.526504 
L 223.690244 61.044534 
L 224.260298 60.734742 
L 224.830352 60.747769 
L 225.400405 60.761369 
L 225.970459 60.441023 
L 226.540513 60.143152 
L 226.920548 60.203565 
L 227.490602 60.630871 
L 228.060656 61.130195 
L 228.440692 61.15401 
L 228.63071 60.975603 
L 229.010745 60.153127 
L 229.580799 57.856499 
L 230.720906 52.20874 
L 231.100942 51.543202 
L 231.29096 51.623583 
L 231.670996 52.446022 
L 232.241049 54.016537 
L 232.431067 54.208384 
L 232.621085 54.08787 
L 232.811103 53.611365 
L 233.191139 51.635428 
L 234.331246 44.028184 
L 234.711282 42.998438 
L 234.711282 42.998438 
" style="fill:none;stroke:#add8e6;stroke-linecap:square;stroke-width:1.5;"/>
   </g>
   <g id="patch_3">
    <path d="M 30.103125 572.198438 
L 30.103125 17.798438 
" style="fill:none;stroke:#000000;stroke-linecap:square;stroke-linejoin:miter;stroke-width:0.8;"/>
   </g>
   <g id="patch_4">
    <path d="M 253.303125 572.198438 
L 253.303125 17.798438 
" style="fill:none;stroke:#000000;stroke-linecap:square;stroke-linejoin:miter;stroke-width:0.8;"/>
   </g>
   <g id="patch_5">
    <path d="M 30.103125 572.198438 
L 253.303125 572.198438 
" style="fill:none;stroke:#000000;stroke-linecap:square;stroke-linejoin:miter;stroke-width:0.8;"/>
   </g>
   <g id="patch_6">
    <path d="M 30.103125 17.798438 
L 253.303125 17.798438 
" style="fill:none;stroke:#000000;stroke-linecap:square;stroke-linejoin:miter;stroke-width:0.8;"/>
   </g>
  </g>
 </g>
 <defs>
  <clipPath id="p97760d7f8f">
   <rect height="554.4" width="223.2" x="30.103125" y="17.798438"/>
  </clipPath>
 </defs>
</svg>
